<svg xmlns="http://www.w3.org/2000/svg" xmlns:xlink="http://www.w3.org/1999/xlink" viewBox="0 0 1931.87 593.24"><defs><style>.cls-1{fill:url(#radial-gradient);}</style><radialGradient id="radial-gradient" cx="954.5" cy="296.62" r="902.36" gradientTransform="translate(-59.79) scale(1.06 1)" gradientUnits="userSpaceOnUse"><stop offset="0.02" stop-color="#5b0b24"/><stop offset="0.07" stop-color="#56091c"/><stop offset="0.16" stop-color="#54081a"/><stop offset="0.17" stop-color="#51081a"/><stop offset="0.23" stop-color="#440819"/><stop offset="0.31" stop-color="#3c0818"/><stop offset="0.46" stop-color="#3a0818"/><stop offset="0.48" stop-color="#390818"/><stop offset="0.73" stop-color="#370817"/><stop offset="0.96" stop-color="#260a15"/></radialGradient></defs><g id="Layer_2" data-name="Layer 2"><g id="Layer_1-2" data-name="Layer 1"><path class="cls-1" d="M9.16,217.75V190.27H0v403H1931.87V232.8h-14.33v-3.2h13.11l1.22-.78v-7.27l-.69-.63h-13.64l-2.25-113.36-2.12,113.34-13,.33-2.93,3v3.35l3.64,2.13,12-.11-.27,4-15.37.23v72.09h-10.66l.17-77.63-27.48-28.41-22.88,28.86v72.6h-8.07V207.39l-31.14.5v156H1791V296.76h-55.64v96.17h-23V417.1h-14.51V309h-9.68V293.7h-8.47V276.39h-27.82v18.84H1639.8v65.65h-41.12v74.81L1580.54,159.3v-29h-32.66v-84h-13.3V18.84h-8.47V0h-30.24V25h-8.46v22.9h-9.67v84h-42.33V87.54h-10.89V35.63h-7.25V9.68h-25.4v26h-9.68v58h-8.46V159.3l-36.29,276.39V363.93H1329v42.75h-19.36V386.83h-38.7v82.44H1255.2v-22.9h-10.89V426.53h-15.72V454h-13.3V386.83h-4.84V425h-14.51V412.78h-32.66v21.38h-24.19v24.42h-20.56v26h-15.72v-22.9h-38.7V434.16h-9.68v44.27h-18.14v-55H1012.1v29H974.61V470.8H946.79v27.48H933.73v-38H913.84V479.1H882.38V441.46h-38.1V416.38H792.94V376.65H759.81v75.27H735V391.29H721.72v37.63h-53v31.36H647.19V424.74H641V319.46H610v39.71h-8V282.08H570.56v56.38h-6.69V293.13h-13.4v43.58l-2.06-2.6V320.94c0,1.22-3.6,1.26-7.3,1V234.14H493.8v69.27h-2.92v7.52h-5.07V171h-4.17v-8.3h-3.59V130.26h-1.43v-9.45l-1.33-1.68v-9l-1.75-2.21V96.7h-2.48V86.33l-3.74-4.72V73.52l-3.51-9.47V54.9H462.6l-.91-48.55V5.43l-.06,49.47-1.93,5.19V66.5L458.25,68v7l-1,.92v11l-2.42.61v11l-1.69,1.84v8.54l-1,1.53v10.37l-6.29,7.63v33.23l-4.48,5.66v14.51l-2.23,2.82v132H434V275l-3.31-.84v-7.63l-3.3-4.89-2.65,1.95V244.35H417.4v-47l-23.46,76v56.76h-5.13V273.35H362.67v62h-2.31v6.5h-7.21v7.56h-.47v11.77l-7.78-.47v8.46h-4.78V229.36h-19V321h-14.6V212.53H290.92v52.55H273.29v7.79h-6.7v90.71L256,376.94h-1V265.08H232.49V369.13h-4.78V358.55h-.35v-3.75L224,351.38V166.7h-2.21V130l-3.32-.48v-13l-4.41-.46v-7.43h-4.42v-7.43H204.1V54.76s-.34-6.86-7.43-7.2V29.21h-1.84v18.5s-6,.7-5.82,8c.2,6.49,0,41.8,0,41.8L186.8,98v4.17l-3.68-.93v8.36H178.7v6h-4v15.33h-4v36.23h-4.05v220.2l-2-2.53V356h-2V285.89H141.18V268.17H119.1v35.92H101.73v44.68H91.94"/></g></g></svg>