<svg xmlns="http://www.w3.org/2000/svg" xmlns:xlink="http://www.w3.org/1999/xlink" viewBox="0 0 1920 770.13"><defs><style>.cls-1{fill:url(#radial-gradient);}</style><radialGradient id="radial-gradient" cx="957.83" cy="385.07" fx="1053.6831447143331" r="953.48" gradientUnits="userSpaceOnUse"><stop offset="0.11" stop-color="#550920"/><stop offset="0.33" stop-color="#510a1f"/><stop offset="0.61" stop-color="#51091f"/><stop offset="0.74" stop-color="#3e0b1d"/><stop offset="0.83" stop-color="#370c1c"/><stop offset="1" stop-color="#360c1c"/></radialGradient></defs><g id="Layer_2" data-name="Layer 2"><g id="Layer_1-2" data-name="Layer 1"><path class="cls-1" d="M1903.43,249.59v28.94H1875v4.62h-24.4v21.33h-5.11v42.73h-1.58l-2.58-17.28L1838,347.21h-9v-39.3h-6.79v8.21h-19.39V310h-9.21v8.9h-6.79V312h-7.27v35.61c-3.56.21-7.55.32-8.53-.08.55,2.73-.23,21.67-.23,21.67h-5.38v23.23h-4.35V355.53l-5-13.17-5,15.81v26.38h-3.68v-97h-25.63v15.55H1719v33.34h-9.22v-47h-16.34V251.59h-20.77v18.66h-20.09v73.86h-1.91v30.32l-1.89,2.67V145.25h-3.81V107.11h-3.81V91h-3.8V84.61h-4.16V75.8l-3.46,1v-4.4l-2.08-.5s-.19-37.17,0-44c.21-7.66-5.48-8.4-5.48-8.4V0h-1.72V19.32c-6.68.35-7,7.58-7,7.58V75.8h-5.18v7.83h-4.16v7.82l-4.15.49v13.69l-3.12.5v38.62h-2.08V339.2l-3.2,3.61v3.95h-.33v11.14h-4.49V248.33h-21.22V366.11h-.91l-10-14.06V256.54h-6.3v-8.21h-16.59V193H1517V307.2h-13.74V210.74h-17.84V357.89h-4.5V349l-7.32.5V337.09h-.44v-8h-6.79v-6.84h-2.18V257h-24.59v59.77h-4.82V257h-22.08v49.5h-6.93v20.29l-2.48-2.05-3.12,5.15v8l-3.1.88v43.88h-4.89v-139l-2.1-3V225.44l-4.21-6v-35l-5.92-8V165.54l-.91-1.61v-9l-1.59-1.94V141.44l-2.28-.64V129.24l-.9-1v-7.38l-1.37-1.61v-6.75l-1.81-5.46L1371,55v1l-.85,51.12H1369v9.63l-3.3,10v8.51l-3.52,5v10.92h-2.34v11.81l-1.64,2.32v9.49l-1.26,1.77v9.94h-1.34v34.15h-3.37v8.73h-3.92V376.63h-4.78v-7.92h-2.74V295.78h-44.52v92.41c-3.48.3-6.87.27-6.87-1V401l-1.94,2.74V357.89h-12.61v47.73h-6.29V346.26H1239v81.16h-7.51V385.61h-29.18V496.46h-5.84v37.42h-20.26v-33h-49.86V461.23H1113.9v63.84h-23.38V445.83h-31.17v41.82H1011v26.41H975.19v39.63h-29.6V533.88H926.88v40H914.59V545H888.41V525.66H853.14V495.12H830.38V553H813.31V506.37H804.2v28.94H767.79v24.11H753V532.09H733.65V506.37H710.89v-22.5H680.16v12.86H666.51V456.55H662v70.72H649.43V498.34H634.64v20.89H624.4v24.11H609.61V456.55H573.19v20.89H555v-45h-8V508H512.87V438.86h-8V377.78h-9.1V350.46h-23.9v27.32h-6.83v54.65H454.83v46.62L415,372.05V283.64h-9.1V259.53h-8V233.26H369.49V253.1h-8V282H349v88.41H318.28V401H301.21V322.22H262.52V253.1H251.14V233.26H225v18.23h-8v16.08h-9.11V381.41H194.23V356H172.62V254.71l-52.36,107v70.72h-5.85V268.14l-29.31-.52v98.91H77.51V290.1L56,259.71,30.13,289.63l.16,81.72h-10v-75.9L5.8,295.21,5.54,291l11.29.12,3.42-2.25v-3.52l-2.75-3.16-12.2-.35-2-119.33L1.18,281.86H0V291H1.18v3.38H0V770.13H1920V249.59Z"/></g></g></svg>