<?xml version="1.0" encoding="UTF-8"?>
<svg xmlns="http://www.w3.org/2000/svg" viewBox="0 0 1915.66 770.13">
  <defs>
    <style>
      .cls-1 {
        isolation: isolate;
      }

      .cls-2 {
        fill: #e00066;
        mix-blend-mode: multiply;
      }
    </style>
  </defs>
  <g class="cls-1">
    <g id="Layer_2">
      <g id="Layer_1-2" data-name="Layer_1">
        <path class="cls-2" d="M1899.12,249.59v28.93h-28.38v4.62h-24.34v21.33h-5.1v42.74h-1.57l-2.57-17.29-3.31,17.29h-8.98v-39.31h-6.77v8.21h-19.35v-6.16h-9.18v8.9h-6.78v-6.84h-7.25v35.61c-3.55.2-7.54.31-8.52-.08.55,2.73-.22,21.67-.22,21.67h-5.37v23.23h-4.34v-36.91l-4.96-13.18-4.98,15.82v26.37h-3.68v-96.99h-25.57v15.55h-2.83v33.34h-9.19v-47.04h-16.3v-37.82h-20.73v18.66h-20.04v73.86h-1.91v30.32l-1.88,2.67v-231.85h-3.8v-38.14h-3.8v-16.13h-3.79v-6.36h-4.15v-8.81l-3.45.98v-4.39l-2.07-.5s-.19-37.18,0-44.01c.21-7.67-5.47-8.41-5.47-8.41V0h-1.72v19.32c-6.66.35-6.98,7.58-6.98,7.58v48.9h-5.18v7.83h-4.15v7.82l-4.14.49v13.69l-3.11.5v38.63h-2.07v194.45l-3.19,3.61v3.95c-.19-.01-.33-.01-.33-.01v11.14h-4.49v-109.55h-21.17v117.77h-.91l-9.93-14.06v-95.5h-6.29v-8.21h-16.55v-55.32h-14.68v114.19h-13.71v-96.47h-17.8v147.15h-4.49v-8.9l-7.31.5v-12.39h-.44v-7.96h-6.77v-6.84h-2.17v-65.24h-24.54v59.76h-4.81v-59.76h-22.03v49.49h-6.91v20.3l-2.48-2.06-3.11,5.15v8.03l-3.1.88v43.88h-4.88v-139.04l-2.09-2.97v-15.27l-4.21-5.96v-34.98l-5.9-8.03v-10.92l-.91-1.61v-8.99l-1.59-1.94v-11.56l-2.27-.64v-11.57l-.91-.97v-7.38l-1.36-1.61v-6.75l-1.81-5.46-.06-52.09v.97l-.85,51.12h-1.13v9.63l-3.3,9.97v8.52l-3.51,4.98v10.92h-2.33v11.81l-1.64,2.32v9.48l-1.25,1.77v9.94h-1.34v34.15h-3.37v8.73h-3.91v147.34h-4.76v-7.92h-2.74v-72.93h-44.42v92.41c-3.47.3-6.85.27-6.85-1.02v13.86l-1.94,2.74v-45.88h-12.58v47.73h-6.28v-59.36h-29.5v81.17h-7.5v-41.81h-29.11v110.84h-5.83v37.42h-20.21v-33.02h-49.75v-39.62h-12.44v63.84h-23.32v-79.24h-31.1v41.83h-48.2v26.41h-35.77v39.63h-29.54v-19.81h-18.67v40.01h-12.26v-28.94h-26.12v-19.28h-35.2v-30.54h-22.71v57.86h-17.03v-46.61h-9.09v28.93h-36.33v24.11h-14.76v-27.33h-19.31v-25.72h-22.71v-22.5h-30.66v12.86h-13.62v-40.18h-4.54v70.72h-12.49v-28.93h-14.76v20.89h-10.22v24.11h-14.76v-86.8h-36.33v20.9h-18.17v-45.01h-7.95v75.55h-34.06v-69.12h-7.94v-61.09h-9.09v-27.32h-23.85v27.32h-6.81v54.66h-10.22v46.61h-39.74v-88.4h-9.08v-24.11h-7.95v-26.27h-28.39v19.84h-7.95v28.93h-12.49v88.41h-30.66v30.54h-17.03v-78.76h-38.61v-69.12h-11.35v-19.84h-26.12v18.23h-7.95v16.08h-9.09v113.84h-13.62v-25.44h-21.57v-101.26h-52.23v70.72h-5.84v-164.29l-29.24-.52v98.92h-7.58v-76.43l-21.48-30.39-25.8,29.92.16,81.73h-10.01v-75.9l-14.42-.24-.26-4.21,11.26.12,3.42-2.24v-3.52l-2.74-3.16-12.18-.35-1.99-119.33-2.11,119.35H0v9.14h1.18v3.38H0v475.76h1915.66V249.59h-16.53Z"/>
      </g>
    </g>
  </g>
</svg>