<svg xmlns="http://www.w3.org/2000/svg" xmlns:xlink="http://www.w3.org/1999/xlink" viewBox="0 0 360.83 293.9"><defs><style>.cls-1{fill:url(#radial-gradient);}</style><radialGradient id="radial-gradient" cx="180.01" cy="146.95" r="214.37" gradientUnits="userSpaceOnUse"><stop offset="0.07" stop-color="#550920"/><stop offset="0.27" stop-color="#510a1f"/><stop offset="0.54" stop-color="#51091f"/><stop offset="0.7" stop-color="#3e0b1d"/><stop offset="0.83" stop-color="#370c1c"/><stop offset="1" stop-color="#360c1c"/></radialGradient></defs><g id="Layer_2" data-name="Layer 2"><g id="Layer_1-2" data-name="Layer 1"><path class="cls-1" d="M359.56,0V80H357V75.72h-1.49V36.08h-24.2V86.31c-1.89.16-3.73.15-3.73-.54v7.5l-1.06,1.49V69.84h-6.85v26h-3.42V63.52H300.15v44.11h-4.09V84.91H280.2v60.25H277V165.5H266V147.56h-27.1V126h-6.77v34.7H219.44V117.64H202.5v22.73H176.22v14.35H156.76v21.54H140.67V165.5H130.5v21.74h-6.68v-15.7H109.59V161H90.42v-16.6H78.05v31.46H68.77V150.55H63.82v15.72H44v13.11H36V164.52H25.48v-14H13.11V138.32H0V293.9H360.83V0Z"/></g></g></svg>