<?xml version="1.0" encoding="UTF-8"?>
<svg xmlns="http://www.w3.org/2000/svg" version="1.1" xmlns:xlink="http://www.w3.org/1999/xlink" viewBox="0 0 502.3 259.4">
  <defs>
    <style>
      .cls-1 {
        fill: url(#radial-gradient);
      }
    </style>
    <radialGradient id="radial-gradient" cx="145.7" cy="105.2" fx="-100.8" fy="105.2" r="334.3" gradientTransform="translate(0 260.6) scale(1 -1)" gradientUnits="userSpaceOnUse">
      <stop offset=".1" stop-color="#540d25"/>
      <stop offset=".5" stop-color="#520c23"/>
      <stop offset=".6" stop-color="#4b0b20"/>
      <stop offset=".7" stop-color="#420a1b"/>
      <stop offset=".9" stop-color="#3d0b1a"/>
      <stop offset="1" stop-color="#2f0c18"/>
      <stop offset="1" stop-color="#2f0c18"/>
    </radialGradient>
  </defs>
  <!-- Generator: Adobe Illustrator 28.7.3, SVG Export Plug-In . SVG Version: 1.2.0 Build 164)  -->
  <g>
    <g id="Layer_1">
      <g id="Layer_2">
        <g id="Layer_1-2">
          <path class="cls-1" d="M502.3,16.8c-.4-.6-.7-1.1-1.1-1.6-3.4-4.4-8.4-8-14.2-7.4-4.6.5-9.5,3.3-10.7,7.9-4.5-4.6-10.8-9.1-16.8-4.5-1.1.8-2,1.8-2.8,2.9-3.9-5-9.8-8.2-15.9-10.1-9-2.8-18.8-3.6-28.1-3.8-9.6-.3-20.3.5-28.4,6.3-9.2,6.6-12.2,18.1-12.1,29,0,11.7,3.8,23.1,10.5,32.7-9.7.4-18.5,8.8-19.4,18.5-3.2-2.1-7.2-2.3-10.6-.7,0-11.2-3.9-22-11-30.6-7.6-9.5-18.5-15.7-30.5-17.4-12-1.5-24.2,1.3-34.4,7.8-10.4,6.7-18,16.9-21.2,28.8-3.3,12.1-2.4,25.1,2.7,36.6.4.9.9,1.8,1.4,2.7-7.4,1.5-12.6,8.2-12,15.8-3.9-.8-8,.3-11,3-2.4-14.3-14.7-26.4-29.6-27.1-8.2-.3-16.3,2.3-22.7,7.4-6.4,5.3-10.4,12.9-11.1,21.2-.8,8.5,1.7,16.9,7.1,23.5-6.7-.2-13.8,1.6-18.3,6.8-4.1,4.7-5.7,11.9-2.6,17.4-5.5.8-10.1,4.7-11.8,10-3.2-2.4-7.2-3.3-11.1-2.4-2.6.5-5,1.8-6.9,3.7,0-6-2.9-11.9-6.7-16.4-4.1-4.9-9.7-8.2-15.9-9.6-13.2-2.6-26.4,3.9-32.3,16-2.8,6.1-3.9,12.9-3,19.6-7.3-3.5-15.7-6.6-23.4-2.8-1.8.9-3.3,2.1-4.6,3.6-.5.8-1.3,1.5-2.1,1.9-1.1.4-2.2-.3-3.2-.8-1.6-.9-3-2-4.9-2.3-1.6-.2-3.3,0-4.8.7-3.2,1.3-5.3,4.2-5.7,7.6-8.8-.9-17.9,3.9-21.4,12.1-1.5.6-2.2,2.3-1.6,3.7,0,.1.1.3.2.4.2.3.5.4.9.4,7.9-2.3,16.8-4.7,24.6-1,3.2,1.5,6.3,3.7,9.9,4.3,1.7.3,3.4.2,5-.5,1.4-.7,2.7-1.7,3.9-2.8,1.2-1.1,2.5-2,4.2-1.4,1.6.7,3.3,1.6,4.8,2.5,2.9,1.3,6,2.3,9.1,2.9,6.5,1.1,13.1.7,19.4-1.1,6.1-1.8,11.6-5.1,16.2-9.4,1.9,8.1,9.3,14.2,17.4,15.9,9.9,2.1,20.3-1.2,28.2-7.1,3.9-2.9,7.3-6.4,10-10.4,1.6,3,4.3,5.3,7.6,6.2,4.7,1.2,10.4-.7,12.6-5,5.9,6.1,15.6,7.6,23.4,4.5,9.2-3.7,14-13.4,12.9-23-.1-1-.3-2.1-.5-3.1,4.6,3.2,11.5,1.9,15-2.5,1.2,2,3.1,3.4,5.4,4,2,.5,4.1.5,6.1,0-8.4,9.5-10.2,24.6-2.9,35.3,4.3,6.1,10.8,10.4,18.1,12,7.6,1.7,15.6.3,22.1-4,6.8-4.4,11.8-11.1,15.5-18.2,1.2,3,3.8,5.2,6.9,5.9,3.9.7,7.8-1,10-4.2,7.7,7,19.5,6.5,26.5-1.2,1.1-1.2,2-2.5,2.8-3.9.4.5.9.9,1.4,1.3,5.3,4.1,12.9,2.9,18.3-.4,3-2,5.8-4.4,8.2-7.2,3.7,3.2,8.9,3.8,13.3,1.7-1.6,7.8-1.8,17,6.5,20.8,2.6,1.1,5.2,1.9,8,2.4,2.9.6,5.8.9,8.7.8,5.3,0,10.5-1.7,14.8-4.9,3-2.3,5.2-5.4,6.3-9,.5,1,1.2,2,1.9,2.9,3.9,5.1,10.2,7.8,16.6,6.9,3.9-.6,7.7-1.6,11.2-3.2,1.8,6,5,11.4,9.4,15.8,5,5,11.8,9,19,9.6,7.9.7,15.2-3.3,21.8-7.2l1.5-.9V16.8Z"/>
        </g>
      </g>
    </g>
  </g>
</svg>