<svg xmlns="http://www.w3.org/2000/svg" xmlns:xlink="http://www.w3.org/1999/xlink" viewBox="0 0 140.83 72.44"><defs><style>.cls-1{fill:url(#radial-gradient);}</style><radialGradient id="radial-gradient" cx="50.82" cy="-74.55" fx="-18.237337360554946" r="93.66" gradientTransform="matrix(-1, -0.01, -0.01, 1, 150.15, 119.5)" gradientUnits="userSpaceOnUse"><stop offset="0.1" stop-color="#540d25"/><stop offset="0.31" stop-color="#520c23"/><stop offset="0.6" stop-color="#4b0b20"/><stop offset="0.7" stop-color="#420a1b"/><stop offset="0.9" stop-color="#3d0b1a"/><stop offset="1" stop-color="#2f0c18"/></radialGradient></defs><g id="Layer_2" data-name="Layer 2"><g id="Layer_1-2" data-name="Layer 1"><g id="Layer_1-3" data-name="Layer 1"><g id="Layer_2-2" data-name="Layer 2"><g id="Layer_1-2-2" data-name="Layer 1-2"><path class="cls-1" d="M.77,4.36,0,70.08l.42.26c1.83,1.11,3.87,2.26,6.08,2.09a8.89,8.89,0,0,0,5.35-2.63,10.44,10.44,0,0,0,2.69-4.4,11.93,11.93,0,0,0,3.13.94,5,5,0,0,0,4.67-1.88,4.76,4.76,0,0,0,.54-.81,5,5,0,0,0,1.74,2.55,7,7,0,0,0,4.13,1.42,10.63,10.63,0,0,0,2.44-.2,10.49,10.49,0,0,0,2.25-.64c2.33-1,2.31-3.62,1.88-5.81a3.45,3.45,0,0,0,3.74-.43,11.25,11.25,0,0,0,2.27,2c1.5.94,3.63,1.3,5.12.17a2,2,0,0,0,.4-.36,6.11,6.11,0,0,0,.77,1.11,5.24,5.24,0,0,0,7.42.42,2.82,2.82,0,0,0,2.79,1.21,2.72,2.72,0,0,0,2-1.63,13.3,13.3,0,0,0,4.28,5.15,8.08,8.08,0,0,0,6.18,1.19,8.41,8.41,0,0,0,5.11-3.3,8.27,8.27,0,0,0-.69-9.9,3.49,3.49,0,0,0,1.7,0,2.47,2.47,0,0,0,1.53-1.1,3.22,3.22,0,0,0,4.19.75c0,.28-.11.59-.15.87A6,6,0,0,0,92,62.48a3.17,3.17,0,0,0,3.52,1.44,3.46,3.46,0,0,0,2.14-1.71,12.1,12.1,0,0,0,2.77,2.94,10,10,0,0,0,7.88,2.09,6.29,6.29,0,0,0,4.92-4.4,11.53,11.53,0,0,0,4.51,2.69,12.46,12.46,0,0,0,5.43.37,11.5,11.5,0,0,0,2.56-.79,14.21,14.21,0,0,1,1.35-.68,1.14,1.14,0,0,1,1.18.41,4.83,4.83,0,0,0,1.08.79,2.4,2.4,0,0,0,1.4.16,11.22,11.22,0,0,0,2.79-1.17c2.19-1,4.68-.31,6.88.36a.29.29,0,0,0,.26-.11.3.3,0,0,0,.06-.11.79.79,0,0,0-.44-1,5.9,5.9,0,0,0-6-3.46,2.58,2.58,0,0,0-1.57-2.15,2.48,2.48,0,0,0-1.34-.21,3.93,3.93,0,0,0-1.38.63,1.23,1.23,0,0,1-.9.21,1.58,1.58,0,0,1-.58-.54,4.1,4.1,0,0,0-1.28-1c-2.14-1.09-4.51-.25-6.56.7a10,10,0,0,0-.78-5.5,8.26,8.26,0,0,0-9-4.59,8.15,8.15,0,0,0-4.49,2.64A7.39,7.39,0,0,0,104.57,55a3.89,3.89,0,0,0-5-.42,4.09,4.09,0,0,0-3.27-2.84,4.37,4.37,0,0,0-.67-4.88,6.45,6.45,0,0,0-5.11-2,9,9,0,0,0,2.07-6.56,8.6,8.6,0,0,0-3-6,9.65,9.65,0,0,0-6.33-2.15,9.13,9.13,0,0,0-8.39,7.49,3.56,3.56,0,0,0-3.07-.87,4.18,4.18,0,0,0-3.31-4.47,6.83,6.83,0,0,0,.4-.75,15.32,15.32,0,0,0,.88-10.24,13.91,13.91,0,0,0-5.84-8.14,14.59,14.59,0,0,0-9.61-2.3,13.38,13.38,0,0,0-8.61,4.77,13.53,13.53,0,0,0-3.18,8.54,3,3,0,0,0-3,.16,5.92,5.92,0,0,0-5.37-5.25,16,16,0,0,0,3-9.12c.06-3.06-.74-6.29-3.3-8.17C31.61.21,28.62,0,25.93,0A28.44,28.44,0,0,0,18,1a8.87,8.87,0,0,0-4.48,2.78,3.63,3.63,0,0,0-.78-.83c-1.67-1.3-3.44-.06-4.72,1.21a3.4,3.4,0,0,0-3-2.25,4.6,4.6,0,0,0-4,2c-.12.14-.2.27-.32.44Z"/></g></g></g></g></g></svg>