<svg xmlns="http://www.w3.org/2000/svg" xmlns:xlink="http://www.w3.org/1999/xlink" viewBox="0 0 222.23 114.75"><defs><style>.cls-1{fill:url(#radial-gradient);}</style><radialGradient id="radial-gradient" cx="64.5" cy="-47.93" fx="-44.534894821660146" r="147.87" gradientTransform="translate(0 116.6)" gradientUnits="userSpaceOnUse"><stop offset="0.1" stop-color="#540d25"/><stop offset="0.5" stop-color="#520c23"/><stop offset="0.6" stop-color="#4b0b20"/><stop offset="0.7" stop-color="#420a1b"/><stop offset="0.9" stop-color="#3d0b1a"/><stop offset="1" stop-color="#2f0c18"/></radialGradient></defs><g id="Layer_2" data-name="Layer 2"><g id="Layer_1-2" data-name="Layer 1"><g id="Layer_1-3" data-name="Layer 1"><g id="Layer_2-2" data-name="Layer 2"><g id="Layer_1-2-2" data-name="Layer 1-2"><path class="cls-1" d="M222.23,7.37c-.18-.27-.31-.49-.49-.71-1.5-1.95-3.72-3.54-6.28-3.27-2,.22-4.2,1.46-4.73,3.49-2-2-4.78-4-7.44-2a5.75,5.75,0,0,0-1.23,1.28,14.21,14.21,0,0,0-7-4.47A45.88,45.88,0,0,0,182.59,0c-4.24-.13-9,.23-12.56,2.79-4.07,2.92-5.39,8-5.35,12.83a25.36,25.36,0,0,0,4.64,14.46,9.34,9.34,0,0,0-8.58,8.18,4.82,4.82,0,0,0-4.68-.31A21.61,21.61,0,0,0,137.7,16.74a23.12,23.12,0,0,0-15.22,3.45,22,22,0,0,0-9.37,12.74,24.26,24.26,0,0,0,1.19,16.19c.18.4.4.8.62,1.2a6.6,6.6,0,0,0-5.31,7,5.62,5.62,0,0,0-4.86,1.33c-1.06-6.32-6.51-11.68-13.1-12a15.25,15.25,0,0,0-10,3.28,13.63,13.63,0,0,0-4.91,9.37,14.31,14.31,0,0,0,3.14,10.4c-3-.09-6.1.71-8.09,3-1.81,2.08-2.52,5.26-1.15,7.69a6.49,6.49,0,0,0-5.22,4.43,5.91,5.91,0,0,0-4.91-1.07,6,6,0,0,0-3,1.64,11.66,11.66,0,0,0-3-7.25,12.84,12.84,0,0,0-7-4.25A13,13,0,0,0,33.14,81a15.74,15.74,0,0,0-1.33,8.67c-3.23-1.55-6.95-2.92-10.35-1.24a6.62,6.62,0,0,0-2,1.59,2.47,2.47,0,0,1-.92.84c-.49.18-1-.13-1.42-.35a6.45,6.45,0,0,0-2.17-1,3.87,3.87,0,0,0-2.12.31,4.07,4.07,0,0,0-2.52,3.36A9.35,9.35,0,0,0,.8,98.48a1.27,1.27,0,0,0-.71,1.64.43.43,0,0,0,.09.18.43.43,0,0,0,.4.17c3.5-1,7.43-2.08,10.88-.44,1.42.66,2.79,1.64,4.38,1.9a3.72,3.72,0,0,0,2.21-.22,7.64,7.64,0,0,0,1.73-1.24,1.8,1.8,0,0,1,1.86-.62A19.44,19.44,0,0,1,23.76,101a17.92,17.92,0,0,0,4,1.28,19.42,19.42,0,0,0,8.58-.48,18,18,0,0,0,7.17-4.16,9.93,9.93,0,0,0,7.7,7,15.79,15.79,0,0,0,12.47-3.14,18.93,18.93,0,0,0,4.42-4.6,5.44,5.44,0,0,0,3.36,2.74,5,5,0,0,0,5.58-2.21,9.49,9.49,0,0,0,16-8.18,13,13,0,0,0-.22-1.37,5.09,5.09,0,0,0,6.64-1.11,3.84,3.84,0,0,0,2.39,1.77,5.56,5.56,0,0,0,2.69,0c-3.71,4.2-4.51,10.88-1.28,15.62a13.3,13.3,0,0,0,8,5.3,12.66,12.66,0,0,0,9.77-1.77A20.82,20.82,0,0,0,128,99.63a4.31,4.31,0,0,0,3.05,2.61,4.42,4.42,0,0,0,4.42-1.85,8.27,8.27,0,0,0,11.72-.54,9,9,0,0,0,1.24-1.72,3.71,3.71,0,0,0,.62.57c2.35,1.82,5.71,1.29,8.1-.17a17.94,17.94,0,0,0,3.62-3.19,5.4,5.4,0,0,0,5.89.75c-.71,3.45-.8,7.52,2.87,9.21a18.91,18.91,0,0,0,7.39,1.41,10.93,10.93,0,0,0,6.54-2.17,7.91,7.91,0,0,0,2.79-4,8.14,8.14,0,0,0,.84,1.29,7.88,7.88,0,0,0,7.34,3.05,18.86,18.86,0,0,0,5-1.42,16.47,16.47,0,0,0,4.16,7,14,14,0,0,0,8.4,4.25c3.49.31,6.72-1.46,9.64-3.19l.67-.4V7.37Z"/></g></g></g></g></g></svg>