<svg xmlns="http://www.w3.org/2000/svg" xmlns:xlink="http://www.w3.org/1999/xlink" viewBox="0 0 502.34 259.36"><defs><style>.cls-1{fill:url(#radial-gradient);}</style><radialGradient id="radial-gradient" cx="145.74" cy="155.39" fx="476.6808011663529" fy="155.3939873022673" r="334.28" gradientUnits="userSpaceOnUse"><stop offset="0.25" stop-color="#540d25"/><stop offset="0.58" stop-color="#420a1b"/><stop offset="0.77" stop-color="#3d0b1a"/><stop offset="1" stop-color="#2f0c18"/><stop offset="1" stop-color="#2f0c18"/></radialGradient></defs><g id="Layer_2" data-name="Layer 2"><g id="Layer_1-2" data-name="Layer 1"><path class="cls-1" d="M502.34,16.81c-.36-.56-.73-1.11-1.14-1.65-3.35-4.45-8.37-8-14.19-7.44-4.58.47-9.46,3.35-10.68,7.87-4.46-4.62-10.75-9.09-16.8-4.51A14.15,14.15,0,0,0,456.69,14C452.75,9,446.94,5.83,440.75,3.89,431.76,1.06,422,.3,412.65.05c-9.63-.27-20.31.47-28.4,6.27-9.21,6.6-12.18,18.15-12.13,29A57.37,57.37,0,0,0,382.66,68c-9.7.4-18.46,8.82-19.36,18.47a10.86,10.86,0,0,0-10.58-.69,48.58,48.58,0,0,0-11-30.6,47.15,47.15,0,0,0-30.49-17.36,52.14,52.14,0,0,0-34.38,7.83A49.75,49.75,0,0,0,255.66,74.5a54.79,54.79,0,0,0,2.71,36.57c.41.92.89,1.81,1.36,2.7a14.9,14.9,0,0,0-12,15.79,12.72,12.72,0,0,0-11,3c-2.42-14.29-14.73-26.37-29.56-27.14a33.93,33.93,0,0,0-22.66,7.45A30.61,30.61,0,0,0,173.4,134.1a32.41,32.41,0,0,0,7.07,23.48c-6.68-.18-13.8,1.65-18.33,6.77-4.12,4.67-5.67,11.9-2.6,17.45a14.58,14.58,0,0,0-11.78,10,13.32,13.32,0,0,0-11.07-2.35,13.64,13.64,0,0,0-6.89,3.67c0-6-2.93-11.94-6.72-16.43a28.35,28.35,0,0,0-15.89-9.56,29.49,29.49,0,0,0-32.3,16,35.77,35.77,0,0,0-3,19.59c-7.31-3.49-15.66-6.55-23.41-2.78a13.92,13.92,0,0,0-4.57,3.63,5.56,5.56,0,0,1-2.14,1.95c-1.11.39-2.25-.27-3.17-.82-1.6-.95-3-2-4.93-2.29a8.72,8.72,0,0,0-4.78.71,9.25,9.25,0,0,0-5.68,7.64c-8.82-.9-17.9,3.94-21.41,12.13a2.89,2.89,0,0,0-1.44,4.17.77.77,0,0,0,.85.35c7.87-2.26,16.8-4.72,24.59-1,3.2,1.53,6.33,3.67,9.88,4.28a8.68,8.68,0,0,0,5-.49,15.76,15.76,0,0,0,3.88-2.81c1.23-1.07,2.5-2,4.18-1.41a52.37,52.37,0,0,1,4.82,2.49,38,38,0,0,0,9.14,2.88,42,42,0,0,0,19.43-1.15,40.82,40.82,0,0,0,16.24-9.43c1.93,8.1,9.35,14.2,17.42,15.89,9.87,2.05,20.28-1.21,28.23-7.15A43.06,43.06,0,0,0,154,219.16a12.4,12.4,0,0,0,7.57,6.24c4.7,1.25,10.39-.7,12.65-5,5.87,6.1,15.56,7.59,23.37,4.47,9.25-3.69,14-13.37,12.94-23a29.67,29.67,0,0,0-.52-3.11c4.56,3.18,11.5,1.86,15-2.49a8.8,8.8,0,0,0,5.4,4,12.43,12.43,0,0,0,6.09,0c-8.36,9.5-10.19,24.57-2.86,35.27a30.09,30.09,0,0,0,18.06,12,28.62,28.62,0,0,0,22.1-4c6.79-4.44,11.75-11.11,15.53-18.22a9.73,9.73,0,0,0,6.91,5.87,9.93,9.93,0,0,0,9.95-4.22,18.79,18.79,0,0,0,29.32-5.13,12.1,12.1,0,0,0,1.38,1.29c5.34,4.13,12.88,2.93,18.27-.43a40.34,40.34,0,0,0,8.19-7.19,12.16,12.16,0,0,0,13.32,1.66c-1.64,7.79-1.8,17,6.5,20.77a35.47,35.47,0,0,0,8,2.37,39.83,39.83,0,0,0,8.71.84,24.41,24.41,0,0,0,14.78-4.94,18.85,18.85,0,0,0,6.32-9,21.94,21.94,0,0,0,1.86,2.93A17.66,17.66,0,0,0,439.45,237a45.85,45.85,0,0,0,11.25-3.17,37.6,37.6,0,0,0,9.44,15.8c5,5,11.79,9,19,9.65,7.89.73,15.25-3.27,21.79-7.19l1.45-.87Z"/></g></g></svg>