<svg xmlns="http://www.w3.org/2000/svg" xmlns:xlink="http://www.w3.org/1999/xlink" viewBox="0 0 502.34 259.36"><defs><style>.cls-1{fill:url(#radial-gradient);}</style><radialGradient id="radial-gradient" cx="-946.58" cy="155.39" fx="-615.638881742881" fy="155.39398730226821" r="334.28" gradientTransform="matrix(-1, 0, 0, 1, -589.98, 0)" gradientUnits="userSpaceOnUse"><stop offset="0.25" stop-color="#540d25"/><stop offset="0.58" stop-color="#420a1b"/><stop offset="0.77" stop-color="#3d0b1a"/><stop offset="1" stop-color="#2f0c18"/><stop offset="1" stop-color="#2f0c18"/></radialGradient></defs><g id="Layer_2" data-name="Layer 2"><g id="Layer_1-2" data-name="Layer 1"><path class="cls-1" d="M0,16.81c.37-.56.74-1.11,1.14-1.65,3.35-4.45,8.37-8,14.19-7.44,4.58.47,9.46,3.35,10.69,7.87C30.47,11,36.76,6.5,42.82,11.08A14.36,14.36,0,0,1,45.65,14C49.59,9,55.4,5.83,61.59,3.89,70.59,1.06,80.32.3,89.69.05c9.63-.27,20.31.47,28.4,6.27,9.21,6.6,12.18,18.15,12.13,29A57.37,57.37,0,0,1,119.68,68c9.7.4,18.46,8.82,19.36,18.47a10.87,10.87,0,0,1,10.59-.69,48.52,48.52,0,0,1,11-30.6,47.17,47.17,0,0,1,30.49-17.36,52.18,52.18,0,0,1,34.39,7.83A49.78,49.78,0,0,1,246.68,74.5,54.73,54.73,0,0,1,244,111.07c-.41.92-.89,1.81-1.35,2.7a14.89,14.89,0,0,1,12,15.79,12.72,12.72,0,0,1,11,3c2.42-14.29,14.73-26.37,29.56-27.14a33.91,33.91,0,0,1,22.66,7.45,30.61,30.61,0,0,1,11.17,21.19,32.32,32.32,0,0,1-7.07,23.48c6.68-.18,13.81,1.65,18.33,6.77,4.13,4.67,5.68,11.9,2.6,17.45a14.58,14.58,0,0,1,11.78,10,13.33,13.33,0,0,1,11.07-2.35,13.64,13.64,0,0,1,6.89,3.67c0-6,2.93-11.94,6.72-16.43a28.35,28.35,0,0,1,15.89-9.56,29.49,29.49,0,0,1,32.3,16,35.77,35.77,0,0,1,3,19.59c7.31-3.49,15.66-6.55,23.42-2.78a14,14,0,0,1,4.56,3.63,5.63,5.63,0,0,0,2.14,1.95c1.11.39,2.25-.27,3.18-.82,1.59-.95,3-2,4.92-2.29a8.72,8.72,0,0,1,4.78.71,9.27,9.27,0,0,1,5.69,7.64c8.81-.9,17.89,3.94,21.4,12.13a2.9,2.9,0,0,1,1.45,4.17.79.79,0,0,1-.86.35c-7.87-2.26-16.79-4.72-24.59-1-3.2,1.53-6.33,3.67-9.88,4.28a8.68,8.68,0,0,1-5-.49,15.76,15.76,0,0,1-3.88-2.81c-1.23-1.07-2.49-2-4.18-1.41a51,51,0,0,0-4.81,2.49,38.18,38.18,0,0,1-9.15,2.88,42,42,0,0,1-19.43-1.15A40.82,40.82,0,0,1,404,220.83c-1.93,8.1-9.35,14.2-17.42,15.89-9.87,2.05-20.28-1.21-28.22-7.15a43.1,43.1,0,0,1-9.94-10.41,12.37,12.37,0,0,1-7.57,6.24c-4.7,1.25-10.39-.7-12.64-5-5.88,6.1-15.57,7.59-23.38,4.47-9.24-3.69-14-13.37-12.94-23a27.29,27.29,0,0,1,.53-3.11c-4.56,3.18-11.51,1.86-15-2.49a8.8,8.8,0,0,1-5.4,4,12.39,12.39,0,0,1-6.08,0c8.35,9.5,10.18,24.57,2.85,35.27a30.07,30.07,0,0,1-18.06,12,28.62,28.62,0,0,1-22.1-4c-6.79-4.44-11.74-11.11-15.53-18.22a9.73,9.73,0,0,1-6.91,5.87A9.91,9.91,0,0,1,196.2,227a18.79,18.79,0,0,1-29.33-5.13,12.1,12.1,0,0,1-1.38,1.29c-5.34,4.13-12.88,2.93-18.27-.43a40.61,40.61,0,0,1-8.19-7.19,12.16,12.16,0,0,1-13.32,1.66c1.64,7.79,1.81,17-6.5,20.77a35.54,35.54,0,0,1-8,2.37,40,40,0,0,1-8.72.84,24.41,24.41,0,0,1-14.78-4.94,18.76,18.76,0,0,1-6.31-9,24.15,24.15,0,0,1-1.86,2.93A17.68,17.68,0,0,1,62.89,237a45.85,45.85,0,0,1-11.25-3.17,37.5,37.5,0,0,1-9.44,15.8c-5,5-11.79,9-19,9.65C15.35,260,8,256,1.45,252.08L0,251.21Z"/></g></g></svg>