<?xml version="1.0" encoding="UTF-8"?>
<svg xmlns="http://www.w3.org/2000/svg" version="1.1" xmlns:xlink="http://www.w3.org/1999/xlink" viewBox="0 0 502.3 259.4">
  <defs>
    <style>
      .cls-1 {
        fill: url(#radial-gradient);
      }
    </style>
    <radialGradient id="radial-gradient" cx="-576.2" cy="137.7" fx="-822.7" fy="137.7" r="334.3" gradientTransform="translate(-219.6 293.1) rotate(-180)" gradientUnits="userSpaceOnUse">
      <stop offset=".1" stop-color="#540d25"/>
      <stop offset=".5" stop-color="#520c23"/>
      <stop offset=".6" stop-color="#4b0b20"/>
      <stop offset=".7" stop-color="#420a1b"/>
      <stop offset=".9" stop-color="#3d0b1a"/>
      <stop offset="1" stop-color="#2f0c18"/>
      <stop offset="1" stop-color="#2f0c18"/>
    </radialGradient>
  </defs>
  <!-- Generator: Adobe Illustrator 28.7.3, SVG Export Plug-In . SVG Version: 1.2.0 Build 164)  -->
  <g>
    <g id="Layer_1">
      <g id="Layer_2">
        <g id="Layer_1-2">
          <path class="cls-1" d="M0,251.2l1.5.9c6.5,3.9,13.9,7.9,21.8,7.2,7.2-.6,14-4.6,19-9.6,4.4-4.4,7.7-9.8,9.4-15.8,3.6,1.5,7.4,2.6,11.2,3.2,6.4.9,12.7-1.7,16.6-6.9.7-.9,1.3-1.9,1.9-2.9,1.2,3.6,3.4,6.7,6.3,9,4.3,3.2,9.4,5,14.8,4.9,2.9,0,5.8-.2,8.7-.8,2.8-.5,5.4-1.3,8-2.4,8.3-3.8,8.1-13,6.5-20.8,4.4,2.2,9.6,1.5,13.3-1.7,2.4,2.8,5.1,5.2,8.2,7.2,5.4,3.4,12.9,4.6,18.3.4.5-.4,1-.8,1.4-1.3.8,1.4,1.7,2.8,2.8,3.9,7,7.7,18.9,8.2,26.5,1.2,2.2,3.2,6.1,4.9,10,4.2,3.1-.7,5.7-2.9,6.9-5.9,3.8,7.1,8.7,13.8,15.5,18.2,6.5,4.3,14.5,5.7,22.1,4,7.3-1.6,13.7-5.9,18.1-12,7.3-10.7,5.5-25.8-2.9-35.3,2,.5,4.1.5,6.1,0,2.3-.6,4.2-2,5.4-4,3.5,4.4,10.4,5.7,15,2.5-.2,1-.4,2.1-.5,3.1-1.1,9.6,3.7,19.3,12.9,23,7.8,3.1,17.5,1.6,23.4-4.5,2.3,4.3,7.9,6.2,12.6,5,3.3-1,6-3.2,7.6-6.2,2.7,4,6.1,7.5,10,10.4,7.9,5.9,18.4,9.2,28.2,7.1,8.1-1.7,15.5-7.8,17.4-15.9,4.6,4.4,10.2,7.6,16.2,9.4,6.3,1.9,13,2.3,19.4,1.1,3.2-.6,6.2-1.5,9.1-2.9,1.6-.9,3.2-1.7,4.8-2.5,1.7-.6,3,.3,4.2,1.4,1.1,1.1,2.5,2.1,3.9,2.8,1.6.7,3.3.8,5,.5,3.5-.6,6.7-2.8,9.9-4.3,7.8-3.7,16.7-1.3,24.6,1,.3,0,.7,0,.9-.4,0-.1.2-.3.2-.4.6-1.5-.2-3.2-1.6-3.7-3.5-8.2-12.6-13-21.4-12.1-.3-3.4-2.5-6.3-5.7-7.6-1.5-.7-3.2-.9-4.8-.7-1.9.3-3.3,1.3-4.9,2.3-.9.6-2.1,1.2-3.2.8-.9-.4-1.6-1.1-2.1-1.9-1.2-1.5-2.8-2.8-4.6-3.6-7.8-3.8-16.1-.7-23.4,2.8.9-6.7-.2-13.5-3-19.6-5.9-12.1-19.1-18.6-32.3-16-6.2,1.3-11.8,4.7-15.9,9.6-3.8,4.5-6.7,10.4-6.7,16.4-1.9-1.9-4.3-3.1-6.9-3.7-3.9-.9-7.9,0-11.1,2.4-1.7-5.3-6.3-9.2-11.8-10,3.1-5.6,1.5-12.8-2.6-17.4-4.5-5.1-11.7-6.9-18.3-6.8,5.3-6.6,7.9-15,7.1-23.5-.7-8.3-4.7-16-11.1-21.2-6.4-5.1-14.5-7.8-22.7-7.4-14.8.8-27.1,12.8-29.6,27.1-3-2.7-7.1-3.8-11-3,.6-7.5-4.6-14.3-12-15.8.5-.9.9-1.8,1.4-2.7,5.1-11.5,6-24.4,2.7-36.6-3.2-11.9-10.8-22.2-21.2-28.8-10.2-6.5-22.4-9.3-34.4-7.8-12,1.6-22.9,7.9-30.5,17.4-7.1,8.6-11,19.4-11,30.6-3.4-1.6-7.4-1.4-10.6.7-.9-9.7-9.7-18.1-19.4-18.5,6.8-9.6,10.4-21,10.5-32.7,0-10.9-2.9-22.4-12.1-29C110,.5,99.3-.2,89.7,0c-9.4.3-19.1,1-28.1,3.8-6.2,1.9-12,5.1-15.9,10.1-.8-1.1-1.8-2.1-2.8-2.9-6-4.6-12.3-.1-16.8,4.5-1.2-4.5-6.1-7.4-10.7-7.9-5.8-.6-10.8,3-14.2,7.4-.4.5-.8,1.1-1.1,1.6v234.4Z"/>
        </g>
      </g>
    </g>
  </g>
</svg>