<svg xmlns="http://www.w3.org/2000/svg" viewBox="0 0 152.45 134.45"><defs><style>.cls-1{fill:none;stroke:#c91b41;stroke-miterlimit:10;stroke-width:0.35px;}</style></defs><g id="Layer_2" data-name="Layer 2"><g id="Layer_1-2" data-name="Layer 1"><g id="Layer_2-2" data-name="Layer 2"><g id="Layer_1-2-2" data-name="Layer 1-2"><path class="cls-1" d="M145.32,134.28H108.67a.48.48,0,0,1,0-.95h36.17V126a.47.47,0,0,1,.47-.47.48.48,0,0,1,.48.47v7.77a.47.47,0,0,1-.47.46Zm-39.82,0a.46.46,0,1,1,0-.92.46.46,0,1,1,0,.92Zm-3.17,0H57.92a.48.48,0,0,1,0-.95h44.41a.48.48,0,0,1,0,.95Zm-47.58,0a.46.46,0,0,1,0-.92.46.46,0,0,1,0,.92Zm-3.17,0H7.18a.48.48,0,0,1-.34-.14.47.47,0,0,1-.14-.33V93.21a.48.48,0,0,1,1,0v40.12H51.58a.48.48,0,1,1,0,.95Zm93.74-10.94a.46.46,0,1,1,0-.92.46.46,0,0,1,0,.92Zm0-3.17a.46.46,0,0,1-.46-.46V75.29a.47.47,0,0,1,.47-.47.48.48,0,0,1,.48.47V119.7a.46.46,0,0,1-.44.47s0,0-.05,0ZM7.18,90.52A.48.48,0,1,1,7.66,90,.49.49,0,0,1,7.18,90.52Zm0-3.17a.47.47,0,0,1-.46-.46V74.05a.48.48,0,0,1,.48-.48H38.74a.48.48,0,1,1,0,1H7.65V86.89a.46.46,0,0,1-.46.46ZM143.41,74.5A.45.45,0,0,1,143,74a.46.46,0,0,1,.46-.46.46.46,0,1,1,0,.92Zm-3.18,0H95.83a.47.47,0,0,1-.47-.47.48.48,0,0,1,.47-.48h44.41a.48.48,0,0,1,.47.48.47.47,0,0,1-.47.47Zm-47.57,0A.45.45,0,0,1,92.2,74a.46.46,0,0,1,.46-.46.46.46,0,0,1,0,.92Zm-3.17,0H45.11a.47.47,0,0,1-.48-.47.48.48,0,0,1,.48-.48h44.4A.48.48,0,0,1,90,74a.47.47,0,0,1-.47.47Zm-47.58,0a.45.45,0,0,1-.46-.46.46.46,0,0,1,.46-.46.46.46,0,0,1,0,.92Z"/><path class="cls-1" d="M105.4,74.5a.47.47,0,0,1-.48-.47.48.48,0,0,1,.48-.48h42.89l.25-.77a.48.48,0,0,1,.92.28h0l-.35,1.11a.45.45,0,0,1-.46.33Zm-3.18,0a.46.46,0,0,1-.46-.46.47.47,0,0,1,.93,0,.46.46,0,0,1-.46.46h0Zm-3.17,0H54.63a.48.48,0,0,1-.48-.47.49.49,0,0,1,.48-.48H99a.49.49,0,0,1,.48.48.48.48,0,0,1-.48.47Zm-47.57,0A.45.45,0,0,1,51,74a.46.46,0,0,1,.46-.46.47.47,0,0,1,.46.46.46.46,0,0,1-.46.46h0Zm-3.17,0H3.88a.45.45,0,0,1-.46-.33L.2,64.21a.45.45,0,0,1,.06-.42.47.47,0,0,1,.39-.2H29a.48.48,0,0,1,0,1H1.31l2.91,9H48.28a.49.49,0,0,1,.48.48.48.48,0,0,1-.48.47Zm62.35-3.33h-9.2a.48.48,0,0,1-.34-.14.47.47,0,0,1-.14-.33V64.54H72.86a.48.48,0,0,1,0-1h28.6a.47.47,0,0,1,.46.46V70.2h8.7a.48.48,0,0,1,0,1Zm-59.6,0H41.85a.48.48,0,0,1-.47-.47V64.54h-6a.48.48,0,0,1,0-1h6.48a.48.48,0,0,1,.34.14.47.47,0,0,1,.14.33v6.16h8.23V64.06a.48.48,0,0,1,.47-.47H66.52a.48.48,0,0,1,0,1h-15V70.7a.47.47,0,0,1-.14.33.46.46,0,0,1-.34.14Zm98.9-.8h-.15a.47.47,0,0,1-.32-.56v0a.49.49,0,0,1,.6-.3.46.46,0,0,1,.39.53.47.47,0,0,1-.53.39ZM110.66,68a.48.48,0,1,1,.48-.47A.48.48,0,0,1,110.66,68Zm40.27-.65a.24.24,0,0,1-.12,0h0a.46.46,0,0,1-.33-.46v-.14l.71-2.19H111.08a.48.48,0,0,1-.47.29.47.47,0,0,1-.46-.46V64.1a.49.49,0,0,1,.15-.34.47.47,0,0,1,.33-.14H151.8a.44.44,0,0,1,.38.2.45.45,0,0,1,.07.42l-.92,2.81a.46.46,0,0,1-.43.3ZM69.71,64.54a.48.48,0,1,1,.48-.47A.47.47,0,0,1,69.71,64.54Zm-37.49,0a.46.46,0,0,1-.46-.46.46.46,0,0,1,.92,0,.46.46,0,0,1-.46.46Z"/><path class="cls-1" d="M120,61.21a.48.48,0,0,1,0-1h24.82V47.91H139.5a.48.48,0,1,1,0-.95h5.82a.47.47,0,0,1,.33.14.48.48,0,0,1,.14.34V60.75a.48.48,0,0,1-.14.34.51.51,0,0,1-.33.13Zm-44.08,0a.48.48,0,0,1,0-1h25V57.4a.47.47,0,0,1,.46-.46h9.18a.45.45,0,0,1,.34.15.45.45,0,0,1,.14.33v2.86h2.58a.48.48,0,0,1,0,.95h-3a.48.48,0,0,1-.48-.48V57.9h-8.22v2.85a.49.49,0,0,1-.15.34.42.42,0,0,1-.33.13Zm-44.08,0a.48.48,0,0,1,0-1h9.52V57.4a.47.47,0,0,1,.14-.33.42.42,0,0,1,.33-.14H51a.48.48,0,0,1,.34.14.47.47,0,0,1,.14.33v2.86H69.6a.48.48,0,0,1,0,1H51a.48.48,0,0,1-.47-.47V57.88H42.35v2.87a.48.48,0,0,1-.14.34.53.53,0,0,1-.34.13Zm85,0a.46.46,0,0,1,0-.92.46.46,0,0,1,0,.92Zm-44.08,0a.46.46,0,1,1,.46-.46A.47.47,0,0,1,72.77,61.21Zm-44.08,0a.46.46,0,1,1,.46-.46A.47.47,0,0,1,28.69,61.21Zm-3.18,0H7.18a.48.48,0,0,1-.34-.14.47.47,0,0,1-.14-.33V47.44A.48.48,0,0,1,7.18,47H41.85a.48.48,0,0,1,.48.48v4.5H46.6a.48.48,0,1,1,0,1H41.85a.47.47,0,0,1-.33-.14.48.48,0,0,1-.14-.34v-4.5H7.65V60.26H25.51a.47.47,0,0,1,.48.47.48.48,0,0,1-.48.48Zm85.15-8.32h-9.2a.51.51,0,0,1-.34-.13.48.48,0,0,1-.14-.34V47.91H98.71a.48.48,0,0,1,0-.95h2.76a.48.48,0,0,1,.48.48v4.5h8.23v-4.5a.48.48,0,0,1,.48-.48h22.52a.48.48,0,0,1,0,.95H111.13v4.5a.47.47,0,0,1-.46.47Zm-60.87,0a.46.46,0,0,1-.46-.46.47.47,0,0,1,.46-.46.46.46,0,0,1,0,.92h0ZM51.05,51a.46.46,0,0,1-.46-.46V47.45a.47.47,0,0,1,.14-.33.48.48,0,0,1,.34-.14h41.3a.48.48,0,1,1,0,1H51.51v2.59h0a.46.46,0,0,1-.46.46h0Zm85.3-3.07a.45.45,0,0,1-.46-.46.46.46,0,0,1,.46-.46.46.46,0,1,1,0,.92h0Zm-40.79,0a.46.46,0,0,1-.46-.46.47.47,0,0,1,.46-.46.46.46,0,1,1,0,.92h0Z"/><path class="cls-1" d="M41.85,47.91H7.25a.47.47,0,0,1-.35-.15L3.83,44.43a.49.49,0,0,1,.35-.81H29a.47.47,0,0,1,.46.46h0a.47.47,0,0,1-.46.47H5.27l2.19,2.39H41.38V44.58h-6a.48.48,0,1,1,0-1h6.45a.46.46,0,0,1,.46.46v3.34a.43.43,0,0,1-.14.33A.47.47,0,0,1,41.85,47.91Zm-9.63-3.33a.47.47,0,0,1-.46-.46.46.46,0,0,1,.92,0A.47.47,0,0,1,32.22,44.58Z"/><path class="cls-1" d="M98.61,47.91a.47.47,0,0,1-.46-.46.46.46,0,0,1,.46-.46.45.45,0,0,1,.46.46A.46.46,0,0,1,98.61,47.91Zm-3.17,0H51a.48.48,0,0,1-.47-.47V44.1a.47.47,0,0,1,.46-.46H53.7a.48.48,0,0,1,0,1H51.5v2.34H95.43a.48.48,0,0,1,.47.48.47.47,0,0,1-.47.47Zm6-.33a.45.45,0,0,1-.46-.46V44.59H60.06a.48.48,0,1,1,0-1h41.4a.49.49,0,0,1,.46.46v3h0a.47.47,0,0,1-.44.48Zm-44.57-3a.46.46,0,0,1-.46-.46.45.45,0,0,1,.46-.46.46.46,0,0,1,.46.46A.47.47,0,0,1,56.89,44.58Z"/><path class="cls-1" d="M145.24,47.91h-34.6a.48.48,0,0,1-.34-.14.47.47,0,0,1-.14-.33V44.1a.45.45,0,0,1,.14-.33.49.49,0,0,1,.34-.15h26.05a.48.48,0,0,1,0,1H111.1v2.36H145l2.2-2.38H143a.48.48,0,0,1,0-1h5.27a.45.45,0,0,1,.5.42.46.46,0,0,1-.15.37l-3.07,3.34A.51.51,0,0,1,145.24,47.91Zm-5.37-3.33a.47.47,0,0,1-.46-.46.46.46,0,0,1,.46-.46.45.45,0,0,1,.46.46.46.46,0,0,1-.46.46Z"/><path class="cls-1" d="M106.81,41.28a.48.48,0,1,1,0-1h38V34.91a.48.48,0,1,1,.95,0v5.9a.45.45,0,0,1-.14.33.47.47,0,0,1-.33.14Zm-3.17,0a.45.45,0,0,1-.46-.46.46.46,0,0,1,.46-.46.47.47,0,0,1,.46.46.46.46,0,0,1-.46.46Zm-3.17,0H56.06a.48.48,0,1,1,0-1h44.41a.48.48,0,0,1,0,1Zm-47.58,0a.45.45,0,0,1-.46-.46.46.46,0,0,1,.46-.46.47.47,0,0,1,.46.46.46.46,0,0,1-.46.46Zm-3.17,0H7.18a.46.46,0,0,1-.46-.46V38.94a.48.48,0,1,1,1,0v1.38h42a.48.48,0,1,1,0,1ZM109.42,38h-6.75a.44.44,0,0,1-.33-.14.48.48,0,0,1-.14-.34V34.61H102a.47.47,0,1,1,0-.94h.66a.43.43,0,0,1,.34.13.48.48,0,0,1,.14.34V37H109V34.14a.48.48,0,0,1,.14-.34.42.42,0,0,1,.33-.13h30.32a.47.47,0,1,1,0,.94H109.9v2.86a.46.46,0,0,1-.46.46ZM7.18,34.61a.47.47,0,0,1,0-.94h35.9a.42.42,0,0,1,.33.13.45.45,0,0,1,.15.34V37h4.7a.48.48,0,1,1,0,1H43.07a.48.48,0,0,1-.48-.48V34.61m7.23,1.75a.47.47,0,0,1-.46-.46.46.46,0,0,1,.92,0A.47.47,0,0,1,49.82,36.36ZM7.18,36.25a.46.46,0,0,1-.46-.46.46.46,0,1,1,.46.45Zm135.73-1.63a.47.47,0,0,1-.47-.47.48.48,0,1,1,.95,0A.47.47,0,0,1,142.91,34.62Zm-44.08,0a.46.46,0,0,1-.46-.46.47.47,0,0,1,.46-.46.46.46,0,1,1,0,.91Zm-3.17,0H51.26a.47.47,0,0,1-.47-.47.48.48,0,0,1,.47-.48h44.4a.49.49,0,0,1,.48.48.48.48,0,0,1-.48.47Z"/><path class="cls-1" d="M92.62,134.28H60a.48.48,0,0,1-.34-.14.42.42,0,0,1-.13-.33V133a.42.42,0,0,1,.13-.33.53.53,0,0,1,.34-.15.47.47,0,0,1,.46.46v.37H92.14c0-2.23,0-4.38,0-6.44,0-1.38,0-2.7,0-4a.48.48,0,1,1,1,0c0,1.28,0,2.57,0,3.94,0,2.25,0,4.57,0,7a.42.42,0,0,1-.13.33A.48.48,0,0,1,92.62,134.28Zm-32.65-4h0a.47.47,0,0,1-.46-.46.46.46,0,0,1,.46-.46h0a.45.45,0,0,1,.46.46.47.47,0,0,1-.14.33A.46.46,0,0,1,60,130.27Zm0-3.17h0a.46.46,0,0,1-.46-.46h0c0-.54,0-1.08,0-1.61,0-2.6-.09-5.06-.09-7.43,0-2.79.06-5,.19-7.08a.47.47,0,0,1,.46-.46h2.64v-2.34H60.27a.48.48,0,0,1-.36-.16.46.46,0,0,1-.12-.37A36.49,36.49,0,0,1,62,97.64a23.56,23.56,0,0,1,5.17-7.92.48.48,0,0,1,.67,0,.47.47,0,0,1,0,.65l0,0c-4,4.08-6.21,9.14-7.1,16.4h2.3a.45.45,0,0,1,.46.46v3.29a.43.43,0,0,1-.13.34.48.48,0,0,1-.34.14H60.4c-.11,1.91-.16,4-.16,6.56,0,2.36,0,4.81.09,7.4,0,.54,0,1.08,0,1.63h0a.46.46,0,0,1-.42.49Zm32.76-6.91h0a.45.45,0,0,1-.46-.46.46.46,0,0,1,.46-.46.47.47,0,0,1,.46.46.45.45,0,0,1-.46.44Zm0-3.16h0a.47.47,0,0,1-.46-.46c0-2.06-.11-3.87-.23-5.53H89.42a.49.49,0,0,1-.46-.46v-3.35a.45.45,0,0,1,.14-.33.48.48,0,0,1,.34-.14h2.1C90,96,85.59,89.53,76.27,84.51a35,35,0,0,0-3.48,2,.49.49,0,0,1-.66-.15.45.45,0,0,1-.07-.25.43.43,0,0,1,.22-.4,41.26,41.26,0,0,1,3.78-2.14.53.53,0,0,1,.46,0A29.55,29.55,0,0,1,88.06,93.6a31.25,31.25,0,0,1,4.49,13.34l0,.18a.43.43,0,0,1-.1.39.44.44,0,0,1-.37.17H89.94V110h2.52a.47.47,0,0,1,.46.46c.13,1.79.22,3.76.26,6a.45.45,0,0,1-.44.48h0ZM69.9,88.41a.44.44,0,0,1-.36-.19.47.47,0,0,1-.11-.34.49.49,0,0,1,.18-.32.46.46,0,0,1,.63.15.45.45,0,0,1-.14.63A.48.48,0,0,1,69.9,88.41Z"/><path class="cls-1" d="M63.1,111H53.24a.48.48,0,0,1-.46-.46v-3.33a.45.45,0,0,1,.14-.33.48.48,0,0,1,.34-.14H63.1a.48.48,0,0,1,.34.14.45.45,0,0,1,.14.33v3.3a.51.51,0,0,1-.48.49Zm-9.39-1h8.92v-2.35H53.71Z"/><path class="cls-1" d="M99.26,111H89.39a.49.49,0,0,1-.46-.46v-3.33a.47.47,0,0,1,.46-.46h9.87a.47.47,0,0,1,.33.14.48.48,0,0,1,.14.34v3.29a.48.48,0,0,1-.14.34A.45.45,0,0,1,99.26,111Zm-9.39-1h8.91v-2.35H89.87Z"/><path class="cls-1" d="M53.24,124.32H39.65a.47.47,0,0,1-.46-.46V98.55a.48.48,0,1,1,1,0v24.82H52.77V93a.48.48,0,1,1,1,0v30.84a.47.47,0,0,1-.14.33A.45.45,0,0,1,53.24,124.32ZM39.65,95.85a.47.47,0,0,1-.46-.46.46.46,0,0,1,.46-.46.45.45,0,0,1,.46.46A.46.46,0,0,1,39.65,95.85Zm0-3.17a.47.47,0,0,1-.46-.46V74a.46.46,0,0,1,.46-.46H53.24a.46.46,0,0,1,.46.46V86.68a.48.48,0,0,1-1,0V74.5H40.13V92.2a.47.47,0,0,1-.44.48Zm13.59-2.36a.45.45,0,0,1-.46-.46.46.46,0,0,1,.46-.46.47.47,0,0,1,.46.46A.46.46,0,0,1,53.24,90.32Z"/><path class="cls-1" d="M36.77,131a.46.46,0,0,1-.46-.46v-3.33a.47.47,0,0,1,.46-.46H55.66a.48.48,0,0,1,.48.48v3.33a.48.48,0,0,1-.48.48H36.79Zm.46-.95h18v-2.38h-18Z"/><path class="cls-1" d="M54.61,74.5H38.29a.48.48,0,0,1-.34-.14.45.45,0,0,1-.14-.33V70.7a.48.48,0,0,1,.48-.48H54.61a.47.47,0,0,1,.33.14.43.43,0,0,1,.13.34V74a.42.42,0,0,1-.13.33A.47.47,0,0,1,54.61,74.5Zm-15.85-1H54.13V71.17H38.76Z"/><path class="cls-1" d="M41.86,71.17a.46.46,0,0,1-.46-.46.47.47,0,0,0,0-.55V57.4a.45.45,0,0,1,.46-.46H51a.45.45,0,0,1,.46.46V70.7a.46.46,0,0,1-.46.46H41.86Zm.46-13.3V70.22h8.23V57.87Z"/><path class="cls-1" d="M53.24,41.28H40.07a.45.45,0,0,1-.33-.14.47.47,0,0,1-.14-.33V37.47a.46.46,0,0,1,.46-.46H53.22a.47.47,0,0,1,.47.46v3.34a.58.58,0,0,1-.14.33A.41.41,0,0,1,53.24,41.28Zm-12.69-1H52.76V38H40.55Z"/><path class="cls-1" d="M41.38,40.81a.45.45,0,0,1,.46-.46H51a.46.46,0,0,1,.47.48v11.6a.43.43,0,0,1-.13.34.49.49,0,0,1-.34.14H41.86a.48.48,0,0,1-.48-.48m.95-.46h8.23V41.28H42.35Z"/><path class="cls-1" d="M49.82,38H43.07a.48.48,0,1,1,0-1h6.28V21.35h-5.8V35.16a.48.48,0,0,1-1,0V20.88a.47.47,0,0,1,.46-.46h6.76a.45.45,0,0,1,.47.47V37.47a.45.45,0,0,1-.46.46Z"/><path class="cls-1" d="M49.71,19.67H43.18a.48.48,0,0,1-.47-.47V10.91a.46.46,0,0,1,.46-.46h6.54a.47.47,0,0,1,.33.14.48.48,0,0,1,.14.34v8.28a.48.48,0,0,1-.14.34A.5.5,0,0,1,49.71,19.67Zm-6.05-1h5.59V11.39H43.66Z"/><path class="cls-1" d="M53.24,57.87H39.65a.42.42,0,0,1-.33-.13.49.49,0,0,1-.14-.34V54.1a.48.48,0,0,1,.47-.47H53.24a.4.4,0,0,1,.33.14.47.47,0,0,1,.14.33v3.3a.49.49,0,0,1-.14.34A.41.41,0,0,1,53.24,57.87Zm-13.11-.95H52.76V54.58H40.13Z"/><path class="cls-1" d="M52.33,21.35H41a.55.55,0,0,1-.34-.13.43.43,0,0,1-.13-.34V19.2a.46.46,0,0,1,.47-.48H52.35a.47.47,0,0,1,.33.14.48.48,0,0,1,.14.34v1.68a.48.48,0,0,1-.14.34A.45.45,0,0,1,52.33,21.35Zm-10.91-.94H51.86v-.74H41.42Z"/><path class="cls-1" d="M53.24,54.58H39.66a.48.48,0,0,1-.48-.48V52.41a.46.46,0,0,1,.46-.46H53.22a.47.47,0,0,1,.46.46V54.1a.48.48,0,0,1-.14.34A.49.49,0,0,1,53.24,54.58Zm-13.11-.95H52.76v-.74H40.13Z"/><path class="cls-1" d="M51.38,11.39h-9.5a.51.51,0,0,1-.34-.14.42.42,0,0,1-.13-.33V9.23a.41.41,0,0,1,.13-.33.52.52,0,0,1,.34-.16h9.49a.47.47,0,0,1,.46.46v1.69a.47.47,0,0,1-.14.33A.44.44,0,0,1,51.38,11.39Zm-9-1H50.9V9.71H42.37Z"/><path class="cls-1" d="M54.61,72.82H38.29a.48.48,0,0,1-.48-.48V70.7a.48.48,0,0,1,.48-.48H54.61a.47.47,0,0,1,.33.14.43.43,0,0,1,.13.34v1.64a.43.43,0,0,1-.13.34A.47.47,0,0,1,54.61,72.82Zm-15.85-.95H54.13v-.7H38.76Z"/><path class="cls-1" d="M43.07,124.32H39.65a.47.47,0,0,1-.46-.46v-5a.48.48,0,0,1,1,0v4.49h2.47V82.84a.48.48,0,1,1,1,0v41a.48.48,0,0,1-.14.34A.47.47,0,0,1,43.07,124.32Zm-3.42-8.14a.46.46,0,0,1-.46-.46.47.47,0,0,1,.46-.46.46.46,0,0,1,.46.46.45.45,0,0,1-.46.46Zm0-3.17a.46.46,0,0,1-.46-.46V74a.46.46,0,0,1,.46-.46h3.42a.41.41,0,0,1,.33.13.45.45,0,0,1,.15.34v2.48a.48.48,0,0,1-1,0v-2H40.13v38a.46.46,0,0,1-.46.46Zm3.42-32.86a.48.48,0,0,1-.48-.47.49.49,0,0,1,.48-.48.48.48,0,0,1,.47.48A.47.47,0,0,1,43.07,80.15Z"/><path class="cls-1" d="M46.63,124.32h-7a.47.47,0,0,1-.46-.46V111.75a.48.48,0,1,1,1,0v11.62h6V86.42a.48.48,0,0,1,.48-.47.47.47,0,0,1,.47.47v37.42a.43.43,0,0,1-.13.34A.47.47,0,0,1,46.63,124.32Zm-7-15.25a.46.46,0,0,1-.46-.46.47.47,0,0,1,.46-.46.46.46,0,0,1,.46.46A.45.45,0,0,1,39.65,109.07Zm0-3.17a.46.46,0,0,1-.46-.46V74a.46.46,0,0,1,.46-.46h7a.45.45,0,0,1,.48.47v6a.48.48,0,0,1-1,0V74.5h-6v30.89a.47.47,0,0,1-.43.49h-.05Zm7-22.15a.47.47,0,0,1-.46-.46.46.46,0,0,1,.46-.46.45.45,0,1,1,0,.89Z"/><path class="cls-1" d="M49.93,124.32H39.65a.47.47,0,0,1-.46-.46V105.14a.48.48,0,0,1,1,0v18.23h9.33V89.74a.48.48,0,0,1,1,0v34.12a.49.49,0,0,1-.46.46ZM39.65,102.45a.46.46,0,0,1,0-.92.46.46,0,0,1,0,.92Zm0-3.17a.47.47,0,0,1-.46-.46V74a.46.46,0,0,1,.46-.46H49.93a.43.43,0,0,1,.34.13.48.48,0,0,1,.14.34v9.35a.48.48,0,1,1-.95,0V74.5H40.13V98.8a.47.47,0,0,1-.44.48ZM49.93,87a.46.46,0,0,1-.46-.46.47.47,0,0,1,.46-.46.46.46,0,0,1,.46.46.45.45,0,0,1-.46.46Z"/><path class="cls-1" d="M46.63,71.17H41.85a.48.48,0,0,1-.47-.47V57.4a.45.45,0,0,1,.46-.46h4.78a.48.48,0,0,1,.34.14.43.43,0,0,1,.13.34V70.71a.43.43,0,0,1-.13.34A.5.5,0,0,1,46.63,71.17Zm-4.28-1h3.82V57.87H42.35Z"/><path class="cls-1" d="M51,52.89h-4.4a.47.47,0,0,1-.46-.46V40.81a.48.48,0,0,1,.48-.48h4.4a.49.49,0,0,1,.34.14.48.48,0,0,1,.14.34v11.6a.48.48,0,0,1-.14.34A.43.43,0,0,1,51,52.89Zm-3.92-1h3.45V41.28H47.11Z"/><path class="cls-1" d="M51,52.89H41.86a.48.48,0,0,1-.48-.48V49.85a.48.48,0,0,1,.48-.48H51a.46.46,0,0,1,.46.46V52.4a.43.43,0,0,1-.13.34A.51.51,0,0,1,51,52.89Zm-8.68-1h8.22V50.33H42.35Z"/><path class="cls-1" d="M51,71.17H41.85a.48.48,0,0,1-.47-.47V67.36a.45.45,0,0,1,.46-.46H51a.46.46,0,0,1,.46.46V70.7a.47.47,0,0,1-.14.33A.5.5,0,0,1,51,71.17Zm-8.68-1h8.22V67.84H42.35Z"/><path class="cls-1" d="M46.45,38H43.07a.48.48,0,0,1-.48-.48V20.88a.52.52,0,0,1,.14-.34.48.48,0,0,1,.34-.14h3.38a.47.47,0,0,1,.46.46V37.47a.5.5,0,0,1-.46.48Zm-2.9-1H46V21.35H43.55Z"/><path class="cls-1" d="M49.82,38H43.07a.48.48,0,0,1-.48-.48v-10a.48.48,0,0,1,.48-.48h6.75a.47.47,0,0,1,.46.46v10a.46.46,0,0,1-.46.46Zm-6.27-1h5.8V28h-5.8Z"/><path class="cls-1" d="M46.63,19.67H43.18a.48.48,0,0,1-.47-.47V10.91a.47.47,0,0,1,.14-.33.43.43,0,0,1,.33-.15h3.45a.53.53,0,0,1,.35.15.51.51,0,0,1,.13.33V19.2a.47.47,0,0,1-.46.46Zm-3-1h2.5V11.39h-2.5Z"/><path class="cls-1" d="M49.71,19.67H43.18a.48.48,0,0,1-.47-.47V16.4a.48.48,0,0,1,.14-.34.45.45,0,0,1,.33-.14h6.53a.47.47,0,0,1,.46.46v2.8a.45.45,0,0,1-.14.33A.49.49,0,0,1,49.71,19.67Zm-6.05-1h5.59V16.88H43.66Z"/><path class="cls-1" d="M49.71,19.67H43.18a.48.48,0,0,1-.47-.47v-5a.45.45,0,0,1,.14-.33.43.43,0,0,1,.33-.15h6.53a.41.41,0,0,1,.33.15.45.45,0,0,1,.14.33v5a.48.48,0,0,1-.47.47Zm-6.05-1h5.59v-4H43.66Z"/><path class="cls-1" d="M112.84,124.32H99.26a.46.46,0,0,1-.46-.46V98.55a.47.47,0,1,1,.94,0v24.82h12.64V93a.47.47,0,0,1,.47-.47.48.48,0,0,1,.48.47v30.84a.47.47,0,0,1-.46.46ZM99.26,95.85a.46.46,0,0,1-.46-.46.45.45,0,0,1,.46-.46.46.46,0,0,1,.46.46.47.47,0,0,1-.46.46Zm0-3.17a.46.46,0,0,1-.46-.46V74a.43.43,0,0,1,.13-.34.48.48,0,0,1,.34-.14h13.58a.48.48,0,0,1,.48.48V86.67h0a.48.48,0,0,1-.48.48.47.47,0,0,1-.47-.48h0V74.5H99.73V92.2a.47.47,0,0,1-.44.48Zm13.58-2.36a.45.45,0,0,1-.46-.46.46.46,0,0,1,.46-.46.47.47,0,0,1,.46.46.46.46,0,0,1-.46.46Z"/><path class="cls-1" d="M96.38,131a.45.45,0,0,1-.46-.46v-3.33a.53.53,0,0,1,.13-.34.49.49,0,0,1,.34-.14h18.87a.48.48,0,0,1,.34.14.49.49,0,0,1,.14.34v3.33a.46.46,0,0,1-.46.46Zm.46-.95h17.94v-2.38H96.84Z"/><path class="cls-1" d="M114.2,74.5H97.89a.48.48,0,0,1-.34-.14.42.42,0,0,1-.13-.33V70.7a.43.43,0,0,1,.13-.34.48.48,0,0,1,.34-.14H114.2a.48.48,0,0,1,.48.48V74a.47.47,0,0,1-.46.46ZM98.36,71.17v2.38h15.37V71.17Z"/><path class="cls-1" d="M110.64,71.17h-9.18a.46.46,0,0,1-.46-.46.47.47,0,0,0,0-.55V57.4a.45.45,0,0,1,.46-.46h9.18a.46.46,0,0,1,.46.46V70.7a.47.47,0,0,1-.46.46Zm-8.71-1h8.23V57.87h-8.22V70.14a.22.22,0,0,0,0,.08Z"/><path class="cls-1" d="M112.84,41.28H99.67a.46.46,0,0,1-.46-.46V37.47a.45.45,0,0,1,.14-.33.47.47,0,0,1,.33-.14h13.17a.48.48,0,0,1,.34.14.45.45,0,0,1,.14.33v3.34a.47.47,0,0,1-.46.46Zm-12.69-1h12.21V38H100.15Z"/><path class="cls-1" d="M110.64,52.89h-9.18a.48.48,0,0,1-.48-.48V40.81a.46.46,0,0,1,.46-.46h9.18a.48.48,0,0,1,.48.48v11.6a.46.46,0,0,1-.46.46Zm-8.7-1h8.22V41.28h-8.22Z"/><path class="cls-1" d="M109.42,38h-6.75a.48.48,0,0,1,0-1H109V21.35h-5.8V35.19a.48.48,0,1,1-1,0V20.88a.46.46,0,0,1,.46-.46h6.75a.47.47,0,0,1,.46.46V37.47a.46.46,0,0,1-.46.46Z"/><path class="cls-1" d="M109.31,19.67h-6.52a.48.48,0,0,1-.34-.14.47.47,0,0,1-.14-.33V10.91a.45.45,0,0,1,.14-.33.48.48,0,0,1,.34-.14h6.52a.48.48,0,0,1,.34.14.47.47,0,0,1,.14.33V19.2a.47.47,0,0,1-.46.46Zm-6-1h5.57V11.39h-5.57Z"/><path class="cls-1" d="M112.84,57.87H99.26a.43.43,0,0,1-.34-.13.49.49,0,0,1-.14-.34V54.1a.47.47,0,0,1,.14-.33.44.44,0,0,1,.34-.14h13.58a.46.46,0,0,1,.46.46v3.29a.47.47,0,0,1-.46.46Zm-13.11-.95h12.63V54.58H99.73Z"/><path class="cls-1" d="M111.93,21.35H100.55a.46.46,0,0,1-.47-.46V19.2a.58.58,0,0,1,.14-.34.48.48,0,0,1,.34-.14h11.38a.46.46,0,0,1,.46.46v1.68a.46.46,0,0,1-.46.46ZM101,20.4h10.43v-.73H101Z"/><path class="cls-1" d="M112.84,54.58H99.26a.48.48,0,0,1-.48-.48V52.41a.47.47,0,0,1,.46-.46h13.58a.48.48,0,0,1,.48.48v1.69A.47.47,0,0,1,112.84,54.58ZM99.73,52.89v.74h12.63v-.74Z"/><path class="cls-1" d="M111,11.39H101.5a.48.48,0,0,1-.34-.14.47.47,0,0,1-.14-.33V9.23a.49.49,0,0,1,.46-.46H111a.49.49,0,0,1,.46.46v1.69a.47.47,0,0,1-.14.33A.49.49,0,0,1,111,11.39Zm-9-1h8.53V9.71H102Z"/><path class="cls-1" d="M114.2,72.82H97.89a.48.48,0,0,1-.34-.14.43.43,0,0,1-.13-.34V70.7a.43.43,0,0,1,.13-.34.48.48,0,0,1,.34-.14H114.2a.48.48,0,0,1,.48.48v1.64a.48.48,0,0,1-.48.48Zm-15.84-.95h15.37v-.7H98.36Z"/><path class="cls-1" d="M102.67,124.32H99.26a.46.46,0,0,1-.46-.46v-5a.47.47,0,1,1,.94,0v4.49h2.47V82.84a.48.48,0,1,1,1,0v41a.45.45,0,0,1-.14.33A.46.46,0,0,1,102.67,124.32Zm-3.41-8.14a.46.46,0,0,1-.46-.46.45.45,0,0,1,.46-.46.46.46,0,0,1,.46.46A.47.47,0,0,1,99.26,116.18Zm0-3.17a.45.45,0,0,1-.46-.46V74a.43.43,0,0,1,.13-.34.48.48,0,0,1,.34-.14h3.42a.47.47,0,0,1,.33.14.48.48,0,0,1,.14.34v2.48a.48.48,0,1,1-1,0v-2H99.74v38a.45.45,0,0,1-.44.48Zm3.41-32.85a.48.48,0,0,1,0-1,.48.48,0,1,1,0,1Z"/><path class="cls-1" d="M106.24,124.32h-7a.46.46,0,0,1-.46-.46V111.75a.47.47,0,1,1,.94,0v11.62h6V86.42a.48.48,0,0,1,.48-.47.47.47,0,0,1,.47.47v37.42a.48.48,0,0,1-.14.34A.45.45,0,0,1,106.24,124.32Zm-7-15.25a.45.45,0,0,1-.46-.46.46.46,0,0,1,.46-.46.47.47,0,0,1,.46.46A.46.46,0,0,1,99.26,109.07Zm0-3.17a.45.45,0,0,1-.46-.46V74a.43.43,0,0,1,.13-.34.48.48,0,0,1,.34-.14h7a.46.46,0,0,1,.46.46v6.07a.47.47,0,0,1-.47.47.48.48,0,0,1-.48-.47V74.5h-6v30.89a.46.46,0,0,1-.43.49h0Zm7-22.15a.46.46,0,0,1-.46-.46.45.45,0,0,1,.46-.46.45.45,0,1,1,0,.89Z"/><path class="cls-1" d="M109.39,124.32H99.26a.47.47,0,0,1-.46-.46V105.45a.48.48,0,0,1,1,0v17.92h9.18V89.57a.48.48,0,1,1,.95,0v34.27a.48.48,0,0,1-.14.34A.46.46,0,0,1,109.39,124.32ZM99.26,102.75a.46.46,0,0,1-.46-.46.47.47,0,0,1,.46-.46.46.46,0,0,1,.46.46.45.45,0,0,1-.46.46Zm0-3.17a.46.46,0,0,1-.46-.46V74a.48.48,0,0,1,.14-.34.47.47,0,0,1,.33-.14H109.4a.48.48,0,0,1,.48.48v9.2a.48.48,0,1,1-.95,0V74.49h-9.2v24.6a.46.46,0,0,1-.43.49Zm10.13-12.71a.48.48,0,1,1,.47-.47A.47.47,0,0,1,109.39,86.87Z"/><path class="cls-1" d="M106.24,71.17h-4.78a.46.46,0,0,1-.46-.46V57.4a.45.45,0,0,1,.46-.46h4.78a.45.45,0,0,1,.33.14.48.48,0,0,1,.14.34V70.71a.48.48,0,0,1-.14.34A.45.45,0,0,1,106.24,71.17Zm-4.3-1h3.82V57.87h-3.82Z"/><path class="cls-1" d="M110.64,52.89h-4.4a.46.46,0,0,1-.46-.46V40.81a.48.48,0,0,1,.14-.34.45.45,0,0,1,.33-.14h4.4a.48.48,0,0,1,.48.48v11.6a.47.47,0,0,1-.46.47Zm-3.93-1h3.45V41.28h-3.45Z"/><path class="cls-1" d="M110.64,52.89h-9.18a.48.48,0,0,1-.48-.48V49.93a.48.48,0,0,1,.48-.48h9.18a.45.45,0,0,1,.33.14.48.48,0,0,1,.14.34v2.48a.46.46,0,0,1-.46.47Zm-8.7-1h8.22V50.4h-8.22Z"/><path class="cls-1" d="M110.64,71.17h-9.18a.46.46,0,0,1-.46-.46V67.37a.46.46,0,0,1,.46-.46h9.18a.47.47,0,0,1,.46.46v3.34A.47.47,0,0,1,110.64,71.17Zm-8.7-1h8.22V67.84h-8.22Z"/><path class="cls-1" d="M106.05,38h-3.38a.44.44,0,0,1-.33-.14.48.48,0,0,1-.14-.34V20.88a.46.46,0,0,1,.46-.46H106a.47.47,0,0,1,.46.46V37.47a.48.48,0,0,1-.14.34A.5.5,0,0,1,106.05,38Zm-2.9-1h2.42V21.35h-2.42Z"/><path class="cls-1" d="M109.42,38h-6.75a.44.44,0,0,1-.33-.14.48.48,0,0,1-.14-.34v-10a.45.45,0,0,1,.46-.46h6.75a.41.41,0,0,1,.34.14.45.45,0,0,1,.14.33v10a.46.46,0,0,1-.46.46Zm-6.27-1H109V28h-5.8Z"/><path class="cls-1" d="M106.24,19.67h-3.45a.48.48,0,0,1-.34-.14.47.47,0,0,1-.14-.33V10.91a.45.45,0,0,1,.14-.33.48.48,0,0,1,.34-.14h3.45a.45.45,0,0,1,.33.14.47.47,0,0,1,.14.33V19.2a.47.47,0,0,1-.14.33A.45.45,0,0,1,106.24,19.67Zm-3-1h2.5V11.39h-2.5Z"/><path class="cls-1" d="M109.31,19.67h-6.52a.48.48,0,0,1-.34-.14.47.47,0,0,1-.14-.33V16.4a.48.48,0,0,1,.48-.48h6.52a.46.46,0,0,1,.46.46v2.8a.46.46,0,0,1-.46.46Zm-6-1h5.57V16.88h-5.57Z"/><path class="cls-1" d="M109.31,19.67h-6.52a.48.48,0,0,1-.34-.14.47.47,0,0,1-.14-.33v-5a.45.45,0,0,1,.14-.33.45.45,0,0,1,.34-.15h6.52a.45.45,0,0,1,.34.15.45.45,0,0,1,.14.33v5a.47.47,0,0,1-.46.46Zm-6-1h5.57v-4h-5.57Z"/><path class="cls-1" d="M97.64,31.32H53.24a.48.48,0,0,1-.48-.48V27a.48.48,0,0,1,1,0v3.41H97.64a.48.48,0,0,1,0,1Zm1.62-1.56a.45.45,0,0,1-.46-.46.46.46,0,0,1,.46-.46.47.47,0,0,1,.46.46.46.46,0,0,1-.46.46Zm0-3.17a.45.45,0,0,1-.46-.46V24.65h-42a.48.48,0,0,1,0-.95H99.26a.4.4,0,0,1,.33.14.48.48,0,0,1,.14.34v1.93h0a.46.46,0,0,1-.44.48ZM53.62,24.65a.48.48,0,1,1,.47-.48A.47.47,0,0,1,53.62,24.65Z"/><path class="cls-1" d="M33.47,131H20.34a.51.51,0,0,1-.33-.13.48.48,0,0,1-.14-.34V100.6a.45.45,0,0,1,.46-.46h5.45a.46.46,0,0,1,.46.46.47.47,0,0,1-.46.46h-5v29H33v-29h-.87a.48.48,0,0,1,0-1h1.35a.46.46,0,0,1,.46.46v29.92a.46.46,0,0,1-.46.46ZM29,101.07a.48.48,0,1,1,.47-.48A.47.47,0,0,1,29,101.07Z"/><path class="cls-1" d="M23.23,108.8h0a1.55,1.55,0,0,1,0-3.1h0a1.55,1.55,0,0,1,1.09.46,1.56,1.56,0,0,1,0,2.21,1.54,1.54,0,0,1-1.06.44Zm0-2.14a.57.57,0,0,0-.59.57.6.6,0,0,0,.18.42.57.57,0,0,0,.4.18.58.58,0,0,0,.59-.59h0a.55.55,0,0,0-.54-.57Z"/><path class="cls-1" d="M30.66,108.8h0a1.55,1.55,0,0,1,0-3.1h0a1.55,1.55,0,1,1,0,3.1Zm0-2.14a.57.57,0,0,0-.58.57.56.56,0,0,0,.18.42.55.55,0,0,0,.4.18.58.58,0,0,0,.59-.59h0a.55.55,0,0,0-.54-.57Z"/><path class="cls-1" d="M112.84,124.32h-3.45a.48.48,0,0,1-.48-.48v-5a.48.48,0,0,1,.48-.47.47.47,0,0,1,.47.47v4.57h2.51V82.89a.47.47,0,0,1,.47-.47.48.48,0,0,1,.48.47v41a.46.46,0,0,1-.46.46Zm-3.45-8.21a.47.47,0,0,1,0-.93.47.47,0,0,1,0,.93Zm0-3.18a.45.45,0,0,1-.46-.46V74a.43.43,0,0,1,.13-.34.48.48,0,0,1,.34-.14h3.45a.48.48,0,0,1,.48.48v2.51h0a.48.48,0,0,1-.48.48.47.47,0,0,1-.47-.48v-2h-2.5v38a.47.47,0,0,1-.44.48Zm3.45-32.74a.45.45,0,0,1-.46-.46.46.46,0,0,1,.46-.46.47.47,0,0,1,.46.46A.46.46,0,0,1,112.84,80.19Z"/><path class="cls-1" d="M132.11,131H118.94a.51.51,0,0,1-.33-.13.48.48,0,0,1-.14-.34V100.6a.48.48,0,0,1,.14-.34.47.47,0,0,1,.33-.14h5.53a.47.47,0,0,1,.46.46.46.46,0,0,1-.46.46h-5.06v29h12.22V101h-.84a.48.48,0,1,1,0-1h1.32a.48.48,0,0,1,.47.47v29.92a.45.45,0,0,1-.14.33A.4.4,0,0,1,132.11,131Zm-4.49-29.91a.48.48,0,1,1,.48-.48A.47.47,0,0,1,127.62,101.07Z"/><path class="cls-1" d="M129.19,108.8h0a1.55,1.55,0,0,1,0-3.1h0a1.57,1.57,0,0,1,1.09.46,1.6,1.6,0,0,1,.47,1.1A1.56,1.56,0,0,1,129.19,108.8Zm0-2.14a.58.58,0,0,0-.58.59.59.59,0,1,0,1.18,0v0a.55.55,0,0,0-.55-.57Z"/><path class="cls-1" d="M121.75,108.8h0a1.55,1.55,0,0,1,0-3.1h0a1.57,1.57,0,0,1,1.09.46,1.54,1.54,0,0,1-1.09,2.64Zm0-2.14a.58.58,0,0,0-.58.58.64.64,0,0,0,.58.61.59.59,0,0,0,.59-.6h0a.56.56,0,0,0-.54-.59Z"/><path class="cls-1" d="M59.8,61.21H56.5a.46.46,0,0,1-.46-.46V49.85a.51.51,0,0,1,.13-.34.48.48,0,0,1,.34-.14h3.31a.47.47,0,0,1,.46.46V60.75a.48.48,0,0,1-.14.34A.5.5,0,0,1,59.8,61.21Zm-2.82-1h2.34V50.33H57Z"/><path class="cls-1" d="M63.1,61.21H59.8a.45.45,0,0,1-.33-.14.44.44,0,0,1-.15-.33V49.85a.45.45,0,0,1,.15-.34.45.45,0,0,1,.33-.14h3.3a.48.48,0,0,1,.34.14.58.58,0,0,1,.14.34v10.9a.47.47,0,0,1-.46.46Zm-2.81-1h2.36V50.33H60.29Z"/><path class="cls-1" d="M66.36,61.21H63.1a.47.47,0,0,1-.46-.46V49.85a.48.48,0,0,1,.48-.48h3.26a.47.47,0,0,1,.46.46V60.75a.48.48,0,0,1-.14.34A.5.5,0,0,1,66.36,61.21Zm-2.78-1h2.3V50.33h-2.3Z"/><path class="cls-1" d="M69.66,61.21h-3.3a.48.48,0,0,1-.47-.47V49.85a.48.48,0,0,1,.14-.34.47.47,0,0,1,.33-.14h3.3a.48.48,0,0,1,.48.48v10.9a.47.47,0,0,1-.46.46Zm-2.82-1h2.35V50.33H66.84Z"/><path class="cls-1" d="M73,61.21h-3.3a.47.47,0,0,1-.46-.46V49.85a.48.48,0,0,1,.48-.48H73a.47.47,0,0,1,.46.46V60.75a.48.48,0,0,1-.14.34A.5.5,0,0,1,73,61.21Zm-2.82-1h2.35V50.33H70.14Z"/><path class="cls-1" d="M76.23,61.21H73a.48.48,0,0,1-.47-.47V49.85a.48.48,0,0,1,.14-.34.47.47,0,0,1,.33-.14h3.27a.46.46,0,0,1,.46.46V60.75a.48.48,0,0,1-.14.34A.45.45,0,0,1,76.23,61.21Zm-2.79-1h2.3V50.33h-2.3Z"/><path class="cls-1" d="M79.53,61.21h-3.3a.46.46,0,0,1-.46-.46V49.85a.51.51,0,0,1,.13-.34.48.48,0,0,1,.34-.14h3.3a.48.48,0,0,1,.48.48v10.9a.48.48,0,0,1-.14.34A.5.5,0,0,1,79.53,61.21Zm-2.83-1h2.35V50.33H76.7Z"/><path class="cls-1" d="M82.84,61.21h-3.3a.48.48,0,0,1-.34-.14.42.42,0,0,1-.13-.33V49.85a.45.45,0,0,1,.46-.46h3.31a.46.46,0,0,1,.47.46v10.9a.48.48,0,0,1-.14.34A.55.55,0,0,1,82.84,61.21Zm-2.82-1h2.35V50.33H80Z"/><path class="cls-1" d="M86.13,61.21H82.84a.48.48,0,0,1-.47-.47V49.85a.45.45,0,0,1,.46-.46h3.3a.42.42,0,0,1,.33.13.48.48,0,0,1,.14.34V60.75a.48.48,0,0,1-.14.34A.5.5,0,0,1,86.13,61.21Zm-2.82-1h2.34V50.33H83.31Z"/><path class="cls-1" d="M89.39,61.21H86.13a.48.48,0,0,1-.34-.14.47.47,0,0,1-.14-.33V49.85a.48.48,0,0,1,.48-.48h3.26a.46.46,0,0,1,.46.46V60.75a.43.43,0,0,1-.13.34A.55.55,0,0,1,89.39,61.21Zm-2.79-1h2.31V50.33H86.6Z"/><path class="cls-1" d="M92.69,61.21h-3.3a.47.47,0,0,1-.33-.14.43.43,0,0,1-.14-.33V49.85a.45.45,0,0,1,.46-.46h3.3a.42.42,0,0,1,.33.13.49.49,0,0,1,.14.34V60.75a.47.47,0,0,1-.46.46ZM89.87,50.33v9.93h2.35V50.33Z"/><path class="cls-1" d="M96,61.21h-3.3a.48.48,0,0,1-.47-.47V49.85a.48.48,0,0,1,.14-.34.47.47,0,0,1,.33-.14H96a.48.48,0,0,1,.48.48v10.9a.48.48,0,0,1-.14.34A.46.46,0,0,1,96,61.21Zm-2.82-1h2.34V50.33H93.17Z"/><path class="cls-1" d="M9.83,74.5h-2a.47.47,0,0,1-.46-.43L6.72,67.4A.52.52,0,0,1,6.84,67a.48.48,0,0,1,.36-.16h3.3a.48.48,0,0,1,.47.52l-.66,6.7A.47.47,0,0,1,9.83,74.5Zm-1.57-1H9.4L10,67.84H7.7Z"/><path class="cls-1" d="M14.77,74.5h-2a.46.46,0,0,1-.46-.43l-.65-6.67a.49.49,0,0,1,.13-.36.48.48,0,0,1,.35-.16h3.3a.46.46,0,0,1,.35.16.48.48,0,0,1,.12.36l-.66,6.7A.46.46,0,0,1,14.77,74.5Zm-1.58-1h1.15l.55-5.71H12.64Z"/><path class="cls-1" d="M19.7,74.5h-2a.45.45,0,0,1-.46-.43l-.66-6.67a.48.48,0,0,1,.48-.52h3.3a.48.48,0,0,1,.47.52l-.65,6.7A.46.46,0,0,1,19.7,74.5Zm-1.58-1h1.14l.56-5.71H17.57Z"/><path class="cls-1" d="M24.63,74.5h-2a.47.47,0,0,1-.46-.43l-.64-6.67a.44.44,0,0,1,.12-.36.48.48,0,0,1,.35-.16h3.3a.48.48,0,0,1,.47.52l-.65,6.7A.47.47,0,0,1,24.63,74.5Zm-1.58-1H24.2l.55-5.71H22.5Z"/><path class="cls-1" d="M29.56,74.5h-2a.47.47,0,0,1-.46-.43l-.64-6.67a.45.45,0,0,1,.4-.51h3.36a.45.45,0,0,1,.35.16.48.48,0,0,1,.12.36L30,74.1A.45.45,0,0,1,29.56,74.5Zm-1.57-1h1.14l.55-5.71H27.43Z"/><path class="cls-1" d="M34.49,74.5h-2a.47.47,0,0,1-.46-.43l-.65-6.67a.46.46,0,0,1,.4-.51h3.36a.47.47,0,0,1,.46.46v.06L35,74.1A.46.46,0,0,1,34.49,74.5Zm-1.57-1h1.14l.56-5.71H32.36Z"/><path class="cls-1" d="M119.89,74.5h-2a.45.45,0,0,1-.46-.43l-.65-6.66a.49.49,0,0,1,.12-.37.48.48,0,0,1,.36-.16h3.29a.48.48,0,0,1,.36.16.49.49,0,0,1,.12.37l-.66,6.69A.47.47,0,0,1,119.89,74.5Zm-1.58-1h1.15l.56-5.71h-2.26Z"/><path class="cls-1" d="M124.83,74.5h-2a.45.45,0,0,1-.46-.43l-.65-6.67a.44.44,0,0,1,.12-.36.48.48,0,0,1,.35-.16h3.3a.47.47,0,0,1,.47.46.13.13,0,0,1,0,.06l-.64,6.7A.46.46,0,0,1,124.83,74.5Zm-1.58-1h1.14l.56-5.71H122.7Z"/><path class="cls-1" d="M129.76,74.5h-2a.47.47,0,0,1-.46-.43l-.65-6.67a.48.48,0,0,1,.48-.52h3.3a.47.47,0,0,1,.46.46v.06l-.63,6.7A.46.46,0,0,1,129.76,74.5Zm-1.58-1h1.15l.55-5.71h-2.25Z"/><path class="cls-1" d="M134.69,74.5h-2a.47.47,0,0,1-.46-.43l-.65-6.66a.55.55,0,0,1,.12-.37.5.5,0,0,1,.36-.16h3.3a.48.48,0,0,1,.35.16.46.46,0,0,1,.13.37l-.67,6.69A.46.46,0,0,1,134.69,74.5Zm-1.58-1h1.15l.55-5.71h-2.26Z"/><path class="cls-1" d="M139.62,74.5h-2a.47.47,0,0,1-.46-.43l-.64-6.67a.44.44,0,0,1,.12-.36.46.46,0,0,1,.35-.16h3.3a.48.48,0,0,1,.35.16.44.44,0,0,1,.12.36l-.65,6.7A.46.46,0,0,1,139.62,74.5Zm-1.58-1h1.15l.55-5.71h-2.25Z"/><path class="cls-1" d="M144.56,74.5h-2a.47.47,0,0,1-.47-.43l-.64-6.66a.5.5,0,0,1,.12-.37.48.48,0,0,1,.35-.16h3.3a.48.48,0,0,1,.36.16.5.5,0,0,1,.12.37L145,74.1A.46.46,0,0,1,144.56,74.5Zm-1.58-1h1.14l.56-5.71h-2.25Z"/><path class="cls-1" d="M59.8,86.52h0a2.82,2.82,0,0,1-2-4.8,2.76,2.76,0,0,1,3.91,0l.05,0a2.82,2.82,0,0,1-2,4.8Zm0-4.67a1.84,1.84,0,1,0,1.84,1.84A1.84,1.84,0,0,0,59.8,81.85Z"/><path class="cls-1" d="M92.69,86.52h0a2.81,2.81,0,0,1-2-4.8,2.76,2.76,0,0,1,3.9,0l0,0a2.81,2.81,0,0,1-2,4.8Zm0-4.67a1.84,1.84,0,1,0,1.84,1.84A1.84,1.84,0,0,0,92.69,81.85Z"/><path class="cls-1" d="M.65,64.43A.46.46,0,0,1,.19,64V60.75a.47.47,0,0,1,.46-.46H41.84a.48.48,0,0,1,0,1H1.13V64A.46.46,0,0,1,.65,64.43Z"/><path class="cls-1" d="M98.61,61.21a.46.46,0,0,1,0-.92.46.46,0,1,1,0,.92Zm-3.17,0H51a.48.48,0,0,1,0-1H95.44a.48.48,0,1,1,0,1Z"/><path class="cls-1" d="M151.8,64.43a.46.46,0,0,1-.46-.46V61.21h-40.7a.48.48,0,1,1,0-1H151.8a.48.48,0,0,1,.48.48V64a.46.46,0,0,1-.45.47Z"/><path class="cls-1" d="M7.18,44.5A.47.47,0,0,1,6.72,44V40.82a.48.48,0,0,1,.48-.48H41.86a.48.48,0,0,1,0,.95H7.65v2.76h0a.45.45,0,0,1-.47.45Z"/><path class="cls-1" d="M145.32,42.16a.46.46,0,0,1-.46-.46v-.42H101.78a.48.48,0,0,1,0-1h43.54a.47.47,0,0,1,.46.46v.87a.48.48,0,0,1-.43.5Zm-46.71-.88a.46.46,0,0,1-.46-.46.47.47,0,0,1,.46-.46.46.46,0,0,1,.46.46A.45.45,0,0,1,98.61,41.28Zm-3.17,0H51a.48.48,0,0,1,0-1H95.44a.48.48,0,1,1,0,1Z"/><path class="cls-1" d="M97.64,74.5H53.24a.48.48,0,0,1-.48-.47.49.49,0,0,1,.48-.48h44.4a.49.49,0,0,1,.48.48A.48.48,0,0,1,97.64,74.5Z"/><path class="cls-1" d="M20.61,117.69a.48.48,0,1,1,0-1h.85v-2.86a.58.58,0,0,1,.14-.34.48.48,0,0,1,.34-.14h1.27v-.46a7,7,0,0,1,.66-3.46,7.4,7.4,0,0,1,2.76-2.64.51.51,0,0,1,.53,0,7.94,7.94,0,0,1,2.76,2.69,7.86,7.86,0,0,1,.74,3.51v.39h1.1a.43.43,0,0,1,.34.13.55.55,0,0,1,.13.34v2.86h1.46a.48.48,0,1,1,0,.95H31.76a.48.48,0,0,1-.34-.14.41.41,0,0,1-.13-.33v-2.86H30.17a.48.48,0,0,1-.48-.48v-.84a6.87,6.87,0,0,0-.61-3.07,6.79,6.79,0,0,0-2.18-2.14A6,6,0,0,0,24.7,110a6.68,6.68,0,0,0-.54,3v.92a.51.51,0,0,1-.14.34.43.43,0,0,1-.34.13H22.41v2.86a.45.45,0,0,1-.46.46H20.61Z"/><path class="cls-1" d="M56.84,107.8h0a.45.45,0,0,1-.43-.49v0c.6-6.56,2.15-11.51,4.88-15.62,3.13-4.71,8-8.45,14.79-11.44a.44.44,0,0,1,.39,0,42.84,42.84,0,0,1,8.12,4.87.49.49,0,0,1,.08.67.47.47,0,0,1-.66.08,42.11,42.11,0,0,0-7.75-4.67C62,87.55,58.38,96.26,57.31,107.37A.45.45,0,0,1,56.84,107.8Zm38.58-.23a.46.46,0,0,1-.46-.42c-.87-7.39-2.87-12.63-6.5-17h0a.51.51,0,0,1-.1-.3.45.45,0,0,1,.17-.36.48.48,0,0,1,.67.06,26.59,26.59,0,0,1,4.6,8,40.8,40.8,0,0,1,2.12,9.45.45.45,0,0,1-.39.52h-.11ZM86.68,88a.48.48,0,0,1-.35-.79l0,0a.5.5,0,0,1,.67,0h0a.44.44,0,0,1,.15.33.51.51,0,0,1-.13.34.49.49,0,0,1-.38.14Z"/><path class="cls-1" d="M145.32,131H108.67a.48.48,0,0,1,0-.95h36.65a.48.48,0,0,1,0,.95Zm-39.82,0a.46.46,0,0,1-.46-.46.47.47,0,0,1,.46-.46.46.46,0,0,1,.46.46.45.45,0,0,1-.46.46Zm-3.17,0H57.92a.48.48,0,0,1,0-.95h44.41a.48.48,0,1,1,0,.95Zm-47.58,0a.48.48,0,1,1,.48-.47A.47.47,0,0,1,54.75,131Zm-3.17,0H7.18a.48.48,0,1,1,0-.95h44.4a.48.48,0,1,1,0,.95Z"/><path class="cls-1" d="M40.07,130.76a.47.47,0,0,1-.46-.46v-3a.44.44,0,0,1,.13-.32l3.19-3.45a.48.48,0,0,1,.67,0,.47.47,0,0,1,0,.65l0,0-3.05,3.3v2.8a.47.47,0,0,1-.45.48Z"/><path class="cls-1" d="M36.7,127.62a.48.48,0,0,1-.34-.14.47.47,0,0,1-.06-.65l0,0,3-3.3a.48.48,0,0,1,.36-.15H53.22a.46.46,0,0,1,.37.18l2.51,3.22a.46.46,0,0,1,.09.36.44.44,0,0,1-.18.31.45.45,0,0,1-.64-.06l0,0-2.36-3H39.87l-2.82,3.16A.5.5,0,0,1,36.7,127.62Z"/><path class="cls-1" d="M53.24,130.76a.46.46,0,0,1-.46-.46v-2.82l-3.09-3.31h0a.48.48,0,0,1,0-.68.49.49,0,0,1,.67,0L53.58,127a.42.42,0,0,1,.13.32v3a.46.46,0,0,1-.44.48Z"/><path class="cls-1" d="M51.65,9.71h-10a.48.48,0,0,1,0-1h10a.48.48,0,0,1,0,1Z"/><path class="cls-1" d="M49.18,9.71a.47.47,0,0,1-.46-.46c0-2.43-.7-4.37-1.41-5a1,1,0,0,0-.65-.33,1,1,0,0,0-.67.33,3.82,3.82,0,0,0-.7,1.1,10.13,10.13,0,0,0-.7,3.93.48.48,0,0,1-1,0h0c0-2.54.65-4.67,1.7-5.72a1.94,1.94,0,0,1,1.32-.59h0A1.93,1.93,0,0,1,48,3.53a4.49,4.49,0,0,1,.92,1.39,11.13,11.13,0,0,1,.78,4.31.46.46,0,0,1-.44.48Z"/><path class="cls-1" d="M46.64,4a.46.46,0,0,1-.46-.46V.65a.48.48,0,1,1,1,0V3.48a.46.46,0,0,1-.44.48Z"/><path class="cls-1" d="M53.24,77.64H39.66a.47.47,0,1,1,0-.94H53.24a.47.47,0,0,1,0,.94Z"/><path class="cls-1" d="M53.24,84.62H39.66a.48.48,0,1,1,0-1H53.24a.48.48,0,1,1,0,1Z"/><path class="cls-1" d="M53.24,91.09H39.66a.48.48,0,0,1-.48-.47.49.49,0,0,1,.48-.48H53.24a.48.48,0,0,1,.47.48A.47.47,0,0,1,53.24,91.09Z"/><path class="cls-1" d="M53.24,97.76H39.66a.48.48,0,1,1,0-1H53.24a.48.48,0,0,1,0,1Z"/><path class="cls-1" d="M53.24,104.43H39.66a.48.48,0,1,1,0-1H53.24a.48.48,0,0,1,0,1Z"/><path class="cls-1" d="M53.24,111H39.66a.47.47,0,0,1-.48-.47.48.48,0,0,1,.48-.48H53.24a.49.49,0,0,1,.48.48A.48.48,0,0,1,53.24,111Z"/><path class="cls-1" d="M53.24,117.69H39.66a.48.48,0,1,1,0-1H53.24a.48.48,0,1,1,0,1Z"/><path class="cls-1" d="M99.67,130.76a.47.47,0,0,1-.46-.46v-3a.47.47,0,0,1,.12-.32l3.19-3.45a.5.5,0,0,1,.68,0,.46.46,0,0,1,0,.65l0,0-3.07,3.3v2.8a.46.46,0,0,1-.45.48Z"/><path class="cls-1" d="M96.3,127.62a.48.48,0,0,1-.32-.13.5.5,0,0,1-.16-.33.47.47,0,0,1,.12-.34l3-3.3a.48.48,0,0,1,.36-.15h13.58a.44.44,0,0,1,.38.18l2.5,3.22a.47.47,0,0,1,0,.65l0,0a.51.51,0,0,1-.68-.09l-2.35-3H99.47l-2.82,3.16A.5.5,0,0,1,96.3,127.62Z"/><path class="cls-1" d="M112.84,130.76a.46.46,0,0,1-.46-.46v-2.82l-3.1-3.32h0a.45.45,0,0,1-.12-.33.45.45,0,0,1,.42-.49.46.46,0,0,1,.4.17L113.2,127a.46.46,0,0,1,.13.32v3a.47.47,0,0,1-.44.48Z"/><path class="cls-1" d="M111.25,9.71h-10a.49.49,0,0,1,0-1h10a.48.48,0,0,1,0,1Z"/><path class="cls-1" d="M108.78,9.71a.47.47,0,0,1-.46-.46c0-2.43-.7-4.37-1.41-5a.82.82,0,0,0-1.16-.15.54.54,0,0,0-.15.15,3.65,3.65,0,0,0-.71,1.1,10.08,10.08,0,0,0-.7,3.92h0a.46.46,0,1,1-.92,0c0-2.53.64-4.67,1.69-5.71a1.79,1.79,0,0,1,2.53-.11.57.57,0,0,1,.11.11,4.42,4.42,0,0,1,.93,1.38,11.16,11.16,0,0,1,.78,4.31.47.47,0,0,1-.43.49Z"/><path class="cls-1" d="M106.24,4a.46.46,0,0,1-.46-.46V.65a.48.48,0,0,1,.47-.48.49.49,0,0,1,.48.48V3.48a.47.47,0,0,1-.44.48Z"/><path class="cls-1" d="M112.84,77.64H99.26a.47.47,0,1,1,0-.94h13.58a.47.47,0,0,1,0,.94Z"/><path class="cls-1" d="M112.84,84.62H99.26a.48.48,0,1,1,0-1h13.58a.48.48,0,0,1,0,1Z"/><path class="cls-1" d="M112.84,91.09H99.26a.47.47,0,0,1-.48-.47.48.48,0,0,1,.48-.48h13.58a.48.48,0,0,1,.47.48A.47.47,0,0,1,112.84,91.09Z"/><path class="cls-1" d="M112.84,97.77H99.26a.48.48,0,0,1,0-1h13.58a.48.48,0,0,1,0,1Z"/><path class="cls-1" d="M112.84,104.43H99.26a.48.48,0,1,1,0-1h13.58a.48.48,0,0,1,0,1Z"/><path class="cls-1" d="M112.84,111H99.26a.47.47,0,0,1-.48-.47.48.48,0,0,1,.48-.48h13.58a.48.48,0,0,1,.47.48A.47.47,0,0,1,112.84,111Z"/><path class="cls-1" d="M112.84,117.69H99.26a.48.48,0,1,1,0-1h13.58a.48.48,0,1,1,0,1Z"/><path class="cls-1" d="M97.64,16.87H53.24a.48.48,0,1,1,0-1h44.4a.48.48,0,1,1,0,1Z"/><path class="cls-1" d="M102.67,21.35h-2.1a.47.47,0,1,1,0-.94h2.1a.47.47,0,1,1,0,.94Zm-5.27,0a.45.45,0,0,1-.46-.46.46.46,0,0,1,.46-.46.47.47,0,0,1,.46.46A.46.46,0,0,1,97.4,21.35Zm-3.17,0H49.82a.47.47,0,0,1,0-.94H94.23a.47.47,0,1,1,0,.94Z"/><path class="cls-1" d="M59.8,21.43a.46.46,0,0,1-.46-.46v-4.8a.48.48,0,1,1,.95,0V21a.45.45,0,0,1-.44.47Z"/><path class="cls-1" d="M66.36,21.43A.46.46,0,0,1,65.9,21v-4.8a.49.49,0,0,1,.48-.48.48.48,0,0,1,.47.48V21a.45.45,0,0,1-.44.47Z"/><path class="cls-1" d="M73,21.43A.46.46,0,0,1,72.5,21v-4.8a.48.48,0,0,1,1,0V21a.46.46,0,0,1-.45.47Z"/><path class="cls-1" d="M79.53,21.43a.45.45,0,0,1-.46-.46v-4.8a.48.48,0,1,1,1,0V21a.45.45,0,0,1-.45.47Z"/><path class="cls-1" d="M86.13,21.43a.46.46,0,0,1-.46-.46v-4.8a.48.48,0,1,1,1,0V21a.45.45,0,0,1-.44.47Z"/><path class="cls-1" d="M92.69,21.43a.46.46,0,0,1-.46-.46v-4.8a.49.49,0,0,1,.48-.48.48.48,0,0,1,.47.48V21a.45.45,0,0,1-.44.47Z"/><path class="cls-1" d="M39.66,57.87H7.18a.48.48,0,1,1,0-.95H39.66a.48.48,0,0,1,0,.95Z"/><path class="cls-1" d="M145.54,57.87H113.07a.48.48,0,1,1,0-.95h32.47a.48.48,0,1,1,0,.95Z"/><path class="cls-1" d="M26.91,57.87a.46.46,0,0,1-.46-.46v-10a.47.47,0,0,1,.47-.48.48.48,0,0,1,.48.48v10a.45.45,0,0,1-.45.47Z"/><path class="cls-1" d="M33.47,57.87a.46.46,0,0,1-.46-.46v-10a.48.48,0,0,1,.48-.48.47.47,0,0,1,.47.48v10a.45.45,0,0,1-.44.47Z"/><path class="cls-1" d="M33.47,54.58H26.91a.49.49,0,0,1-.48-.48.48.48,0,0,1,.48-.47h6.56a.47.47,0,0,1,.48.47A.48.48,0,0,1,33.47,54.58Z"/><path class="cls-1" d="M119,57.87a.46.46,0,0,1-.46-.46v-10A.48.48,0,0,1,119,47a.47.47,0,0,1,.47.48v10a.45.45,0,0,1-.44.47Z"/><path class="cls-1" d="M125.65,57.87a.45.45,0,0,1-.46-.46v-10a.47.47,0,0,1,.47-.48.48.48,0,0,1,.48.48v10a.45.45,0,0,1-.45.47Z"/><path class="cls-1" d="M125.65,54.58H119a.48.48,0,0,1-.47-.48.47.47,0,0,1,.47-.47h6.63a.47.47,0,0,1,.47.47A.48.48,0,0,1,125.65,54.58Z"/><path class="cls-1" d="M13.74,131a.46.46,0,0,1-.46-.46v-5.74a.48.48,0,1,1,1,0v5.73a.47.47,0,0,1-.45.48Zm0-8.9a.47.47,0,0,1-.46-.46.46.46,0,0,1,.46-.46.45.45,0,0,1,.46.46.46.46,0,0,1-.46.46Zm0-3.17a.47.47,0,0,1-.46-.46V74a.48.48,0,1,1,1,0v44.4a.47.47,0,0,1-.44.48Z"/><path class="cls-1" d="M138.67,131a.46.46,0,0,1-.46-.46v-5.74a.48.48,0,0,1,.48-.48.47.47,0,0,1,.47.48v5.73a.47.47,0,0,1-.44.48Zm0-8.9a.47.47,0,0,1-.46-.46.46.46,0,0,1,.46-.46.45.45,0,0,1,.46.46.46.46,0,0,1-.46.46Zm0-3.17a.47.47,0,0,1-.46-.46V74a.49.49,0,0,1,.48-.48.48.48,0,0,1,.47.48v44.4a.46.46,0,0,1-.44.48Z"/><path class="cls-1" d="M35.44,131.16a.46.46,0,0,1-.46-.46v-3a.46.46,0,0,1,.42-.49.42.42,0,0,1,.39.16.43.43,0,0,1,.14.33v3a.47.47,0,0,1-.45.47Zm-17.15,0a.46.46,0,0,1-.46-.46c0-7.66-.07-13.61-.13-18.38,0-3.08-.06-5.73-.06-7.93,0-4.8.12-7.87.81-10.38s1.85-4.23,3.69-6.93A.49.49,0,0,1,22.8,87a.47.47,0,0,1,.12.66C21.13,90.24,20,92,19.37,94.27c-.58,2.11-.79,4.75-.79,10.12,0,2.18,0,4.84.07,7.9.06,4.79.13,10.74.13,18.41a.46.46,0,0,1-.46.46ZM35.44,125h0a.48.48,0,0,1,0-1,.48.48,0,0,1,.4.17.51.51,0,0,1,.13.33.46.46,0,0,1-.46.46Zm0-3.17h0a.48.48,0,0,1-.33-.15.47.47,0,0,1-.14-.33c0-3.61.07-6.71.1-9.44,0-3.2.08-5.72.08-7.9,0-6.59-.33-9.23-1.48-11.76a39.62,39.62,0,0,0-3.46-5.59c-1-1.38-2-3-3.33-4.94l-.4.66a.49.49,0,0,1-.66.13.46.46,0,0,1-.21-.39.35.35,0,0,1,.08-.26c.27-.42.55-.85.81-1.27a.51.51,0,0,1,.71-.1.47.47,0,0,1,.1.1c1.45,2.25,2.7,4.06,3.68,5.52a41.11,41.11,0,0,1,3.56,5.76C35.9,94.81,36.13,98,36.13,104c0,2.19,0,4.72-.07,7.93,0,2.72-.08,5.81-.11,9.41a.46.46,0,0,1-.44.48h-.07ZM24.31,85.22a.47.47,0,0,1-.26-.08.46.46,0,0,1-.14-.64v0a.5.5,0,0,1,.67-.13.47.47,0,0,1,.14.63l0,0A.46.46,0,0,1,24.31,85.22Z"/><path class="cls-1" d="M20.61,101.06H18.22a.48.48,0,1,1,0-1h2.39a.48.48,0,1,1,0,1Z"/><path class="cls-1" d="M20.34,104.39H18.18a.48.48,0,0,1,0-1h2.16a.48.48,0,1,1,0,1Z"/><path class="cls-1" d="M20.34,107.72H18.18a.47.47,0,0,1,0-.94h2.16a.47.47,0,1,1,0,.94Z"/><path class="cls-1" d="M20.34,111H18.18a.48.48,0,0,1-.48-.47.49.49,0,0,1,.48-.48h2.16a.49.49,0,0,1,.48.48A.48.48,0,0,1,20.34,111Z"/><path class="cls-1" d="M20.34,114.36H18.18a.48.48,0,0,1,0-1h2.16a.48.48,0,0,1,0,1Z"/><path class="cls-1" d="M20.34,117.69H18.18a.48.48,0,1,1,0-1h2.16a.48.48,0,1,1,0,1Z"/><path class="cls-1" d="M20.34,121H18.18a.48.48,0,1,1,0-1h2.16a.48.48,0,1,1,0,1Z"/><path class="cls-1" d="M20.34,124.32H18.18a.48.48,0,0,1,0-.95h2.16a.48.48,0,1,1,0,.95Z"/><path class="cls-1" d="M20.34,127.65H18.18a.48.48,0,1,1,0-1h2.16a.48.48,0,1,1,0,1Z"/><path class="cls-1" d="M35.86,101.06H33.47a.48.48,0,0,1,0-1h2.39a.48.48,0,1,1,0,1Z"/><path class="cls-1" d="M35.56,104.39H33.39a.48.48,0,0,1,0-1h2.17a.48.48,0,0,1,0,1Z"/><path class="cls-1" d="M35.56,107.72H33.39a.47.47,0,1,1,0-.94h2.17a.47.47,0,0,1,0,.94Z"/><path class="cls-1" d="M35.56,111H33.39a.47.47,0,0,1-.47-.47.48.48,0,0,1,.47-.48h2.17a.48.48,0,0,1,.47.48A.47.47,0,0,1,35.56,111Z"/><path class="cls-1" d="M35.56,114.36H33.39a.48.48,0,0,1,0-1h2.17a.48.48,0,0,1,0,1Z"/><path class="cls-1" d="M35.56,117.69H33.39a.48.48,0,0,1,0-1h2.17a.48.48,0,0,1,0,1Z"/><path class="cls-1" d="M35.56,121H33.39a.48.48,0,0,1,0-1h2.17a.48.48,0,0,1,0,1Z"/><path class="cls-1" d="M35.56,124.32H33.39a.48.48,0,0,1,0-.95h2.17a.48.48,0,0,1,0,.95Z"/><path class="cls-1" d="M35.56,127.65H33.39a.48.48,0,0,1,0-1h2.17a.48.48,0,0,1,0,1Z"/><path class="cls-1" d="M26.91,101.06a.47.47,0,0,1-.46-.46V80.67a.47.47,0,0,1,.47-.47.48.48,0,0,1,.48.47V100.6a.47.47,0,0,1-.46.46Z"/><path class="cls-1" d="M33.47,91.09H20.34a.47.47,0,0,1-.47-.47.48.48,0,0,1,.47-.48H33.47a.49.49,0,0,1,.48.48A.48.48,0,0,1,33.47,91.09Z"/><path class="cls-1" d="M34.8,94.43H18.9a.48.48,0,0,1,0-1H34.8a.48.48,0,1,1,0,1Z"/><path class="cls-1" d="M35.44,97.76H18.37a.48.48,0,0,1,0-1H35.44a.48.48,0,1,1,0,1Z"/><path class="cls-1" d="M31.27,87.8H22.56a.48.48,0,1,1,0-1H31.3a.48.48,0,1,1,0,1Z"/><path class="cls-1" d="M30,101.06a.46.46,0,0,1-.46-.46v-13a.47.47,0,0,1,.47-.47.48.48,0,0,1,.48.47v13a.46.46,0,0,1-.44.48Z"/><path class="cls-1" d="M33.47,101.06a.47.47,0,0,1-.46-.46v-10a.49.49,0,0,1,.48-.48.48.48,0,0,1,.47.48v10a.45.45,0,0,1-.44.48Z"/><path class="cls-1" d="M23.94,101.06a.46.46,0,0,1-.46-.46v-13a.47.47,0,1,1,.94,0v13a.45.45,0,0,1-.44.48Z"/><path class="cls-1" d="M20.49,101.06a.47.47,0,0,1-.46-.46v-10a.48.48,0,1,1,1,0v10a.46.46,0,0,1-.44.48Z"/><path class="cls-1" d="M39.66,81.13H13.74a.48.48,0,0,1,0-.95H39.66a.48.48,0,0,1,0,.95Z"/><path class="cls-1" d="M39.66,77.78H13.74a.48.48,0,0,1,0-1H39.66a.48.48,0,0,1,0,1Z"/><path class="cls-1" d="M39.66,79.52H13.74a.47.47,0,0,1-.47-.47.48.48,0,0,1,.47-.48H39.66a.48.48,0,0,1,.47.48A.47.47,0,0,1,39.66,79.52Z"/><path class="cls-1" d="M13.74,81.13H7.18a.48.48,0,1,1,0-.95h6.56a.48.48,0,1,1,0,.95Z"/><path class="cls-1" d="M13.74,87.8H7.18a.48.48,0,1,1,0-1h6.56a.48.48,0,1,1,0,1Z"/><path class="cls-1" d="M13.74,94.43H7.18a.48.48,0,0,1,0-1h6.56a.48.48,0,1,1,0,1Z"/><path class="cls-1" d="M13.74,101.06H7.18a.48.48,0,1,1,0-1h6.56a.48.48,0,1,1,0,1Z"/><path class="cls-1" d="M13.74,107.72H7.18a.47.47,0,0,1,0-.94h6.56a.47.47,0,1,1,0,.94Z"/><path class="cls-1" d="M13.74,114.36H7.18a.48.48,0,0,1,0-1h6.56a.48.48,0,1,1,0,1Z"/><path class="cls-1" d="M13.74,121H7.18a.48.48,0,0,1,0-1h6.56a.48.48,0,1,1,0,1Z"/><path class="cls-1" d="M13.74,127.65H7.18a.48.48,0,1,1,0-1h6.56a.48.48,0,1,1,0,1Z"/><path class="cls-1" d="M131.84,117.69h-1.38a.47.47,0,0,1-.33-.14.48.48,0,0,1-.14-.34v-2.85h-1.23a.48.48,0,0,1-.34-.14.49.49,0,0,1-.14-.34V113a6.19,6.19,0,0,0-.54-3,6.33,6.33,0,0,0-2.23-2.11,6.58,6.58,0,0,0-2.16,2.14,6.67,6.67,0,0,0-.6,3.08h0v.82a.48.48,0,0,1-.14.34.41.41,0,0,1-.34.14h-1.08v2.86a.48.48,0,0,1-.14.34.51.51,0,0,1-.34.13h-2a.47.47,0,0,1-.47-.47.48.48,0,0,1,.47-.48h1.46v-2.86a.47.47,0,0,1,.14-.33.48.48,0,0,1,.34-.14h1.1V113h0a7.39,7.39,0,0,1,.72-3.51,7.77,7.77,0,0,1,2.71-2.66.49.49,0,0,1,.52,0,7.66,7.66,0,0,1,2.82,2.65,7.14,7.14,0,0,1,.67,3.47v.46h1.23a.46.46,0,0,1,.46.46v2.86h.89a.46.46,0,0,1,.46.46A.47.47,0,0,1,131.84,117.69Z"/><path class="cls-1" d="M138.67,131a.46.46,0,0,1-.46-.46v-5.74a.48.48,0,0,1,.48-.48.47.47,0,0,1,.47.48v5.73a.47.47,0,0,1-.44.48Zm0-8.9a.47.47,0,0,1-.46-.46.46.46,0,0,1,.46-.46.45.45,0,0,1,.46.46.46.46,0,0,1-.46.46Zm0-3.17a.47.47,0,0,1-.46-.46V74a.49.49,0,0,1,.48-.48.48.48,0,0,1,.47.48v44.4a.46.46,0,0,1-.44.48Z"/><path class="cls-1" d="M134.12,131.16a.46.46,0,0,1-.46-.46c0-7.75.08-13.74.14-18.56,0-3.07.07-5.72.07-7.89,0-5.3-.21-7.92-.79-10-.63-2.28-1.76-4-3.55-6.62a.44.44,0,0,1-.07-.35.46.46,0,0,1,.19-.31.5.5,0,0,1,.67.12c1.84,2.69,3,4.49,3.68,6.91s.82,5.52.82,10.26c0,2.19,0,4.85-.07,7.92-.06,4.81-.13,10.8-.13,18.54a.47.47,0,0,1-.46.46Zm-17.11,0a.46.46,0,0,1-.46-.46v-3a.48.48,0,0,1,.14-.34.46.46,0,0,1,.65-.07.44.44,0,0,1,.16.4v3a.46.46,0,0,1-.45.47Zm0-6.17h0a.47.47,0,0,1-.46-.46.48.48,0,0,1,.14-.34.46.46,0,0,1,.65-.06.43.43,0,0,1,.16.4.46.46,0,0,1-.44.47h0Zm0-3.17h0a.48.48,0,0,1-.46-.46c0-3.69-.07-6.85-.11-9.63,0-3.22-.08-5.73-.08-7.9,0-5.93.23-9.07,1.57-12a40.52,40.52,0,0,1,3.56-5.75c1-1.44,2.23-3.23,3.68-5.48a.53.53,0,0,1,.4-.22.48.48,0,0,1,.41.22c.25.39.51.8.83,1.27a.47.47,0,0,1-.11.64l0,0a.49.49,0,0,1-.66-.14h0c-.14-.2-.28-.42-.42-.63-1.29,2-2.36,3.53-3.31,4.91a39.05,39.05,0,0,0-3.46,5.58c-1.15,2.52-1.48,5.12-1.48,11.61,0,2.15,0,4.67.08,7.82,0,2.8.08,6,.1,9.67a.43.43,0,0,1-.13.34.53.53,0,0,1-.39.15Zm11.13-36.61a.45.45,0,0,1-.38-.21h0a.44.44,0,0,1-.08-.35.43.43,0,0,1,.2-.3.49.49,0,0,1,.66.12.46.46,0,0,1-.09.64l0,0a.45.45,0,0,1-.29.09Z"/><path class="cls-1" d="M134.2,101.06h-2.39a.48.48,0,1,1,0-1h2.39a.48.48,0,1,1,0,1Z"/><path class="cls-1" d="M134.27,104.39h-2.16a.48.48,0,0,1,0-1h2.16a.48.48,0,1,1,0,1Z"/><path class="cls-1" d="M134.27,107.72h-2.16a.47.47,0,0,1,0-.94h2.16a.47.47,0,1,1,0,.94Z"/><path class="cls-1" d="M134.27,111h-2.16a.47.47,0,0,1-.47-.47.48.48,0,0,1,.47-.48h2.16a.48.48,0,0,1,.48.48A.47.47,0,0,1,134.27,111Z"/><path class="cls-1" d="M134.27,114.36h-2.16a.48.48,0,0,1,0-1h2.16a.48.48,0,0,1,0,1Z"/><path class="cls-1" d="M134.27,117.69h-2.16a.48.48,0,0,1,0-1h2.16a.48.48,0,1,1,0,1Z"/><path class="cls-1" d="M134.27,121h-2.16a.48.48,0,0,1,0-1h2.16a.48.48,0,1,1,0,1Z"/><path class="cls-1" d="M134.27,124.32h-2.16a.48.48,0,0,1,0-.95h2.16a.48.48,0,1,1,0,.95Z"/><path class="cls-1" d="M134.27,127.65h-2.16a.48.48,0,0,1,0-1h2.16a.48.48,0,1,1,0,1Z"/><path class="cls-1" d="M118.94,101.06h-2.35a.48.48,0,0,1,0-1h2.35a.48.48,0,1,1,0,1Z"/><path class="cls-1" d="M119,104.39h-2.16a.48.48,0,1,1,0-1H119a.48.48,0,1,1,0,1Z"/><path class="cls-1" d="M119,107.72h-2.16a.47.47,0,0,1,0-.94H119a.47.47,0,1,1,0,.94Z"/><path class="cls-1" d="M119,111h-2.16a.48.48,0,0,1-.48-.47.49.49,0,0,1,.48-.48H119a.48.48,0,0,1,.48.48A.47.47,0,0,1,119,111Z"/><path class="cls-1" d="M119,114.36h-2.16a.48.48,0,0,1,0-1H119a.48.48,0,1,1,0,1Z"/><path class="cls-1" d="M119,117.69h-2.16a.48.48,0,1,1,0-1H119a.48.48,0,1,1,0,1Z"/><path class="cls-1" d="M119,121h-2.16a.48.48,0,0,1,0-1H119a.48.48,0,1,1,0,1Z"/><path class="cls-1" d="M119,124.32h-2.16a.48.48,0,1,1,0-.95H119a.48.48,0,1,1,0,.95Z"/><path class="cls-1" d="M119,127.65h-2.16a.48.48,0,1,1,0-1H119a.48.48,0,1,1,0,1Z"/><path class="cls-1" d="M125.51,101.06a.47.47,0,0,1-.46-.46V80.67a.48.48,0,1,1,1,0V100.6a.47.47,0,0,1-.46.46Z"/><path class="cls-1" d="M132.11,91.09H118.94a.47.47,0,0,1-.47-.47.48.48,0,0,1,.47-.48h13.17a.49.49,0,0,1,.48.48A.48.48,0,0,1,132.11,91.09Z"/><path class="cls-1" d="M133.52,94.43H117.66a.48.48,0,1,1,0-1h15.86a.48.48,0,0,1,0,1Z"/><path class="cls-1" d="M134.09,97.77H117a.48.48,0,0,1,0-1h17.08a.48.48,0,0,1,0,1Z"/><path class="cls-1" d="M129.88,87.8h-8.75a.48.48,0,1,1,0-1h8.75a.48.48,0,0,1,0,1Z"/><path class="cls-1" d="M122.42,101.06a.47.47,0,0,1-.46-.46V87.35a.48.48,0,0,1,1,0V100.6a.47.47,0,0,1-.46.46Z"/><path class="cls-1" d="M118.94,101.06a.47.47,0,0,1-.46-.46v-10a.48.48,0,0,1,1,0v10a.46.46,0,0,1-.44.48Z"/><path class="cls-1" d="M128.47,101.06a.47.47,0,0,1-.46-.46V87.34a.48.48,0,0,1,1,0V100.6a.47.47,0,0,1-.46.46Z"/><path class="cls-1" d="M132.11,101.06a.47.47,0,0,1-.46-.46v-10a.48.48,0,1,1,.95,0v10a.45.45,0,0,1-.44.48Z"/><path class="cls-1" d="M138.67,81.13H112.76a.48.48,0,1,1,0-.95h25.91a.48.48,0,1,1,0,.95Z"/><path class="cls-1" d="M138.67,77.78H112.76a.48.48,0,0,1,0-1h25.91a.48.48,0,0,1,0,1Z"/><path class="cls-1" d="M138.67,79.52H112.76a.47.47,0,0,1-.47-.47.48.48,0,0,1,.47-.48h25.91a.48.48,0,0,1,.47.48.47.47,0,0,1-.47.47Z"/><path class="cls-1" d="M145.28,81.13h-6.61a.48.48,0,0,1,0-.95h6.61a.48.48,0,1,1,0,.95Z"/><path class="cls-1" d="M145.28,87.8h-6.61a.48.48,0,0,1,0-1h6.61a.48.48,0,1,1,0,1Z"/><path class="cls-1" d="M145.28,94.43h-6.61a.48.48,0,0,1,0-1h6.61a.48.48,0,0,1,0,1Z"/><path class="cls-1" d="M145.28,101.06h-6.61a.48.48,0,0,1-.47-.48.47.47,0,0,1,.47-.47h6.61a.47.47,0,0,1,.47.47A.48.48,0,0,1,145.28,101.06Z"/><path class="cls-1" d="M145.28,107.72h-6.61a.47.47,0,0,1,0-.94h6.61a.47.47,0,0,1,0,.94Z"/><path class="cls-1" d="M145.28,114.36h-6.61a.48.48,0,0,1,0-1h6.61a.48.48,0,0,1,0,1Z"/><path class="cls-1" d="M145.28,121h-6.61a.48.48,0,0,1,0-1h6.61a.48.48,0,0,1,0,1Z"/><path class="cls-1" d="M145.28,127.65h-6.61a.48.48,0,0,1,0-1h6.61a.48.48,0,1,1,0,1Z"/><path class="cls-1" d="M98.61,50.33a.47.47,0,0,1-.46-.46.46.46,0,0,1,.46-.46.45.45,0,0,1,.46.46A.46.46,0,0,1,98.61,50.33Zm-3.17,0H51a.48.48,0,0,1,0-1H95.44a.48.48,0,1,1,0,1Z"/><path class="cls-1" d="M41.86,67.84H1.75a.48.48,0,0,1,0-1H41.86a.48.48,0,0,1,0,1Z"/><path class="cls-1" d="M150.74,67.84h-40.1a.48.48,0,0,1,0-1h40.1a.48.48,0,0,1,0,1Z"/><path class="cls-1" d="M39.66,101.06H13.74a.48.48,0,0,1,0-1H39.66a.48.48,0,0,1,0,1Z"/><path class="cls-1" d="M138.67,101.06H112.84a.49.49,0,0,1-.48-.48.48.48,0,0,1,.48-.47h25.83a.47.47,0,0,1,.48.47A.48.48,0,0,1,138.67,101.06Z"/><path class="cls-1" d="M98.61,67.84a.47.47,0,0,1-.46-.46.46.46,0,0,1,.46-.46.45.45,0,0,1,.46.46A.46.46,0,0,1,98.61,67.84Zm-3.17,0H51a.48.48,0,0,1,0-1H95.44a.48.48,0,1,1,0,1Z"/><path class="cls-1" d="M98.61,66.27a.46.46,0,0,1-.46-.46.47.47,0,0,1,.46-.46.46.46,0,0,1,.46.46A.45.45,0,0,1,98.61,66.27Zm-3.17,0H51a.48.48,0,0,1,0-1H95.44a.48.48,0,1,1,0,1Z"/><path class="cls-1" d="M107.19,9.71a.46.46,0,0,1-.46-.46,29.72,29.72,0,0,0-.22-3.66,8.33,8.33,0,0,0-.26-1.32,5.8,5.8,0,0,0-.2.92,27.33,27.33,0,0,0-.27,4,.48.48,0,0,1-.48.48.47.47,0,0,1-.47-.48,28,28,0,0,1,.22-3.77,4.94,4.94,0,0,1,.64-2.23.74.74,0,0,1,.56-.3.76.76,0,0,1,.57.3,1.86,1.86,0,0,1,.25.46A6.71,6.71,0,0,1,107.39,5a26.78,26.78,0,0,1,.28,4.2.46.46,0,0,1-.44.48Z"/><path class="cls-1" d="M47.7,9.71a.46.46,0,0,1-.46-.46,25.29,25.29,0,0,0-.19-3.37,8.78,8.78,0,0,0-.39-1.76,5.81,5.81,0,0,0-.28,1.09,23.68,23.68,0,0,0-.32,4,.46.46,0,0,1-.46.46.47.47,0,0,1-.46-.46,25.1,25.1,0,0,1,.26-3.78,4.82,4.82,0,0,1,.71-2.24.76.76,0,0,1,.57-.29.82.82,0,0,1,.58.28,2,2,0,0,1,.28.46A6.28,6.28,0,0,1,47.91,5a25.77,25.77,0,0,1,.31,4.21.47.47,0,0,1-.45.47Z"/></g></g></g></g></svg>