<svg xmlns="http://www.w3.org/2000/svg" viewBox="0 0 331.24 292.15"><defs><style>.cls-1{fill:none;stroke:#c91b41;stroke-miterlimit:10;stroke-width:0.75px;}</style></defs><g id="Layer_2" data-name="Layer 2"><g id="Layer_1-2" data-name="Layer 1"><path class="cls-1" d="M315.74,291.77H236.12a1,1,0,0,1,0-2.06H314.7V273.87a1,1,0,1,1,2.06,0v16.87a1,1,0,0,1-1,1Zm-86.51,0a1,1,0,1,1,1-1A1,1,0,0,1,229.23,291.77Zm-6.89,0H125.85a1,1,0,0,1,0-2.06h96.49a1,1,0,0,1,0,2.06Zm-103.38,0a1,1,0,1,1,1-1A1,1,0,0,1,119,291.77Zm-6.89,0H15.59a1,1,0,0,1-.74-.3,1,1,0,0,1-.3-.73v-88.2a1,1,0,1,1,2.07,0v87.17h95.45a1,1,0,0,1,0,2.06ZM315.74,268a1,1,0,1,1,1-1A1,1,0,0,1,315.74,268Zm0-6.89a1,1,0,0,1-1-1V163.6a1,1,0,0,1,2.07,0v96.48A1,1,0,0,1,315.74,261.12ZM15.59,196.68a1,1,0,1,1,0-2.07,1,1,0,0,1,0,2.07Zm0-6.89a1,1,0,0,1-1-1v-27.9a1,1,0,0,1,.3-.73,1.09,1.09,0,0,1,.74-.3H84.17a1,1,0,1,1,0,2.06H16.62v26.87A1,1,0,0,1,15.59,189.79Zm296-27.91a1,1,0,1,1,1-1A1,1,0,0,1,311.6,161.88Zm-6.89,0H208.22a1,1,0,0,1,0-2.06h96.49a1,1,0,1,1,0,2.06Zm-103.38,0a1,1,0,1,1,1-1A1,1,0,0,1,201.33,161.88Zm-6.89,0H98a1,1,0,1,1,0-2.06h96.48a1,1,0,0,1,0,2.06Zm-103.38,0a1,1,0,1,1,1-1A1,1,0,0,1,91.06,161.88Z"/><path class="cls-1" d="M229,161.88a1,1,0,0,1,0-2.06h93.2l.55-1.69a1,1,0,0,1,2,.62l-.77,2.42a1,1,0,0,1-1,.71H229Zm-6.89,0a1,1,0,1,1,1-1A1,1,0,0,1,222.06,161.88Zm-6.89,0H118.69a1,1,0,1,1,0-2.06h96.48a1,1,0,0,1,0,2.06Zm-103.38,0a1,1,0,1,1,1-1A1,1,0,0,1,111.79,161.88Zm-6.89,0H8.42a1,1,0,0,1-1-.71l-7-21.65a1,1,0,0,1,.14-.92,1,1,0,0,1,.84-.43H63.06a1,1,0,1,1,0,2.07H2.84l6.33,19.58H104.9a1,1,0,1,1,0,2.06Zm135.49-7.24H220.44a1,1,0,0,1-.73-.3,1.06,1.06,0,0,1-.3-.73V140.24h-61.1a1,1,0,1,1,0-2.07h62.13a1,1,0,0,1,1,1v13.37h18.91a1,1,0,0,1,0,2.07Zm-129.51,0H90.93a1,1,0,0,1-.73-.3,1.05,1.05,0,0,1-.29-.73V140.24H76.85a1,1,0,1,1,0-2.07H90.93a1.05,1.05,0,0,1,.74.3,1.06,1.06,0,0,1,.3.73v13.37h17.88V139.2a1.06,1.06,0,0,1,.3-.73,1.08,1.08,0,0,1,.73-.3h33.64a1,1,0,1,1,0,2.07h-32.6v13.37a1.06,1.06,0,0,1-.3.73A1,1,0,0,1,110.88,154.64Zm214.9-1.73a.86.86,0,0,1-.32,0,1,1,0,0,1-.67-1.3,1.06,1.06,0,0,1,1.3-.67,1,1,0,0,1-.31,2Zm-85.39-5.15a1,1,0,1,1,0-2.07,1,1,0,0,1,0,2.07Zm87.49-1.41a.78.78,0,0,1-.26,0h-.06a1,1,0,0,1-.71-1,1.1,1.1,0,0,1,0-.31l1.53-4.76H241.34a1,1,0,0,1-1,.62,1,1,0,0,1-1-1v-.63a1,1,0,0,1,.31-.73,1,1,0,0,1,.73-.3h89.45a1,1,0,0,1,.83.43,1,1,0,0,1,.15.92l-2,6.11A1,1,0,0,1,327.88,146.35Zm-176.46-6.11a1,1,0,1,1,0-2.07,1,1,0,0,1,0,2.07Zm-81.47,0a1,1,0,1,1,1-1A1,1,0,0,1,70,140.24Z"/><path class="cls-1" d="M260.78,133a1,1,0,1,1,0-2.06H314.7V104.1H303.1a1,1,0,0,1,0-2.06h12.64a1.06,1.06,0,0,1,.73.3,1,1,0,0,1,.3.73V132a1,1,0,0,1-.3.73,1.06,1.06,0,0,1-.73.3ZM165,133a1,1,0,1,1,0-2.06h54.41v-6.21a1,1,0,0,1,1-1h19.95a1,1,0,0,1,.73.31,1,1,0,0,1,.3.73v6.21H247a1,1,0,0,1,0,2.06h-6.61a1,1,0,0,1-.73-.3,1,1,0,0,1-.31-.73v-6.21H221.48V132a1,1,0,0,1-.31.73,1,1,0,0,1-.73.3Zm-95.78,0a1,1,0,1,1,0-2.06H89.9v-6.21a1,1,0,0,1,.3-.73,1,1,0,0,1,.73-.31h19.95a1.05,1.05,0,0,1,.74.31,1,1,0,0,1,.3.73v6.21h39.3a1,1,0,0,1,0,2.06H110.88a1.08,1.08,0,0,1-.73-.3,1,1,0,0,1-.3-.73v-6.21H92V132a1,1,0,0,1-.3.73,1.05,1.05,0,0,1-.74.3Zm184.67,0a1,1,0,1,1,1-1A1,1,0,0,1,253.89,133Zm-95.78,0a1,1,0,1,1,1-1A1,1,0,0,1,158.11,133Zm-95.78,0a1,1,0,1,1,1-1A1,1,0,0,1,62.33,133Zm-6.9,0H15.59a1.09,1.09,0,0,1-.74-.3,1,1,0,0,1-.3-.73V103.07a1,1,0,0,1,.3-.73,1.09,1.09,0,0,1,.74-.3H90.93a1.05,1.05,0,0,1,.74.3,1,1,0,0,1,.3.73v9.79h9.28a1,1,0,0,1,0,2.06H90.93a1.06,1.06,0,0,1-.73-.3,1,1,0,0,1-.3-.73V104.1H16.62v26.83H55.43a1,1,0,1,1,0,2.06Zm185-18.07H220.44a1.06,1.06,0,0,1-.73-.3,1,1,0,0,1-.3-.73V104.1h-4.93a1,1,0,1,1,0-2.06h6a1,1,0,0,1,.73.3,1,1,0,0,1,.31.73v9.79h17.87v-9.79a1,1,0,0,1,.31-.73,1,1,0,0,1,.73-.3h48.93a1,1,0,0,1,0,2.06h-47.9v9.79a1,1,0,0,1-1,1Zm-132.25,0a1,1,0,1,1,1-1A1,1,0,0,1,108.14,114.92Zm2.74-4.15a1,1,0,0,1-1-1v-6.67a1,1,0,0,1,.3-.73,1.08,1.08,0,0,1,.73-.3H200.7a1,1,0,1,1,0,2.06H111.92v5.63h0A1,1,0,0,1,110.88,110.77Zm185.33-6.67a1,1,0,1,1,1-1A1,1,0,0,1,296.21,104.1Zm-88.62,0a1,1,0,1,1,1-1A1,1,0,0,1,207.59,104.1Z"/><path class="cls-1" d="M90.93,104.1H15.75a1,1,0,0,1-.76-.33L8.31,96.53a1,1,0,0,1-.18-1.12,1,1,0,0,1,.95-.62h54a1,1,0,0,1,1,1v0a1,1,0,0,1-1,1H11.44L16.21,102h73.7V96.86h-13a1,1,0,0,1,0-2.07H90.93a1,1,0,0,1,1,1v7.24a1,1,0,0,1-.3.73A1.07,1.07,0,0,1,90.93,104.1ZM70,96.86a1,1,0,1,1,1-1A1,1,0,0,1,70,96.86Z"/><path class="cls-1" d="M214.26,104.1a1,1,0,1,1,1-1A1,1,0,0,1,214.26,104.1Zm-6.89,0H110.88a1.06,1.06,0,0,1-.73-.3,1,1,0,0,1-.3-.73V95.83a1,1,0,0,1,1-1h5.83a1,1,0,0,1,0,2.07h-4.79V102h95.45a1,1,0,1,1,0,2.06Zm13.07-.71a1,1,0,0,1-1-1v-5.5H130.49a1,1,0,0,1,0-2.07h89.95a1.06,1.06,0,0,1,1,1v6.52h0A1,1,0,0,1,220.44,103.39ZM123.6,96.86a1,1,0,1,1,1-1A1,1,0,0,1,123.6,96.86Z"/><path class="cls-1" d="M315.58,104.1H240.39a1,1,0,0,1-.73-.3,1,1,0,0,1-.31-.73V95.83a1,1,0,0,1,.31-.73,1,1,0,0,1,.73-.31H297a1,1,0,0,1,0,2.07h-55.6V102h73.7l4.77-5.18H310.8a1,1,0,0,1,0-2.07h11.45a1,1,0,0,1,.76,1.73l-6.67,7.25A1.06,1.06,0,0,1,315.58,104.1Zm-11.67-7.24a1,1,0,1,1,1-1A1,1,0,0,1,303.91,96.86Z"/><path class="cls-1" d="M232.07,89.7a1,1,0,0,1,0-2.07H314.7V75.85a1,1,0,1,1,2.07,0V88.67a1,1,0,0,1-.3.73,1.06,1.06,0,0,1-.73.3Zm-6.89,0a1,1,0,1,1,1-1A1,1,0,0,1,225.18,89.7Zm-6.89,0H121.8a1,1,0,0,1,0-2.07h96.49a1,1,0,0,1,0,2.07Zm-103.38,0a1,1,0,1,1,1-1A1,1,0,0,1,114.91,89.7Zm-6.89,0H15.59a1,1,0,0,1-1-1V84.61a1,1,0,1,1,2.07,0v3H108a1,1,0,0,1,0,2.07Zm129.73-7.24H223.08a1,1,0,0,1-.73-.31,1,1,0,0,1-.3-.73V75.21h-.41a1,1,0,1,1,0-2.06h1.44a1,1,0,0,1,.73.29,1,1,0,0,1,.31.74v6.21h12.6V74.18a1.05,1.05,0,0,1,.3-.74,1,1,0,0,1,.73-.29h65.88a1,1,0,1,1,0,2.06H238.78v6.21a1,1,0,0,1-1,1ZM15.59,75.21a1,1,0,1,1,0-2.06h78a1,1,0,0,1,.73.29,1,1,0,0,1,.31.74v6.21h10.22a1,1,0,0,1,0,2.07H93.57a1,1,0,0,1-.73-.31,1,1,0,0,1-.3-.73V75.21M108.24,79a1,1,0,1,1,1-1A1,1,0,0,1,108.24,79Zm-92.65-.23a1,1,0,1,1,1-1A1,1,0,0,1,15.59,78.75Zm294.93-3.54a1,1,0,1,1,0-2.06,1,1,0,1,1,0,2.06Zm-95.78,0a1,1,0,1,1,1-1A1,1,0,0,1,214.74,75.21Zm-6.89,0H111.37a1,1,0,1,1,0-2.06h96.48a1,1,0,1,1,0,2.06Z"/><path class="cls-1" d="M201.24,291.77h-70.9a1,1,0,0,1-.73-.3,1,1,0,0,1-.3-.73c0-.51,0-1,0-1.54v-.29a1,1,0,0,1,.3-.73,1.07,1.07,0,0,1,.73-.31,1,1,0,0,1,1,1v.8H200.2c0-4.86,0-9.53.08-14,0-3,.05-5.86.06-8.68a1,1,0,1,1,2.07,0c0,2.79,0,5.6-.06,8.57,0,4.88-.08,9.93-.08,15.18a1,1,0,0,1-.3.73A1,1,0,0,1,201.24,291.77Zm-70.94-8.72h0a1,1,0,0,1-1-1,1,1,0,0,1,1-1h0a1,1,0,0,1,1,1,1,1,0,0,1-.3.73A1,1,0,0,1,130.3,283.05Zm-.1-6.89h0a1,1,0,0,1-1-1h0q0-1.75-.06-3.48c-.09-5.66-.19-11-.19-16.16,0-6.05.13-10.94.41-15.37a1,1,0,0,1,1-1h5.73v-5.1h-5.15a1,1,0,0,1-.77-.34,1,1,0,0,1-.26-.81,78.46,78.46,0,0,1,4.87-20.74A51.28,51.28,0,0,1,146,194.94a1.06,1.06,0,0,1,1.46,0,1,1,0,0,1,0,1.46c-8.74,8.87-13.49,19.86-15.42,35.63h5a1,1,0,0,1,1,1v7.16a1,1,0,0,1-.3.73,1,1,0,0,1-.73.31h-5.79c-.23,4.14-.34,8.67-.34,14.26,0,5.12.09,10.45.19,16.08,0,1.16,0,2.34.06,3.53h0v0A1,1,0,0,1,130.2,276.16Zm71.19-15h0a1,1,0,1,1,1-1A1,1,0,0,1,201.39,261.12Zm-.06-6.88h0a1,1,0,0,1-1-1c-.08-4.46-.25-8.39-.5-12h-5.54a1.06,1.06,0,0,1-1-1V233a1,1,0,0,1,.31-.73,1,1,0,0,1,.73-.3h4.56c-3.31-23.41-12.92-37.43-33.18-48.35a81.42,81.42,0,0,0-7.56,4.28,1.06,1.06,0,0,1-1.43-.32,1,1,0,0,1-.16-.55,1,1,0,0,1,.48-.87,86.83,86.83,0,0,1,8.22-4.63,1.09,1.09,0,0,1,1,0c11.25,5.94,19.45,13.08,25.08,21.84,5.09,7.9,8.19,17.12,9.74,29l.08.38a1,1,0,0,1-.22.86,1,1,0,0,1-.8.37h-4.73v5.1h5.48a1,1,0,0,1,1,1c.29,3.89.47,8.16.57,13.06a1,1,0,0,1-1,1.05ZM151.88,192.1a1,1,0,0,1-.8-.4,1,1,0,0,1-.22-.75,1,1,0,0,1,.38-.69,1,1,0,1,1,.64,1.84Z"/><path class="cls-1" d="M137.1,241.24H115.67a1.06,1.06,0,0,1-1-1V233a1,1,0,0,1,.31-.73,1,1,0,0,1,.73-.3H137.1a1,1,0,0,1,.73.3,1,1,0,0,1,.3.73v7.16a1,1,0,0,1-.3.73A1,1,0,0,1,137.1,241.24Zm-20.4-2.07h19.37v-5.1H116.7Z"/><path class="cls-1" d="M215.66,241.24H194.23a1.06,1.06,0,0,1-1-1V233a1,1,0,0,1,1-1h21.43a1,1,0,0,1,.73.3,1,1,0,0,1,.3.73v7.16a1,1,0,0,1-.3.73A1,1,0,0,1,215.66,241.24Zm-20.4-2.07h19.37v-5.1H195.26Z"/><path class="cls-1" d="M115.67,270.13H86.15a1,1,0,0,1-1-1v-55a1,1,0,1,1,2.06,0v53.94h27.45V202.12a1,1,0,1,1,2.07,0v67a1,1,0,0,1-.3.73A1,1,0,0,1,115.67,270.13ZM86.15,208.26a1,1,0,1,1,1-1A1,1,0,0,1,86.15,208.26Zm0-6.89a1,1,0,0,1-1-1V160.85a1,1,0,0,1,1-1h29.52a1,1,0,0,1,1,1v27.49a1,1,0,0,1-2.07,0V161.88H87.18v38.45A1,1,0,0,1,86.15,201.37Zm29.52-5.11a1,1,0,1,1,1-1A1,1,0,0,1,115.67,196.26Z"/><path class="cls-1" d="M79.89,284.61a1,1,0,0,1-1-1v-7.24a1,1,0,0,1,1-1h41.05a1,1,0,0,1,.73.3,1.09,1.09,0,0,1,.3.74v7.24a1,1,0,0,1-.3.73,1,1,0,0,1-.73.3h-41Zm1-2.07h39v-5.17h-39Z"/><path class="cls-1" d="M118.64,161.88H83.19a1,1,0,0,1-.73-.3,1,1,0,0,1-.31-.73v-7.24a1,1,0,0,1,.31-.73,1,1,0,0,1,.73-.31h35.45a1,1,0,0,1,.73.31,1,1,0,0,1,.29.73v7.24a1,1,0,0,1-.29.73A1.06,1.06,0,0,1,118.64,161.88Zm-34.42-2.06H117.6v-5.18H84.22Z"/><path class="cls-1" d="M90.94,154.64a1,1,0,0,1-1-1,1,1,0,0,0,0-1.2V124.72a1,1,0,0,1,1-1h19.94a1,1,0,0,1,1,1v28.89a1,1,0,0,1-1,1H90.94Zm1-28.89v26.66a.86.86,0,0,1,0,.16h17.89V125.75Z"/><path class="cls-1" d="M115.67,89.7H87.06a1,1,0,0,1-.73-.3,1.08,1.08,0,0,1-.3-.73V81.42a1,1,0,0,1,1-1h28.61a1,1,0,0,1,1,1v7.25a1.06,1.06,0,0,1-.3.73A1,1,0,0,1,115.67,89.7ZM88.09,87.63h26.54V82.46H88.09Z"/><path class="cls-1" d="M89.9,88.67a1,1,0,0,1,1-1h19.94a1.09,1.09,0,0,1,.74.3,1.07,1.07,0,0,1,.3.74v25.22a1,1,0,0,1-.3.73,1,1,0,0,1-.74.3H90.94a1.07,1.07,0,0,1-.74-.3,1,1,0,0,1-.3-.73m2.07-1h17.88V89.7H92Z"/><path class="cls-1" d="M108.24,82.46H93.57a1,1,0,0,1,0-2.07h13.64v-34H94.61v30a1,1,0,1,1-2.07,0V45.37a1,1,0,0,1,1-1h14.67a1.11,1.11,0,0,1,.74.29,1.09,1.09,0,0,1,.3.74V81.42a1,1,0,0,1-1,1Z"/><path class="cls-1" d="M108,42.74H93.82a1,1,0,0,1-.73-.3,1.06,1.06,0,0,1-.3-.73v-18a1,1,0,0,1,1-1H108a1.06,1.06,0,0,1,.73.3,1,1,0,0,1,.3.73v18a1,1,0,0,1-.3.73A1.06,1.06,0,0,1,108,42.74ZM94.85,40.67H107V24.75H94.85Z"/><path class="cls-1" d="M115.67,125.75H86.15a1,1,0,0,1-.73-.3,1.06,1.06,0,0,1-.3-.73v-7.16a1,1,0,0,1,.31-.73,1,1,0,0,1,.72-.31h29.52a1,1,0,0,1,.73.31,1,1,0,0,1,.3.73v7.16a1.06,1.06,0,0,1-.3.73A1,1,0,0,1,115.67,125.75Zm-28.49-2.07h27.45v-5.09H87.18Z"/><path class="cls-1" d="M113.69,46.4H89a1.09,1.09,0,0,1-.74-.3,1,1,0,0,1-.3-.73V41.71a1.07,1.07,0,0,1,.3-.74,1.09,1.09,0,0,1,.74-.3h24.73a1,1,0,0,1,.73.3,1.07,1.07,0,0,1,.3.74v3.66a1.06,1.06,0,0,1-.3.73A1,1,0,0,1,113.69,46.4ZM90,44.34h22.67v-1.6H90Z"/><path class="cls-1" d="M115.67,118.59H86.16a1.05,1.05,0,0,1-.74-.3,1.08,1.08,0,0,1-.3-.73v-3.67a1,1,0,0,1,1-1h29.51a1,1,0,0,1,1,1v3.67a1.06,1.06,0,0,1-.3.73A1,1,0,0,1,115.67,118.59Zm-28.48-2.07h27.44v-1.6H87.19Z"/><path class="cls-1" d="M111.63,24.75H91a1.09,1.09,0,0,1-.74-.3,1,1,0,0,1-.3-.73V20.06a1,1,0,0,1,.3-.73A1.05,1.05,0,0,1,91,19h20.61a1,1,0,0,1,1,1v3.66a1.06,1.06,0,0,1-.3.73A1,1,0,0,1,111.63,24.75ZM92.05,22.68h18.54V21.09H92.05Z"/><path class="cls-1" d="M118.64,158.22H83.19a1,1,0,0,1-.73-.3,1,1,0,0,1-.31-.73v-3.58a1,1,0,0,1,.31-.73,1,1,0,0,1,.73-.31h35.45a1,1,0,0,1,.72.31,1,1,0,0,1,.3.73v3.58a1,1,0,0,1-.3.73A1,1,0,0,1,118.64,158.22Zm-34.42-2.06H117.6v-1.52H84.22Z"/><path class="cls-1" d="M93.57,270.13H86.15a1,1,0,0,1-1-1V258.31a1,1,0,1,1,2.06,0v9.75h5.36V180a1,1,0,0,1,2.07,0v89.07a1,1,0,0,1-.31.73A1,1,0,0,1,93.57,270.13Zm-7.42-17.68a1,1,0,1,1,1-1A1,1,0,0,1,86.15,252.45Zm0-6.89a1,1,0,0,1-1-1V160.85a1,1,0,0,1,1-1h7.42a1,1,0,0,1,.73.3,1,1,0,0,1,.31.73v5.39a1,1,0,0,1-2.07,0v-4.36H87.18v82.64A1,1,0,0,1,86.15,245.56Zm7.42-71.4a1,1,0,1,1,0-2.06,1,1,0,1,1,0,2.06Z"/><path class="cls-1" d="M101.32,270.13H86.15a1,1,0,0,1-1-1V242.81a1,1,0,1,1,2.06,0v25.25h13.11V187.78a1,1,0,1,1,2.06,0v81.31a1,1,0,0,1-.29.73A1,1,0,0,1,101.32,270.13ZM86.15,237a1,1,0,1,1,1-1A1,1,0,0,1,86.15,237Zm0-6.89a1,1,0,0,1-1-1V160.85a1,1,0,0,1,1-1h15.17a1.09,1.09,0,0,1,.74.3,1.06,1.06,0,0,1,.29.73V174a1,1,0,1,1-2.06,0V161.88H87.18V229A1,1,0,0,1,86.15,230.06Zm15.17-48.14a1,1,0,1,1,1-1A1,1,0,0,1,101.32,181.92Z"/><path class="cls-1" d="M108.49,270.13H86.15a1,1,0,0,1-1-1V228.46a1,1,0,0,1,2.06,0v39.6h20.28V195a1,1,0,1,1,2.07,0v74.14a1.06,1.06,0,0,1-1,1ZM86.15,222.61a1,1,0,1,1,1-1A1,1,0,0,1,86.15,222.61Zm0-6.89a1,1,0,0,1-1-1V160.85a1,1,0,0,1,1-1h22.34a1,1,0,0,1,.73.3,1,1,0,0,1,.31.73v20.32a1,1,0,0,1-2.07,0V161.88H87.18v52.8A1,1,0,0,1,86.15,215.72Zm22.34-26.63a1,1,0,1,1,1-1A1,1,0,0,1,108.49,189.09Z"/><path class="cls-1" d="M101.32,154.64H90.93a1,1,0,0,1-.73-.3,1.06,1.06,0,0,1-.3-.73V124.72a1,1,0,0,1,1-1h10.39a1,1,0,0,1,.73.31,1,1,0,0,1,.3.73v28.89a1,1,0,0,1-.3.73A1,1,0,0,1,101.32,154.64ZM92,152.57h8.32V125.75H92Z"/><path class="cls-1" d="M110.88,114.92h-9.56a1,1,0,0,1-1-1V88.67a1.07,1.07,0,0,1,.3-.74,1,1,0,0,1,.73-.3h9.56a1.09,1.09,0,0,1,.74.3,1.07,1.07,0,0,1,.3.74v25.22a1,1,0,0,1-.3.73A1,1,0,0,1,110.88,114.92Zm-8.52-2.06h7.49V89.7h-7.49Z"/><path class="cls-1" d="M110.88,114.92H90.94a1.07,1.07,0,0,1-.74-.3,1,1,0,0,1-.3-.73v-5.58a1.08,1.08,0,0,1,.3-.73,1.07,1.07,0,0,1,.74-.3h19.94a1,1,0,0,1,1,1v5.58a1,1,0,0,1-.3.73A1,1,0,0,1,110.88,114.92ZM92,112.86h17.88v-3.51H92Z"/><path class="cls-1" d="M110.88,154.64H90.93a1,1,0,0,1-.73-.3,1.06,1.06,0,0,1-.3-.73v-7.25a1,1,0,0,1,1-1h19.95a1,1,0,0,1,1,1v7.25a1.06,1.06,0,0,1-.3.73A1,1,0,0,1,110.88,154.64ZM92,152.57h17.88V147.4H92Z"/><path class="cls-1" d="M100.91,82.46H93.57a1,1,0,0,1-.73-.31,1,1,0,0,1-.3-.73V45.37a1.09,1.09,0,0,1,.3-.74,1,1,0,0,1,.73-.3h7.34a1,1,0,0,1,1,1V81.42a1,1,0,0,1-.31.73A1,1,0,0,1,100.91,82.46Zm-6.3-2.07h5.27v-34H94.61Z"/><path class="cls-1" d="M108.24,82.46H93.57a1,1,0,0,1-.73-.31,1,1,0,0,1-.3-.73V59.77a1,1,0,0,1,.3-.73,1,1,0,0,1,.73-.3h14.67a1,1,0,0,1,1,1V81.42a1,1,0,0,1-1,1ZM94.61,80.39h12.6V60.8H94.61Z"/><path class="cls-1" d="M101.32,42.74h-7.5a1,1,0,0,1-.73-.3,1.08,1.08,0,0,1-.3-.73v-18a1.06,1.06,0,0,1,.3-.73,1,1,0,0,1,.73-.31h7.5a1.05,1.05,0,0,1,.74.31,1.08,1.08,0,0,1,.29.73v18a1,1,0,0,1-1,1Zm-6.47-2.07h5.44V24.75H94.85Z"/><path class="cls-1" d="M108,42.74H93.82a1,1,0,0,1-.73-.3,1.06,1.06,0,0,1-.3-.73V35.63a1,1,0,0,1,.3-.73,1,1,0,0,1,.73-.31H108a1,1,0,0,1,1,1v6.08a1,1,0,0,1-.3.73A1.06,1.06,0,0,1,108,42.74ZM94.85,40.67H107v-4H94.85Z"/><path class="cls-1" d="M108,42.74H93.82a1,1,0,0,1-.73-.3,1.06,1.06,0,0,1-.3-.73V30.88a1,1,0,0,1,.3-.73,1,1,0,0,1,.73-.31H108a1,1,0,0,1,.73.31,1,1,0,0,1,.3.73V41.71a1,1,0,0,1-.3.73A1.06,1.06,0,0,1,108,42.74ZM94.85,40.67H107V31.91H94.85Z"/><path class="cls-1" d="M245.17,270.13H215.66a1,1,0,0,1-1-1v-55a1,1,0,1,1,2.06,0v53.94h27.45V202.12a1,1,0,0,1,2.06,0v67a1,1,0,0,1-1,1Zm-29.51-61.87a1,1,0,1,1,1-1A1,1,0,0,1,215.66,208.26Zm0-6.89a1,1,0,0,1-1-1V160.85a1,1,0,0,1,.3-.73,1,1,0,0,1,.73-.3h29.51a1.07,1.07,0,0,1,.74.3,1,1,0,0,1,.29.73v27.48h0a1,1,0,0,1-2.06,0V161.88H216.69v38.45A1,1,0,0,1,215.66,201.37Zm29.51-5.11a1,1,0,1,1,1-1A1,1,0,0,1,245.17,196.26Z"/><path class="cls-1" d="M209.4,284.61a1,1,0,0,1-1-1v-7.24a1.09,1.09,0,0,1,.3-.74,1.07,1.07,0,0,1,.74-.3h41a1,1,0,0,1,.73.3,1.07,1.07,0,0,1,.3.74v7.24a1,1,0,0,1-1,1Zm1-2.07h39v-5.17h-39Z"/><path class="cls-1" d="M248.14,161.88H212.69a1.06,1.06,0,0,1-.73-.3,1,1,0,0,1-.3-.73v-7.24a1,1,0,0,1,.3-.73,1,1,0,0,1,.73-.31h35.45a1,1,0,0,1,.73.31,1,1,0,0,1,.3.73v7.24a1,1,0,0,1-1,1Zm-34.42-7.24v5.18h33.39v-5.18Z"/><path class="cls-1" d="M240.39,154.64H220.44a1,1,0,0,1-1-1,1,1,0,0,0,0-1.2V124.72a1,1,0,0,1,1-1h19.95a1,1,0,0,1,1,1v28.89a1,1,0,0,1-1,1Zm-18.93-2.07h17.89V125.75H221.48v26.66A.78.78,0,0,1,221.46,152.57Z"/><path class="cls-1" d="M245.17,89.7H216.56a1,1,0,0,1-1-1V81.42a1,1,0,0,1,.3-.73,1.06,1.06,0,0,1,.73-.3h28.61a1,1,0,0,1,.73.3,1,1,0,0,1,.3.73v7.25a1,1,0,0,1-1,1ZM217.6,87.63h26.54V82.46H217.6Z"/><path class="cls-1" d="M240.39,114.92H220.44a1.06,1.06,0,0,1-.73-.3,1,1,0,0,1-.3-.73V88.67a1,1,0,0,1,1-1h19.95a1,1,0,0,1,.73.3,1,1,0,0,1,.3.74v25.22a1,1,0,0,1-1,1Zm-18.91-2.06h17.87V89.7H221.48Z"/><path class="cls-1" d="M237.75,82.46H223.08a1,1,0,0,1,0-2.07h13.64v-34h-12.6V76.46a1,1,0,0,1-2.07,0V45.37a1,1,0,0,1,1-1h14.67a1,1,0,0,1,1,1V81.42a1,1,0,0,1-1,1Z"/><path class="cls-1" d="M237.51,42.74H223.33a1,1,0,0,1-.73-.3,1.06,1.06,0,0,1-.3-.73v-18a1,1,0,0,1,.3-.73,1,1,0,0,1,.73-.3h14.18a1,1,0,0,1,.73.3,1.06,1.06,0,0,1,.3.73v18a1,1,0,0,1-1,1Zm-13.15-2.07h12.11V24.75H224.36Z"/><path class="cls-1" d="M245.17,125.75H215.66a1,1,0,0,1-.73-.3,1.06,1.06,0,0,1-.3-.73v-7.16a1,1,0,0,1,.3-.73,1,1,0,0,1,.73-.31h29.51a1,1,0,0,1,1,1v7.16a1,1,0,0,1-1,1Zm-28.48-2.07h27.45v-5.09H216.69Z"/><path class="cls-1" d="M243.19,46.4H218.46a1,1,0,0,1-1-1V41.71a1.09,1.09,0,0,1,.3-.74,1,1,0,0,1,.73-.3h24.73a1,1,0,0,1,1,1v3.66a1,1,0,0,1-1,1ZM219.5,44.33h22.66V42.74H219.5Z"/><path class="cls-1" d="M245.17,118.59H215.66a1,1,0,0,1-.73-.3,1.08,1.08,0,0,1-.3-.73v-3.67a1,1,0,0,1,1-1h29.51a1,1,0,0,1,.73.3,1,1,0,0,1,.3.73v3.67a1,1,0,0,1-1,1Zm-28.48-3.67v1.6h27.45v-1.6Z"/><path class="cls-1" d="M241.13,24.75h-20.6a1,1,0,0,1-.73-.3,1,1,0,0,1-.31-.73V20.06a1.06,1.06,0,0,1,1-1h20.6a1.06,1.06,0,0,1,1,1v3.66a1,1,0,0,1-.31.73A1,1,0,0,1,241.13,24.75Zm-19.57-2.06H240.1v-1.6H221.56Z"/><path class="cls-1" d="M248.14,158.22H212.69a1,1,0,0,1-.73-.3,1,1,0,0,1-.3-.73v-3.58a1,1,0,0,1,.3-.73,1,1,0,0,1,.73-.31h35.45a1,1,0,0,1,.73.31,1,1,0,0,1,.3.73v3.58a1,1,0,0,1-.3.73A1,1,0,0,1,248.14,158.22Zm-34.42-2.06h33.39v-1.52H213.72Z"/><path class="cls-1" d="M223.08,270.13h-7.42a1,1,0,0,1-1-1V258.3a1,1,0,1,1,2.06,0v9.76h5.36V180a1,1,0,0,1,2.07,0v89.06a1,1,0,0,1-.31.73A1,1,0,0,1,223.08,270.13Zm-7.42-17.69a1,1,0,1,1,1-1A1,1,0,0,1,215.66,252.44Zm0-6.88a1,1,0,0,1-1-1V160.85a1,1,0,0,1,.3-.73,1,1,0,0,1,.73-.3h7.42a1,1,0,0,1,.73.3,1,1,0,0,1,.31.73v5.4a1,1,0,0,1-2.07,0v-4.37h-5.36v82.64A1,1,0,0,1,215.66,245.56Zm7.42-71.39a1,1,0,0,1,0-2.07,1,1,0,1,1,0,2.07Z"/><path class="cls-1" d="M230.83,270.13H215.66a1,1,0,0,1-1-1V242.81a1,1,0,1,1,2.06,0v25.25H229.8V187.78a1,1,0,1,1,2.06,0v81.31a1,1,0,0,1-.3.73A1,1,0,0,1,230.83,270.13ZM215.66,237a1,1,0,1,1,1-1A1,1,0,0,1,215.66,237Zm0-6.89a1,1,0,0,1-1-1V160.85a1,1,0,0,1,.3-.73,1,1,0,0,1,.73-.3h15.17a1,1,0,0,1,1,1V174a1,1,0,1,1-2.06,0V161.88H216.69V229A1,1,0,0,1,215.66,230.06Zm15.17-48.14a1,1,0,1,1,1-1A1,1,0,0,1,230.83,181.92Z"/><path class="cls-1" d="M237.67,270.13h-22a1,1,0,0,1-1-1v-40a1,1,0,1,1,2.06,0v38.93h19.95V194.62a1,1,0,0,1,2.07,0v74.47a1,1,0,0,1-.31.73A1,1,0,0,1,237.67,270.13Zm-22-46.86a1,1,0,1,1,1-1A1,1,0,0,1,215.66,223.27Zm0-6.89a1,1,0,0,1-1-1V160.85a1,1,0,0,1,.3-.73,1,1,0,0,1,.73-.3h22a1,1,0,0,1,.73.3,1,1,0,0,1,.31.73v20a1,1,0,0,1-2.07,0v-19H216.69v53.46A1,1,0,0,1,215.66,216.38Zm22-27.62a1,1,0,0,1,0-2.07,1,1,0,1,1,0,2.07Z"/><path class="cls-1" d="M230.83,154.64H220.44a1,1,0,0,1-1-1V124.72a1,1,0,0,1,1-1h10.39a1,1,0,0,1,.73.31,1,1,0,0,1,.3.73v28.89a1.06,1.06,0,0,1-.3.73A1,1,0,0,1,230.83,154.64Zm-9.35-2.07h8.32V125.75h-8.32Z"/><path class="cls-1" d="M240.39,114.92h-9.56a1,1,0,0,1-1-1V88.67a1.07,1.07,0,0,1,.3-.74,1,1,0,0,1,.73-.3h9.56a1,1,0,0,1,.73.3,1,1,0,0,1,.3.74v25.22a1,1,0,0,1-1,1Zm-8.53-2.06h7.49V89.7h-7.49Z"/><path class="cls-1" d="M240.39,114.92H220.44a1.06,1.06,0,0,1-.73-.3,1,1,0,0,1-.3-.73v-5.41a1,1,0,0,1,.3-.73,1.06,1.06,0,0,1,.73-.3h19.95a1,1,0,0,1,.73.3,1,1,0,0,1,.3.73v5.41a1,1,0,0,1-1,1Zm-18.91-2.06h17.87v-3.35H221.48Z"/><path class="cls-1" d="M240.39,154.64H220.44a1,1,0,0,1-1-1v-7.25a1,1,0,0,1,1-1h19.95a1,1,0,0,1,1,1v7.25a1,1,0,0,1-1,1Zm-18.91-2.07h17.87V147.4H221.48Z"/><path class="cls-1" d="M230.42,82.46h-7.34a1,1,0,0,1-.73-.31,1,1,0,0,1-.3-.73V45.37a1,1,0,0,1,1-1h7.34a1,1,0,0,1,1,1V81.42a1,1,0,0,1-.3.73A1,1,0,0,1,230.42,82.46Zm-6.3-2.07h5.26v-34h-5.26Z"/><path class="cls-1" d="M237.75,82.46H223.08a1,1,0,0,1-.73-.31,1,1,0,0,1-.3-.73V59.77a1,1,0,0,1,1-1h14.67a1,1,0,0,1,.74.3,1,1,0,0,1,.3.73V81.42a1,1,0,0,1-1,1Zm-13.63-2.07h12.6V60.8h-12.6Z"/><path class="cls-1" d="M230.83,42.74h-7.5a1,1,0,0,1-.73-.3,1.08,1.08,0,0,1-.3-.73v-18a1,1,0,0,1,.3-.73,1,1,0,0,1,.73-.3h7.5a1,1,0,0,1,.73.3,1.06,1.06,0,0,1,.3.73v18a1.06,1.06,0,0,1-.3.73A1,1,0,0,1,230.83,42.74Zm-6.47-2.07h5.44V24.75h-5.44Z"/><path class="cls-1" d="M237.51,42.74H223.33a1,1,0,0,1-.73-.3,1.06,1.06,0,0,1-.3-.73V35.63a1,1,0,0,1,.3-.73,1,1,0,0,1,.73-.31h14.18a1,1,0,0,1,1,1v6.08a1,1,0,0,1-1,1Zm-13.15-2.07h12.11v-4H224.36Z"/><path class="cls-1" d="M237.51,42.74H223.33a1,1,0,0,1-.73-.3,1.06,1.06,0,0,1-.3-.73V30.88a1,1,0,0,1,.3-.73,1,1,0,0,1,.73-.31h14.18a1,1,0,0,1,.73.31,1,1,0,0,1,.3.73V41.71a1,1,0,0,1-1,1Zm-13.15-2.07h12.11V31.91H224.36Z"/><path class="cls-1" d="M212.15,68.05H115.67a1,1,0,0,1-.73-.3,1,1,0,0,1-.31-.73V58.59a1,1,0,0,1,2.07,0V66h95.45a1,1,0,1,1,0,2.07Zm3.51-3.38a1,1,0,1,1,1-1A1,1,0,0,1,215.66,64.67Zm0-6.89a1,1,0,0,1-1-1V53.56H123.39a1,1,0,1,1,0-2.07h92.27a1,1,0,0,1,.73.3,1.07,1.07,0,0,1,.3.74v4.2h0A1,1,0,0,1,215.66,57.78Zm-99.17-4.22a1,1,0,0,1,0-2.07,1,1,0,1,1,0,2.07Z"/><path class="cls-1" d="M72.72,284.61H44.19a1.06,1.06,0,0,1-.73-.3,1,1,0,0,1-.3-.73v-65a1,1,0,0,1,1-1H56a1,1,0,0,1,1,1,1,1,0,0,1-1,1H45.23v63H71.68v-63h-1.9a1,1,0,0,1,0-2.07h2.94a1,1,0,0,1,1,1v65a1,1,0,0,1-1,1Zm-9.83-65a1,1,0,0,1,0-2.07,1,1,0,0,1,0,2.07Z"/><path class="cls-1" d="M50.46,236.4h0a3.36,3.36,0,0,1,0-6.72h0a3.31,3.31,0,0,1,2.37,1,3.39,3.39,0,0,1-2.38,5.75Zm0-4.65A1.27,1.27,0,0,0,49.18,233a1.31,1.31,0,0,0,.4.91,1.23,1.23,0,0,0,.87.39,1.28,1.28,0,0,0,1.28-1.3A1.21,1.21,0,0,0,50.46,231.75Z"/><path class="cls-1" d="M66.62,236.4h0a3.36,3.36,0,0,1,0-6.72h0a3.36,3.36,0,0,1,0,6.72Zm0-4.65A1.27,1.27,0,0,0,65.34,233a1.3,1.3,0,0,0,.39.91,1.27,1.27,0,0,0,.88.39,1.28,1.28,0,0,0,1.28-1.3A1.21,1.21,0,0,0,66.62,231.75Z"/><path class="cls-1" d="M245.17,270.13h-7.5a1,1,0,0,1-.73-.31,1,1,0,0,1-.3-.73V258.14a1,1,0,0,1,2.07,0v9.92h5.44V180.11a1,1,0,0,1,2.06,0v89a1,1,0,0,1-1,1Zm-7.5-17.85a1,1,0,1,1,1-1A1,1,0,0,1,237.67,252.28Zm0-6.89a1,1,0,0,1-1-1V160.85a1,1,0,0,1,.3-.73,1,1,0,0,1,.73-.3h7.5a1.07,1.07,0,0,1,.74.3,1,1,0,0,1,.29.73v5.47h0a1,1,0,0,1-2.06,0v-4.45h-5.43v82.48A1,1,0,0,1,237.67,245.39Zm7.5-71.14a1,1,0,1,1,1-1A1,1,0,0,1,245.17,174.25Z"/><path class="cls-1" d="M287.05,284.61H258.44a1.06,1.06,0,0,1-.73-.3,1,1,0,0,1-.3-.73v-65a1,1,0,0,1,.3-.73,1.06,1.06,0,0,1,.73-.3h12a1,1,0,0,1,1,1,1,1,0,0,1-1,1h-11v63H286v-63h-1.82a1,1,0,0,1,0-2.07h2.86a1,1,0,0,1,.73.3,1,1,0,0,1,.3.73v65a1,1,0,0,1-.3.73A1,1,0,0,1,287.05,284.61Zm-9.75-65a1,1,0,0,1,0-2.07,1,1,0,0,1,0,2.07Z"/><path class="cls-1" d="M280.7,236.4h0a3.36,3.36,0,0,1,0-6.72h0a3.35,3.35,0,0,1,2.38,1,3.41,3.41,0,0,1,1,2.39A3.37,3.37,0,0,1,280.7,236.4Zm0-4.65a1.28,1.28,0,0,0-.88,2.2,1.25,1.25,0,0,0,.88.39A1.29,1.29,0,0,0,282,233,1.22,1.22,0,0,0,280.7,231.75Z"/><path class="cls-1" d="M264.54,236.4h0a3.36,3.36,0,0,1,0-6.72h0a3.34,3.34,0,0,1,2.37,1,3.41,3.41,0,0,1,1,2.39A3.36,3.36,0,0,1,264.54,236.4Zm0-4.65a1.27,1.27,0,0,0-.88,2.19,1.24,1.24,0,0,0,.88.4,1.29,1.29,0,0,0,1.28-1.3A1.23,1.23,0,0,0,264.54,231.75Z"/><path class="cls-1" d="M129.93,133h-7.18a1,1,0,0,1-1-1V108.31a1.08,1.08,0,0,1,.3-.73,1,1,0,0,1,.73-.3h7.18a1,1,0,0,1,1,1V132a1,1,0,0,1-.3.73A1.06,1.06,0,0,1,129.93,133Zm-6.14-2.06h5.1V109.35h-5.1Z"/><path class="cls-1" d="M137.1,133h-7.17a1,1,0,0,1-.73-.3,1,1,0,0,1-.31-.73V108.31a1,1,0,0,1,.31-.73,1,1,0,0,1,.73-.3h7.17a1,1,0,0,1,.73.3,1.06,1.06,0,0,1,.3.73V132a1,1,0,0,1-1,1ZM131,130.93h5.11V109.35H131Z"/><path class="cls-1" d="M144.19,133H137.1a1,1,0,0,1-1-1V108.31a1.08,1.08,0,0,1,.3-.73,1,1,0,0,1,.73-.3h7.09a1,1,0,0,1,1,1V132a1,1,0,0,1-.31.73A1,1,0,0,1,144.19,133Zm-6.06-2.06h5V109.35h-5Z"/><path class="cls-1" d="M151.36,133h-7.17a1,1,0,0,1-.73-.3,1,1,0,0,1-.3-.73V108.31a1.06,1.06,0,0,1,.3-.73,1,1,0,0,1,.73-.3h7.17a1,1,0,0,1,.73.3,1.06,1.06,0,0,1,.3.73V132a1,1,0,0,1-1,1Zm-6.13-2.06h5.1V109.35h-5.1Z"/><path class="cls-1" d="M158.53,133h-7.17a1,1,0,0,1-1-1V108.31a1.06,1.06,0,0,1,.3-.73,1,1,0,0,1,.73-.3h7.17a1,1,0,0,1,1,1V132a1,1,0,0,1-.31.73A1,1,0,0,1,158.53,133Zm-6.14-2.06h5.11V109.35h-5.11Z"/><path class="cls-1" d="M165.63,133h-7.1a1.06,1.06,0,0,1-.73-.3,1,1,0,0,1-.3-.73V108.31a1.08,1.08,0,0,1,.3-.73,1.06,1.06,0,0,1,.73-.3h7.1a1,1,0,0,1,1,1V132a1,1,0,0,1-.3.73A1,1,0,0,1,165.63,133Zm-6.06-2.06h5V109.35h-5Z"/><path class="cls-1" d="M172.79,133h-7.17a1,1,0,0,1-1-1V108.31a1.06,1.06,0,0,1,.3-.73,1,1,0,0,1,.73-.3h7.17a1,1,0,0,1,.73.3,1,1,0,0,1,.31.73V132a1,1,0,0,1-.31.73A1,1,0,0,1,172.79,133Zm-6.14-2.06h5.11V109.35h-5.11Z"/><path class="cls-1" d="M180,133h-7.18a1.06,1.06,0,0,1-.73-.3,1,1,0,0,1-.3-.73V108.31a1,1,0,0,1,1-1H180a1,1,0,0,1,1,1V132a1,1,0,0,1-.3.73A1.06,1.06,0,0,1,180,133Zm-6.14-2.06h5.1V109.35h-5.1Z"/><path class="cls-1" d="M187.14,133H180a1,1,0,0,1-.73-.3,1,1,0,0,1-.31-.73V108.31a1,1,0,0,1,1-1h7.17a1,1,0,0,1,.73.3,1,1,0,0,1,.3.73V132a1,1,0,0,1-.3.73A1,1,0,0,1,187.14,133ZM181,130.93h5.1V109.35H181Z"/><path class="cls-1" d="M194.23,133h-7.1a1.08,1.08,0,0,1-.73-.3,1,1,0,0,1-.3-.73V108.31a1.06,1.06,0,0,1,.3-.73,1.08,1.08,0,0,1,.73-.3h7.1a1,1,0,0,1,1,1V132a1,1,0,0,1-.3.73A1.06,1.06,0,0,1,194.23,133Zm-6.06-2.06h5V109.35h-5Z"/><path class="cls-1" d="M201.4,133h-7.17a1,1,0,0,1-.73-.3,1,1,0,0,1-.31-.73V108.31a1,1,0,0,1,1-1h7.17a1,1,0,0,1,.73.3,1.06,1.06,0,0,1,.3.73V132a1,1,0,0,1-1,1Zm-6.14-23.64v21.58h5.11V109.35Z"/><path class="cls-1" d="M208.57,133H201.4a1,1,0,0,1-.73-.3,1,1,0,0,1-.3-.73V108.31a1.06,1.06,0,0,1,.3-.73,1,1,0,0,1,.73-.3h7.17a1,1,0,0,1,.73.3,1,1,0,0,1,.3.73V132a1,1,0,0,1-.3.73A1,1,0,0,1,208.57,133Zm-6.14-2.06h5.1V109.35h-5.1Z"/><path class="cls-1" d="M21.36,161.88H17a1,1,0,0,1-1-.93l-1.4-14.49a1.06,1.06,0,0,1,.26-.79,1,1,0,0,1,.77-.34h7.17a1,1,0,0,1,.76.34,1.06,1.06,0,0,1,.27.79L22.39,161A1,1,0,0,1,21.36,161.88Zm-3.43-2.06h2.49l1.2-12.42H16.73Z"/><path class="cls-1" d="M32.08,161.88H27.71a1,1,0,0,1-1-.93l-1.4-14.49a1.06,1.06,0,0,1,.27-.79,1,1,0,0,1,.77-.34h7.17a1,1,0,0,1,.76.34,1.06,1.06,0,0,1,.26.79L33.1,161A1,1,0,0,1,32.08,161.88Zm-3.43-2.06h2.49l1.2-12.42H27.45Z"/><path class="cls-1" d="M42.79,161.88H38.42a1,1,0,0,1-1-.93L36,146.46a1.06,1.06,0,0,1,.26-.79,1,1,0,0,1,.77-.34h7.17a1,1,0,0,1,.77.34,1.06,1.06,0,0,1,.26.79L43.82,161A1,1,0,0,1,42.79,161.88Zm-3.43-2.06h2.49l1.21-12.42h-4.9Z"/><path class="cls-1" d="M53.51,161.88H49.14a1,1,0,0,1-1-.93l-1.4-14.49a1,1,0,0,1,.27-.79,1,1,0,0,1,.76-.34h7.17a1,1,0,0,1,.76.34,1.06,1.06,0,0,1,.27.79L54.54,161A1,1,0,0,1,53.51,161.88Zm-3.43-2.06h2.49l1.2-12.42H48.88Z"/><path class="cls-1" d="M64.23,161.88H59.86a1,1,0,0,1-1-.93l-1.4-14.49a1,1,0,0,1,1-1.13h7.18a1,1,0,0,1,.76.34,1.06,1.06,0,0,1,.26.79L65.25,161A1,1,0,0,1,64.23,161.88Zm-3.43-2.06h2.49l1.2-12.42H59.6Z"/><path class="cls-1" d="M74.94,161.88H70.57a1,1,0,0,1-1-.93l-1.41-14.49a1,1,0,0,1,1-1.13h7.16a1,1,0,0,1,1,1.13L76,161A1,1,0,0,1,74.94,161.88Zm-3.43-2.06H74l1.21-12.42h-4.9Z"/><path class="cls-1" d="M260.5,161.88h-4.36a1,1,0,0,1-1-.93l-1.41-14.48a1.07,1.07,0,0,1,.27-.8,1,1,0,0,1,.77-.34h7.16a1,1,0,0,1,.77.34,1,1,0,0,1,.27.8L261.53,161A1,1,0,0,1,260.5,161.88Zm-3.43-2.06h2.5l1.2-12.42h-4.9Z"/><path class="cls-1" d="M271.22,161.88h-4.37a1,1,0,0,1-1-.93l-1.41-14.49a1,1,0,0,1,.27-.79,1,1,0,0,1,.76-.34h7.18a1,1,0,0,1,1,1.13L272.25,161A1,1,0,0,1,271.22,161.88Zm-3.43-2.06h2.49l1.2-12.42h-4.89Z"/><path class="cls-1" d="M281.94,161.88h-4.37a1,1,0,0,1-1-.93l-1.4-14.49a1,1,0,0,1,.26-.79,1,1,0,0,1,.77-.34h7.17a1,1,0,0,1,1,1.13L283,161A1,1,0,0,1,281.94,161.88Zm-3.43-2.06H281l1.2-12.42h-4.89Z"/><path class="cls-1" d="M292.65,161.88h-4.36a1,1,0,0,1-1-.93l-1.41-14.48a1.11,1.11,0,0,1,.26-.8,1,1,0,0,1,.78-.34h7.16a1,1,0,0,1,.77.34,1,1,0,0,1,.27.8L293.68,161A1,1,0,0,1,292.65,161.88Zm-3.43-2.06h2.5l1.2-12.42H288Z"/><path class="cls-1" d="M303.37,161.88H299a1,1,0,0,1-1-.93l-1.4-14.49a1,1,0,0,1,.26-.79,1,1,0,0,1,.76-.34h7.18a1,1,0,0,1,.76.34,1,1,0,0,1,.26.79L304.41,161A1,1,0,0,1,303.37,161.88Zm-3.43-2.06h2.49l1.2-12.42h-4.89Z"/><path class="cls-1" d="M314.09,161.88h-4.37a1,1,0,0,1-1-.93l-1.4-14.48a1.06,1.06,0,0,1,.26-.8,1,1,0,0,1,.77-.34h7.17a1,1,0,0,1,.77.34,1.05,1.05,0,0,1,.26.8L315.12,161A1,1,0,0,1,314.09,161.88Zm-3.43-2.06h2.49l1.2-12.42h-4.89Z"/><path class="cls-1" d="M129.93,188h0a6.14,6.14,0,0,1-4.3-10.44,6,6,0,0,1,8.59,0A6.13,6.13,0,0,1,129.93,188Zm0-10.16a4,4,0,0,0-4,4,4,4,0,1,0,4-4Z"/><path class="cls-1" d="M201.4,188h0a6.13,6.13,0,0,1-4.29-10.44,6,6,0,0,1,8.58,0A6.13,6.13,0,0,1,201.4,188Zm0-10.16a4,4,0,1,0,4,4,4,4,0,0,0-4-4Z"/><path class="cls-1" d="M1.41,140a1,1,0,0,1-1-1v-7a1,1,0,0,1,1-1H90.9a1,1,0,0,1,0,2.06H2.44v6A1,1,0,0,1,1.41,140Z"/><path class="cls-1" d="M214.26,133a1,1,0,1,1,1-1A1,1,0,0,1,214.26,133Zm-6.89,0H110.88a1,1,0,0,1,0-2.06h96.49a1,1,0,0,1,0,2.06Z"/><path class="cls-1" d="M329.84,140a1,1,0,0,1-1-1v-6H240.39a1,1,0,1,1,0-2.06h89.45a1.08,1.08,0,0,1,.73.3,1,1,0,0,1,.3.73v7A1,1,0,0,1,329.84,140Z"/><path class="cls-1" d="M15.59,96.69a1,1,0,0,1-1-1v-7a1.07,1.07,0,0,1,.3-.74,1.09,1.09,0,0,1,.74-.3H90.94a1,1,0,0,1,0,2.07H16.62v6h0A1,1,0,0,1,15.59,96.69Z"/><path class="cls-1" d="M315.74,91.6a1,1,0,0,1-1-1V89.7H221.15a1,1,0,0,1,0-2.07h94.59a1,1,0,0,1,1,1v1.9A1,1,0,0,1,315.74,91.6ZM214.26,89.7a1,1,0,1,1,1-1A1,1,0,0,1,214.26,89.7Zm-6.89,0H110.88a1,1,0,0,1,0-2.07h96.49a1,1,0,0,1,0,2.07Z"/><path class="cls-1" d="M212.15,161.88H115.67a1,1,0,1,1,0-2.06h96.48a1,1,0,1,1,0,2.06Z"/><path class="cls-1" d="M44.77,255.72a1,1,0,0,1,0-2.07h1.86v-6.21a1.08,1.08,0,0,1,.3-.73,1,1,0,0,1,.73-.3h2.76v-1c0-3.07.29-5.4,1.43-7.52s2.82-3.66,6-5.74a1.06,1.06,0,0,1,1.15,0C62.19,234.32,63.91,236,65,238c1.16,2.15,1.47,4.51,1.6,7.62v.84H69a1,1,0,0,1,.73.3,1.08,1.08,0,0,1,.3.73v6.21h3.17a1,1,0,1,1,0,2.07H69a1,1,0,0,1-.73-.3,1,1,0,0,1-.3-.73v-6.21H65.54a1,1,0,0,1-.73-.3,1.07,1.07,0,0,1-.3-.74v-1.82c-.13-3.27-.51-5.14-1.34-6.67s-2.25-2.93-4.72-4.66c-2.53,1.68-4,3.06-4.78,4.6s-1.15,3.35-1.19,6.56v2a1.07,1.07,0,0,1-.3.74,1,1,0,0,1-.73.3H48.69v6.21a1,1,0,0,1-1,1H44.77Z"/><path class="cls-1" d="M123.5,234.24h-.1a1,1,0,0,1-.93-1.12c1.3-14.24,4.67-25,10.61-33.94,6.8-10.22,17.31-18.35,32.13-24.86a1,1,0,0,1,.85,0,93.57,93.57,0,0,1,17.64,10.59,1,1,0,1,1-1.26,1.63,91.46,91.46,0,0,0-16.83-10.15c-30.89,13.85-38.76,32.76-41.09,56.91A1,1,0,0,1,123.5,234.24Zm83.83-.5a1,1,0,0,1-1-.91c-1.9-16.07-6.25-27.45-14.12-36.93h0a1,1,0,0,1-.23-.64,1,1,0,0,1,.37-.8,1.07,1.07,0,0,1,1.46.13,58.24,58.24,0,0,1,10,17.48,89.22,89.22,0,0,1,4.61,20.53,1,1,0,0,1-.91,1.14Zm-19-42.49a1,1,0,0,1-.71-.29,1,1,0,0,1,0-1.46,1.07,1.07,0,0,1,1.46,0h0a1,1,0,0,1,.32.72,1.08,1.08,0,0,1-.29.74A1.05,1.05,0,0,1,188.29,191.25Z"/><path class="cls-1" d="M315.74,284.61H236.12a1,1,0,0,1,0-2.07h79.62a1,1,0,0,1,0,2.07Zm-86.51,0a1,1,0,1,1,1-1A1,1,0,0,1,229.23,284.61Zm-6.89,0H125.85a1,1,0,0,1,0-2.07h96.49a1,1,0,0,1,0,2.07Zm-103.38,0a1,1,0,0,1,0-2.07,1,1,0,1,1,0,2.07Zm-6.89,0H15.59a1,1,0,1,1,0-2.07h96.48a1,1,0,0,1,0,2.07Z"/><path class="cls-1" d="M87.06,284.12a1,1,0,0,1-1-1v-6.49a1,1,0,0,1,.27-.7l6.93-7.5a1.07,1.07,0,0,1,1.46-.06,1,1,0,0,1,0,1.46L88.09,277v6.09A1,1,0,0,1,87.06,284.12Z"/><path class="cls-1" d="M79.73,277.29A1,1,0,0,1,79,277a1,1,0,0,1-.09-1.46l6.44-7.16a1,1,0,0,1,.77-.34h29.51a1,1,0,0,1,.81.4l5.44,7a1,1,0,0,1,.21.77,1,1,0,0,1-.39.68,1,1,0,0,1-1.45-.18l-5.13-6.59H86.62L80.49,277A1,1,0,0,1,79.73,277.29Z"/><path class="cls-1" d="M115.67,284.12a1,1,0,0,1-1-1V277l-6.72-7.2h0a1.05,1.05,0,0,1,0-1.47,1.09,1.09,0,0,1,1.47.05l7,7.5a1,1,0,0,1,.28.71v6.49A1,1,0,0,1,115.67,284.12Z"/><path class="cls-1" d="M112.21,21.09H90.44a1,1,0,1,1,0-2.07h21.77a1,1,0,0,1,0,2.07Z"/><path class="cls-1" d="M106.85,21.09a1,1,0,0,1-1-1c0-5.27-1.51-9.49-3.06-10.93a2.14,2.14,0,0,0-1.42-.7,2.19,2.19,0,0,0-1.44.7,8,8,0,0,0-1.53,2.39,22.17,22.17,0,0,0-1.53,8.54,1,1,0,0,1-2.07,0c0-5.5,1.41-10.14,3.69-12.41a4.13,4.13,0,0,1,2.87-1.29h0a4.11,4.11,0,0,1,2.86,1.29,9.43,9.43,0,0,1,2,3,24.31,24.31,0,0,1,1.7,9.37A1,1,0,0,1,106.85,21.09Z"/><path class="cls-1" d="M101.33,8.6a1,1,0,0,1-1-1V1.41a1,1,0,0,1,2.07,0V7.57A1,1,0,0,1,101.33,8.6Z"/><path class="cls-1" d="M115.67,168.71H86.16a1,1,0,1,1,0-2.06h29.51a1,1,0,1,1,0,2.06Z"/><path class="cls-1" d="M115.67,183.87H86.16a1,1,0,1,1,0-2.07h29.51a1,1,0,0,1,0,2.07Z"/><path class="cls-1" d="M115.67,197.93H86.16a1,1,0,1,1,0-2.06h29.51a1,1,0,0,1,0,2.06Z"/><path class="cls-1" d="M115.67,212.42H86.16a1,1,0,1,1,0-2.06h29.51a1,1,0,1,1,0,2.06Z"/><path class="cls-1" d="M115.67,226.91H86.16a1,1,0,1,1,0-2.06h29.51a1,1,0,1,1,0,2.06Z"/><path class="cls-1" d="M115.67,241.24H86.16a1,1,0,1,1,0-2.07h29.51a1,1,0,0,1,0,2.07Z"/><path class="cls-1" d="M115.67,255.72H86.16a1,1,0,1,1,0-2.07h29.51a1,1,0,0,1,0,2.07Z"/><path class="cls-1" d="M216.56,284.12a1,1,0,0,1-1-1v-6.49a1,1,0,0,1,.27-.7l6.93-7.5a1.07,1.07,0,0,1,1.46-.06,1,1,0,0,1,.06,1.46L217.6,277v6.09A1,1,0,0,1,216.56,284.12Z"/><path class="cls-1" d="M209.23,277.29a1,1,0,0,1-.69-.27,1,1,0,0,1-.34-.71,1,1,0,0,1,.26-.75l6.43-7.16a1,1,0,0,1,.77-.34h29.51a1,1,0,0,1,.82.4l5.44,7a1,1,0,0,1-.18,1.46,1.07,1.07,0,0,1-1.46-.19l-5.12-6.59H216.12L210,277A1.08,1.08,0,0,1,209.23,277.29Z"/><path class="cls-1" d="M245.17,284.12a1,1,0,0,1-1-1V277l-6.73-7.21h0a1,1,0,0,1-.27-.73,1,1,0,0,1,1.79-.68l7,7.5a1,1,0,0,1,.27.71v6.49A1,1,0,0,1,245.17,284.12Z"/><path class="cls-1" d="M241.71,21.09H220A1,1,0,1,1,220,19h21.76a1,1,0,0,1,0,2.07Z"/><path class="cls-1" d="M236.36,21.09a1,1,0,0,1-1-1c0-5.27-1.52-9.49-3.06-10.93a1.81,1.81,0,0,0-2.86,0,7.64,7.64,0,0,0-1.53,2.39,22.12,22.12,0,0,0-1.53,8.53h0a1,1,0,0,1-1,1,1,1,0,0,1-1-1c0-5.5,1.4-10.14,3.68-12.41a3.89,3.89,0,0,1,5.74,0,9.59,9.59,0,0,1,2,3,24.12,24.12,0,0,1,1.7,9.37A1,1,0,0,1,236.36,21.09Z"/><path class="cls-1" d="M230.83,8.6a1,1,0,0,1-1-1V1.41a1,1,0,0,1,2.06,0V7.56A1,1,0,0,1,230.83,8.6Z"/><path class="cls-1" d="M245.17,168.71H215.66a1,1,0,1,1,0-2.06h29.51a1,1,0,1,1,0,2.06Z"/><path class="cls-1" d="M245.17,183.87H215.66a1,1,0,0,1,0-2.07h29.51a1,1,0,0,1,0,2.07Z"/><path class="cls-1" d="M245.17,197.93H215.66a1,1,0,0,1,0-2.06h29.51a1,1,0,0,1,0,2.06Z"/><path class="cls-1" d="M245.17,212.43H215.66a1,1,0,0,1,0-2.07h29.51a1,1,0,0,1,0,2.07Z"/><path class="cls-1" d="M245.17,226.91H215.66a1,1,0,1,1,0-2.06h29.51a1,1,0,1,1,0,2.06Z"/><path class="cls-1" d="M245.17,241.24H215.66a1,1,0,0,1,0-2.07h29.51a1,1,0,0,1,0,2.07Z"/><path class="cls-1" d="M245.18,255.72H215.66a1,1,0,0,1,0-2.07h29.52a1,1,0,0,1,0,2.07Z"/><path class="cls-1" d="M212.15,36.66H115.67a1,1,0,1,1,0-2.07h96.48a1,1,0,1,1,0,2.07Z"/><path class="cls-1" d="M223.08,46.4h-4.57a1,1,0,0,1,0-2.06h4.57a1,1,0,1,1,0,2.06Zm-11.46,0a1,1,0,1,1,1-1A1,1,0,0,1,211.62,46.4Zm-6.89,0H108.24a1,1,0,1,1,0-2.06h96.49a1,1,0,1,1,0,2.06Z"/><path class="cls-1" d="M129.93,46.57a1,1,0,0,1-1-1V35.13a1,1,0,0,1,2.07,0V45.54A1,1,0,0,1,129.93,46.57Z"/><path class="cls-1" d="M144.19,46.57a1,1,0,0,1-1-1V35.13a1,1,0,1,1,2.06,0V45.54A1,1,0,0,1,144.19,46.57Z"/><path class="cls-1" d="M158.53,46.57a1,1,0,0,1-1-1V35.13a1,1,0,0,1,2.07,0V45.54A1,1,0,0,1,158.53,46.57Z"/><path class="cls-1" d="M172.79,46.57a1,1,0,0,1-1-1V35.13a1,1,0,0,1,2.07,0V45.54A1,1,0,0,1,172.79,46.57Z"/><path class="cls-1" d="M187.14,46.57a1,1,0,0,1-1-1V35.13a1,1,0,0,1,2.07,0V45.54A1,1,0,0,1,187.14,46.57Z"/><path class="cls-1" d="M201.4,46.57a1,1,0,0,1-1-1V35.13a1,1,0,0,1,2.06,0V45.54A1,1,0,0,1,201.4,46.57Z"/><path class="cls-1" d="M86.16,125.75H15.59a1,1,0,1,1,0-2.07H86.16a1,1,0,0,1,0,2.07Z"/><path class="cls-1" d="M316.23,125.75H245.67a1,1,0,1,1,0-2.07h70.56a1,1,0,1,1,0,2.07Z"/><path class="cls-1" d="M58.46,125.75a1,1,0,0,1-1-1V103.07a1,1,0,0,1,2.06,0v21.65A1,1,0,0,1,58.46,125.75Z"/><path class="cls-1" d="M72.72,125.75a1,1,0,0,1-1-1V103.07a1,1,0,0,1,2.07,0v21.65A1,1,0,0,1,72.72,125.75Z"/><path class="cls-1" d="M72.72,118.59H58.46a1,1,0,0,1,0-2.07H72.72a1,1,0,0,1,0,2.07Z"/><path class="cls-1" d="M258.61,125.75a1,1,0,0,1-1-1V103.07a1,1,0,1,1,2.06,0v21.65A1,1,0,0,1,258.61,125.75Z"/><path class="cls-1" d="M273,125.75a1,1,0,0,1-1-1V103.07a1,1,0,0,1,2.07,0v21.65A1,1,0,0,1,273,125.75Z"/><path class="cls-1" d="M273,118.59H258.61a1,1,0,0,1,0-2.07H273a1,1,0,1,1,0,2.07Z"/><path class="cls-1" d="M29.85,284.61a1,1,0,0,1-1-1V271.12a1,1,0,1,1,2.06,0v12.46A1,1,0,0,1,29.85,284.61Zm0-19.35a1,1,0,1,1,1-1A1,1,0,0,1,29.85,265.26Zm0-6.89a1,1,0,0,1-1-1V160.85a1,1,0,1,1,2.06,0v96.48A1,1,0,0,1,29.85,258.37Z"/><path class="cls-1" d="M301.31,284.61a1,1,0,0,1-1-1V271.12a1,1,0,1,1,2.06,0v12.46A1,1,0,0,1,301.31,284.61Zm0-19.35a1,1,0,1,1,1-1A1,1,0,0,1,301.31,265.26Zm0-6.89a1,1,0,0,1-1-1V160.85a1,1,0,1,1,2.06,0v96.48A1,1,0,0,1,301.31,258.37Z"/><path class="cls-1" d="M77,285a1,1,0,0,1-1-1c0-1.94,0-4,0-6.54a1,1,0,0,1,1.76-.73,1,1,0,0,1,.31.73c0,2,0,4.25,0,6.54A1,1,0,0,1,77,285Zm-37.26,0a1,1,0,0,1-1-1c0-16.65-.15-29.57-.28-39.95-.08-6.68-.15-12.45-.15-17.22,0-10.43.28-17.1,1.78-22.55,1.45-5.27,4-9.21,8-15.06a1.07,1.07,0,0,1,1.44-.27,1,1,0,0,1,.43.67,1,1,0,0,1-.16.77c-3.9,5.68-6.37,9.48-7.73,14.44-1.26,4.58-1.71,10.33-1.7,22,0,4.74.07,10.5.15,17.16.12,10.4.27,23.34.27,40A1,1,0,0,1,39.74,285ZM77,271.6h0a1,1,0,0,1-1-1,1,1,0,0,1,1.77-.72,1.05,1.05,0,0,1,.29.73A1,1,0,0,1,77,271.6Zm0-6.89h0a1,1,0,0,1-.72-.31,1,1,0,0,1-.3-.73c.06-7.84.15-14.57.22-20.5.09-6.95.16-12.44.16-17.17,0-14.32-.71-20.06-3.22-25.55-1.58-3.51-3.94-6.94-7.51-12.14-2.08-3-4.42-6.41-7.24-10.74L57.52,179a1.06,1.06,0,0,1-1.42.29,1,1,0,0,1-.47-.85,1,1,0,0,1,.17-.58c.59-.91,1.2-1.83,1.78-2.75a1.09,1.09,0,0,1,1.75,0c3.15,4.9,5.86,8.82,8,12,3.49,5.08,6,8.75,7.74,12.52C78,206,78.5,212.93,78.5,226c0,4.75-.07,10.26-.16,17.23-.07,5.92-.16,12.63-.23,20.45A1,1,0,0,1,77.08,264.71ZM52.82,185.17a1,1,0,0,1-.58-.18,1,1,0,0,1-.27-1.43,1.06,1.06,0,0,1,1.44-.28,1,1,0,0,1,.27,1.44A1,1,0,0,1,52.82,185.17Z"/><path class="cls-1" d="M44.77,219.59H39.58a1,1,0,1,1,0-2.07h5.19a1,1,0,1,1,0,2.07Z"/><path class="cls-1" d="M44.19,226.83H39.5a1,1,0,1,1,0-2.07h4.69a1,1,0,1,1,0,2.07Z"/><path class="cls-1" d="M44.19,234.07H39.5a1,1,0,1,1,0-2.06h4.69a1,1,0,1,1,0,2.06Z"/><path class="cls-1" d="M44.19,241.24h-4.7a1,1,0,0,1,0-2.07h4.7a1,1,0,1,1,0,2.07Z"/><path class="cls-1" d="M44.19,248.48H39.5a1,1,0,1,1,0-2.07h4.69a1,1,0,1,1,0,2.07Z"/><path class="cls-1" d="M44.19,255.72h-4.7a1,1,0,0,1,0-2.07h4.7a1,1,0,1,1,0,2.07Z"/><path class="cls-1" d="M44.19,263h-4.7a1,1,0,0,1,0-2.06h4.7a1,1,0,1,1,0,2.06Z"/><path class="cls-1" d="M44.19,270.13H39.5a1,1,0,1,1,0-2.07h4.69a1,1,0,1,1,0,2.07Z"/><path class="cls-1" d="M44.19,277.37h-4.7a1,1,0,0,1,0-2.07h4.7a1,1,0,1,1,0,2.07Z"/><path class="cls-1" d="M77.91,219.59H72.72a1,1,0,1,1,0-2.07h5.19a1,1,0,0,1,0,2.07Z"/><path class="cls-1" d="M77.25,226.83h-4.7a1,1,0,0,1,0-2.07h4.7a1,1,0,1,1,0,2.07Z"/><path class="cls-1" d="M77.25,234.07h-4.7a1,1,0,0,1,0-2.06h4.7a1,1,0,1,1,0,2.06Z"/><path class="cls-1" d="M77.25,241.24h-4.7a1,1,0,0,1,0-2.07h4.7a1,1,0,1,1,0,2.07Z"/><path class="cls-1" d="M77.25,248.48h-4.7a1,1,0,0,1,0-2.07h4.7a1,1,0,1,1,0,2.07Z"/><path class="cls-1" d="M77.25,255.72h-4.7a1,1,0,0,1,0-2.07h4.7a1,1,0,1,1,0,2.07Z"/><path class="cls-1" d="M77.25,263h-4.7a1,1,0,0,1,0-2.06h4.7a1,1,0,1,1,0,2.06Z"/><path class="cls-1" d="M77.25,270.13h-4.7a1,1,0,0,1,0-2.07h4.7a1,1,0,1,1,0,2.07Z"/><path class="cls-1" d="M77.25,277.37h-4.7a1,1,0,0,1,0-2.07h4.7a1,1,0,1,1,0,2.07Z"/><path class="cls-1" d="M58.46,219.59a1,1,0,0,1-1-1v-43.3a1,1,0,0,1,2.06,0v43.3A1,1,0,0,1,58.46,219.59Z"/><path class="cls-1" d="M72.72,197.93H44.19a1,1,0,0,1,0-2.06H72.72a1,1,0,0,1,0,2.06Z"/><path class="cls-1" d="M75.61,205.18H41.06a1,1,0,1,1,0-2.06H75.61a1,1,0,0,1,0,2.06Z"/><path class="cls-1" d="M77,212.42H39.91a1,1,0,1,1,0-2.06H77a1,1,0,1,1,0,2.06Z"/><path class="cls-1" d="M67.94,190.78H49a1,1,0,1,1,0-2.07h19a1,1,0,0,1,0,2.07Z"/><path class="cls-1" d="M65.21,219.59a1,1,0,0,1-1-1V190.24a1,1,0,0,1,2.07,0v28.31A1,1,0,0,1,65.21,219.59Z"/><path class="cls-1" d="M72.72,219.59a1,1,0,0,1-1-1V196.9a1,1,0,0,1,2.07,0v21.65A1,1,0,0,1,72.72,219.59Z"/><path class="cls-1" d="M52,219.59a1,1,0,0,1-1-1V190.24a1,1,0,0,1,2.06,0v28.31A1,1,0,0,1,52,219.59Z"/><path class="cls-1" d="M44.52,219.59a1,1,0,0,1-1-1V196.9a1,1,0,0,1,2.07,0v21.65A1,1,0,0,1,44.52,219.59Z"/><path class="cls-1" d="M86.16,176.29H29.85a1,1,0,0,1,0-2.07H86.16a1,1,0,0,1,0,2.07Z"/><path class="cls-1" d="M86.16,169H29.85a1,1,0,1,1,0-2.06H86.16a1,1,0,0,1,0,2.06Z"/><path class="cls-1" d="M86.16,172.79H29.85a1,1,0,1,1,0-2.06H86.16a1,1,0,1,1,0,2.06Z"/><path class="cls-1" d="M29.85,176.29H15.59a1,1,0,1,1,0-2.07H29.85a1,1,0,0,1,0,2.07Z"/><path class="cls-1" d="M29.85,190.78H15.59a1,1,0,1,1,0-2.07H29.85a1,1,0,0,1,0,2.07Z"/><path class="cls-1" d="M29.85,205.18H15.59a1,1,0,1,1,0-2.06H29.85a1,1,0,0,1,0,2.06Z"/><path class="cls-1" d="M29.85,219.59H15.59a1,1,0,1,1,0-2.07H29.85a1,1,0,0,1,0,2.07Z"/><path class="cls-1" d="M29.85,234.07H15.59a1,1,0,1,1,0-2.06H29.85a1,1,0,0,1,0,2.06Z"/><path class="cls-1" d="M29.85,248.48H15.59a1,1,0,1,1,0-2.07H29.85a1,1,0,0,1,0,2.07Z"/><path class="cls-1" d="M29.85,263H15.59a1,1,0,1,1,0-2.06H29.85a1,1,0,1,1,0,2.06Z"/><path class="cls-1" d="M29.85,277.37H15.59a1,1,0,1,1,0-2.07H29.85a1,1,0,0,1,0,2.07Z"/><path class="cls-1" d="M286.47,255.72h-3a1.06,1.06,0,0,1-.73-.3,1,1,0,0,1-.3-.73v-6.21h-2.68a1,1,0,0,1-.73-.3,1.07,1.07,0,0,1-.3-.74v-2c0-3.22-.38-5.07-1.19-6.57s-2.28-2.92-4.84-4.6c-2.47,1.74-3.87,3.13-4.69,4.66s-1.22,3.44-1.31,6.69h0c0,.33,0,.64,0,.93s0,.58,0,.86a1.07,1.07,0,0,1-.3.74,1,1,0,0,1-.74.3h-2.34v6.21a1,1,0,0,1-.3.73,1.07,1.07,0,0,1-.74.3H258a1,1,0,0,1,0-2.07h3.17v-6.21a1.08,1.08,0,0,1,.3-.73,1.06,1.06,0,0,1,.73-.3h2.4v-.08c0-.27,0-.5,0-.72v0c.07-3,.37-5.46,1.56-7.63,1.06-2,2.77-3.62,5.89-5.77a1,1,0,0,1,1.14,0c3.27,2.08,5,3.74,6.13,5.74s1.4,4.45,1.44,7.54v1h2.67a1,1,0,0,1,1,1v6.21h1.94a1,1,0,0,1,1,1A1,1,0,0,1,286.47,255.72Z"/><path class="cls-1" d="M301.31,284.61a1,1,0,0,1-1-1V271.12a1,1,0,1,1,2.06,0v12.46A1,1,0,0,1,301.31,284.61Zm0-19.35a1,1,0,1,1,1-1A1,1,0,0,1,301.31,265.26Zm0-6.89a1,1,0,0,1-1-1V160.85a1,1,0,1,1,2.06,0v96.48A1,1,0,0,1,301.31,258.37Z"/><path class="cls-1" d="M291.42,285a1,1,0,0,1-1-1c0-16.85.16-29.87.29-40.33.08-6.67.15-12.43.15-17.16,0-11.51-.45-17.2-1.71-21.75-1.37-4.94-3.83-8.72-7.71-14.37a1,1,0,0,1-.16-.77,1,1,0,0,1,.43-.67,1.07,1.07,0,0,1,1.44.27c4,5.83,6.54,9.74,8,15,1.5,5.41,1.79,12,1.79,22.3,0,4.76-.07,10.53-.16,17.21-.13,10.45-.28,23.46-.28,40.28A1,1,0,0,1,291.42,285Zm-37.18,0a1,1,0,0,1-1-1c0-2.3,0-4.49,0-6.53a1,1,0,0,1,.3-.74,1,1,0,0,1,1.77.73V284A1,1,0,0,1,254.24,285Zm0-13.42h0a1,1,0,0,1-1-1,1.06,1.06,0,0,1,.3-.73,1,1,0,0,1,1.77.73A1,1,0,0,1,254.21,271.61Zm-.05-6.89h0a1.05,1.05,0,0,1-1-1c-.06-8-.15-14.88-.23-20.92-.09-7-.17-12.44-.17-17.17,0-12.88.49-19.7,3.41-26.09,1.71-3.75,4.24-7.42,7.73-12.5,2.15-3.13,4.84-7,8-11.9a1.07,1.07,0,0,1,.87-.47,1,1,0,0,1,.88.47c.55.85,1.12,1.73,1.8,2.76a1,1,0,0,1-.3,1.43,1.07,1.07,0,0,1-1.43-.29h0a.05.05,0,0,1,0,0c-.31-.45-.61-.92-.92-1.39-2.8,4.29-5.13,7.68-7.19,10.67-3.57,5.2-5.92,8.63-7.52,12.13-2.49,5.47-3.21,11.13-3.21,25.23,0,4.68.07,10.14.17,17,.07,6.08.17,13,.23,21a1,1,0,0,1-.3.74A1.08,1.08,0,0,1,254.16,264.72Zm24.19-79.54a1,1,0,0,1-.84-.45h0a1,1,0,0,1-.16-.77,1,1,0,0,1,.44-.66,1.06,1.06,0,0,1,1.43.27,1,1,0,0,1-.27,1.44A1,1,0,0,1,278.35,185.18Z"/><path class="cls-1" d="M291.59,219.59h-5.2a1,1,0,0,1,0-2.07h5.2a1,1,0,0,1,0,2.07Z"/><path class="cls-1" d="M291.75,226.83h-4.7a1,1,0,0,1,0-2.07h4.7a1,1,0,1,1,0,2.07Z"/><path class="cls-1" d="M291.75,234.07h-4.7a1,1,0,0,1,0-2.06h4.7a1,1,0,1,1,0,2.06Z"/><path class="cls-1" d="M291.75,241.24h-4.7a1,1,0,0,1,0-2.07h4.7a1,1,0,1,1,0,2.07Z"/><path class="cls-1" d="M291.75,248.48h-4.7a1,1,0,0,1,0-2.07h4.7a1,1,0,1,1,0,2.07Z"/><path class="cls-1" d="M291.75,255.72h-4.7a1,1,0,0,1,0-2.07h4.7a1,1,0,1,1,0,2.07Z"/><path class="cls-1" d="M291.75,263h-4.7a1,1,0,0,1,0-2.06h4.7a1,1,0,1,1,0,2.06Z"/><path class="cls-1" d="M291.75,270.13h-4.7a1,1,0,0,1,0-2.07h4.7a1,1,0,1,1,0,2.07Z"/><path class="cls-1" d="M291.75,277.37h-4.7a1,1,0,1,1,0-2.07h4.7a1,1,0,1,1,0,2.07Z"/><path class="cls-1" d="M258.44,219.59h-5.11a1,1,0,0,1,0-2.07h5.11a1,1,0,1,1,0,2.07Z"/><path class="cls-1" d="M258.61,226.83h-4.7a1,1,0,0,1,0-2.07h4.7a1,1,0,0,1,0,2.07Z"/><path class="cls-1" d="M258.61,234.07h-4.7a1,1,0,0,1,0-2.06h4.7a1,1,0,0,1,0,2.06Z"/><path class="cls-1" d="M258.61,241.24h-4.7a1,1,0,0,1,0-2.07h4.7a1,1,0,0,1,0,2.07Z"/><path class="cls-1" d="M258.61,248.48h-4.7a1,1,0,0,1,0-2.07h4.7a1,1,0,0,1,0,2.07Z"/><path class="cls-1" d="M258.61,255.72h-4.7a1,1,0,0,1,0-2.07h4.7a1,1,0,0,1,0,2.07Z"/><path class="cls-1" d="M258.61,263h-4.7a1,1,0,0,1,0-2.06h4.7a1,1,0,0,1,0,2.06Z"/><path class="cls-1" d="M258.61,270.13h-4.7a1,1,0,0,1,0-2.07h4.7a1,1,0,0,1,0,2.07Z"/><path class="cls-1" d="M258.61,277.37h-4.7a1,1,0,0,1,0-2.07h4.7a1,1,0,0,1,0,2.07Z"/><path class="cls-1" d="M272.71,219.58a1,1,0,0,1-1-1v-43.3a1,1,0,0,1,2.06,0v43.3A1,1,0,0,1,272.71,219.58Z"/><path class="cls-1" d="M287.05,197.93H258.44a1,1,0,1,1,0-2.06h28.61a1,1,0,0,1,0,2.06Z"/><path class="cls-1" d="M290.1,205.18H255.64a1,1,0,1,1,0-2.06H290.1a1,1,0,0,1,0,2.06Z"/><path class="cls-1" d="M291.34,212.43h-37.1a1,1,0,0,1,0-2.07h37.1a1,1,0,0,1,0,2.07Z"/><path class="cls-1" d="M282.19,190.78h-19a1,1,0,1,1,0-2.07h19a1,1,0,0,1,0,2.07Z"/><path class="cls-1" d="M266,219.59a1,1,0,0,1-1-1v-28.8a1,1,0,1,1,2.07,0v28.8A1,1,0,0,1,266,219.59Z"/><path class="cls-1" d="M258.44,219.59a1,1,0,0,1-1-1V196.9a1,1,0,0,1,2.07,0v21.65A1,1,0,0,1,258.44,219.59Z"/><path class="cls-1" d="M279.14,219.58a1,1,0,0,1-1-1v-28.8a1,1,0,1,1,2.06,0v28.8A1,1,0,0,1,279.14,219.58Z"/><path class="cls-1" d="M287.05,219.59a1,1,0,0,1-1-1V196.9a1,1,0,0,1,2.07,0v21.65A1,1,0,0,1,287.05,219.59Z"/><path class="cls-1" d="M301.31,176.29H245a1,1,0,0,1,0-2.07h56.3a1,1,0,0,1,0,2.07Z"/><path class="cls-1" d="M301.31,169H245a1,1,0,0,1,0-2.06h56.3a1,1,0,0,1,0,2.06Z"/><path class="cls-1" d="M301.31,172.79H245a1,1,0,0,1,0-2.06h56.3a1,1,0,0,1,0,2.06Z"/><path class="cls-1" d="M315.66,176.29H301.31a1,1,0,0,1,0-2.07h14.35a1,1,0,0,1,0,2.07Z"/><path class="cls-1" d="M315.66,190.78H301.31a1,1,0,0,1,0-2.07h14.35a1,1,0,0,1,0,2.07Z"/><path class="cls-1" d="M315.66,205.18H301.31a1,1,0,0,1,0-2.06h14.35a1,1,0,0,1,0,2.06Z"/><path class="cls-1" d="M315.66,219.58H301.31a1,1,0,0,1,0-2.06h14.35a1,1,0,0,1,0,2.06Z"/><path class="cls-1" d="M315.66,234.07H301.31a1,1,0,0,1,0-2.06h14.35a1,1,0,0,1,0,2.06Z"/><path class="cls-1" d="M315.66,248.48H301.31a1,1,0,0,1,0-2.07h14.35a1,1,0,0,1,0,2.07Z"/><path class="cls-1" d="M315.66,263H301.31a1,1,0,0,1,0-2.06h14.35a1,1,0,0,1,0,2.06Z"/><path class="cls-1" d="M315.66,277.37H301.31a1,1,0,0,1,0-2.07h14.35a1,1,0,0,1,0,2.07Z"/><path class="cls-1" d="M214.26,109.35a1,1,0,1,1,1-1A1,1,0,0,1,214.26,109.35Zm-6.89,0H110.88a1,1,0,0,1,0-2.07h96.49a1,1,0,0,1,0,2.07Z"/><path class="cls-1" d="M90.94,147.4H3.8a1,1,0,0,1,0-2.07H90.94a1,1,0,0,1,0,2.07Z"/><path class="cls-1" d="M327.53,147.4H240.39a1,1,0,1,1,0-2.07h87.14a1,1,0,0,1,0,2.07Z"/><path class="cls-1" d="M86.16,219.59H29.85a1,1,0,0,1,0-2.07H86.16a1,1,0,0,1,0,2.07Z"/><path class="cls-1" d="M301.31,219.58H245.17a1,1,0,1,1,0-2.06h56.14a1,1,0,0,1,0,2.06Z"/><path class="cls-1" d="M214.26,147.4a1,1,0,1,1,1-1A1,1,0,0,1,214.26,147.4Zm-6.89,0H110.88a1,1,0,0,1,0-2.07h96.49a1,1,0,0,1,0,2.07Z"/><path class="cls-1" d="M214.26,144a1,1,0,1,1,1-1A1,1,0,0,1,214.26,144Zm-6.89,0H110.88a1,1,0,0,1,0-2.07h96.49a1,1,0,0,1,0,2.07Z"/><path class="cls-1" d="M232.89,21.09a1,1,0,0,1-1-1,61.85,61.85,0,0,0-.47-7.95,18,18,0,0,0-.56-2.87,13.75,13.75,0,0,0-.44,2,57.77,57.77,0,0,0-.59,8.79,1,1,0,0,1-2.07,0,64,64,0,0,1,.48-8.2c.36-2.45.68-3.88,1.39-4.85a1.6,1.6,0,0,1,1.23-.65,1.62,1.62,0,0,1,1.23.65,3.84,3.84,0,0,1,.54,1,14.64,14.64,0,0,1,.71,2.92,60.59,60.59,0,0,1,.61,9.12A1,1,0,0,1,232.89,21.09Z"/><path class="cls-1" d="M103.63,21.09a1,1,0,0,1-1-1,55.67,55.67,0,0,0-.41-7.31,18.2,18.2,0,0,0-.84-3.83,13.62,13.62,0,0,0-.62,2.37,51.32,51.32,0,0,0-.68,8.77,1,1,0,0,1-1,1,1,1,0,0,1-1-1,56,56,0,0,1,.55-8.21c.4-2.41.77-3.9,1.56-4.87a1.66,1.66,0,0,1,1.23-.62,1.74,1.74,0,0,1,1.25.6,4,4,0,0,1,.62,1,13.79,13.79,0,0,1,.8,2.94,54.19,54.19,0,0,1,.67,9.14A1,1,0,0,1,103.63,21.09Z"/></g></g></svg>