<svg xmlns="http://www.w3.org/2000/svg" xmlns:xlink="http://www.w3.org/1999/xlink" viewBox="0 0 230.61 69.7"><defs><style>.cls-1{fill:#5b0c29;}.cls-2{opacity:0.2;}.cls-3{clip-path:url(#clip-path);}</style><clipPath id="clip-path"><path class="cls-1" d="M229.58,47.47a52.58,52.58,0,0,0-22.49-6.29,50.5,50.5,0,0,0-5.9,0c-1.95.14-4.16.72-6.07.12-1.65-.52-2.89-1.88-4.35-2.75a10.94,10.94,0,0,0-4.45-1.43A11.61,11.61,0,0,0,178,39.52,11.87,11.87,0,0,0,165.33,32c-.48-9.06-1.51-19.19-8.11-26-7.24-7.46-19.28-7.82-27.7-2.2a28,28,0,0,0-9.77,11.71A13.41,13.41,0,0,0,104.54,15a13.15,13.15,0,0,0-5.28,13.77,10.3,10.3,0,0,0-10.62,3.37A22.16,22.16,0,0,0,71.11,23.6a21.34,21.34,0,0,0-17.22,9.17,21.79,21.79,0,0,0-3.67,8.9,11.55,11.55,0,0,0-12.12-.42,9.84,9.84,0,0,0-2.7,2.28c-.88,1.08-1.43,2.59-2.61,3.4-1.34.91-3.18.59-4.71.66a13,13,0,0,0-4.09.83A12,12,0,0,0,17.38,54a17.87,17.87,0,0,0-17,2.55.87.87,0,0,0,.21,1.57,63.63,63.63,0,0,0,17.52,3,66.16,66.16,0,0,0,8.79-.29c3-.31,6-1,9-1.46a10.87,10.87,0,0,1,4.29,0,16.2,16.2,0,0,1,4,1.91A19.86,19.86,0,0,0,50,63.37a22.84,22.84,0,0,0,12.51-1.2,22.44,22.44,0,0,0,9.76-7.27c2.82,4.2,8.61,5.48,13.5,5.23,4-.19,7.85-1.22,11.83-1.25a15.85,15.85,0,0,1,5.87,1,31.54,31.54,0,0,1,4.3,2.18c2.8,1.58,5.73,3.37,9,3.58a9,9,0,0,0,4.5-1c1.39-.69,2.59-1.71,3.93-2.49a3.79,3.79,0,0,1,3.87-.4,29.55,29.55,0,0,1,3.61,2.92,8.17,8.17,0,0,0,8.17,1,7.67,7.67,0,0,0,4.88-7.53,8.69,8.69,0,0,0-2.63-5.71,15.18,15.18,0,0,0,1.59-1.15c.87-.74,1.88-1.76,3.09-1.86s2.21,1,3,1.8a23.37,23.37,0,0,0,4.54,4.29,18.37,18.37,0,0,0,5.48,2.4,21.75,21.75,0,0,0,12-.42,18.56,18.56,0,0,0,9.72-7.2c4.2,3.14,9.5,4.16,14.71,4,6.58-.26,12.82-2.39,19.2-3.78a35.39,35.39,0,0,1,12.21-.87C229.88,49.73,230.84,48.15,229.58,47.47Z"/></clipPath></defs><g id="Layer_2" data-name="Layer 2"><g id="Layer_1-2" data-name="Layer 1"><path class="cls-1" d="M229.58,47.47a52.58,52.58,0,0,0-22.49-6.29,50.5,50.5,0,0,0-5.9,0c-1.95.14-4.16.72-6.07.12-1.65-.52-2.89-1.88-4.35-2.75a10.94,10.94,0,0,0-4.45-1.43A11.61,11.61,0,0,0,178,39.52,11.87,11.87,0,0,0,165.33,32c-.48-9.06-1.51-19.19-8.11-26-7.24-7.46-19.28-7.82-27.7-2.2a28,28,0,0,0-9.77,11.71A13.41,13.41,0,0,0,104.54,15a13.15,13.15,0,0,0-5.28,13.77,10.3,10.3,0,0,0-10.62,3.37A22.16,22.16,0,0,0,71.11,23.6a21.34,21.34,0,0,0-17.22,9.17,21.79,21.79,0,0,0-3.67,8.9,11.55,11.55,0,0,0-12.12-.42,9.84,9.84,0,0,0-2.7,2.28c-.88,1.08-1.43,2.59-2.61,3.4-1.34.91-3.18.59-4.71.66a13,13,0,0,0-4.09.83A12,12,0,0,0,17.38,54a17.87,17.87,0,0,0-17,2.55.87.87,0,0,0,.21,1.57,63.63,63.63,0,0,0,17.52,3,66.16,66.16,0,0,0,8.79-.29c3-.31,6-1,9-1.46a10.87,10.87,0,0,1,4.29,0,16.2,16.2,0,0,1,4,1.91A19.86,19.86,0,0,0,50,63.37a22.84,22.84,0,0,0,12.51-1.2,22.44,22.44,0,0,0,9.76-7.27c2.82,4.2,8.61,5.48,13.5,5.23,4-.19,7.85-1.22,11.83-1.25a15.85,15.85,0,0,1,5.87,1,31.54,31.54,0,0,1,4.3,2.18c2.8,1.58,5.73,3.37,9,3.58a9,9,0,0,0,4.5-1c1.39-.69,2.59-1.71,3.93-2.49a3.79,3.79,0,0,1,3.87-.4,29.55,29.55,0,0,1,3.61,2.92,8.17,8.17,0,0,0,8.17,1,7.67,7.67,0,0,0,4.88-7.53,8.69,8.69,0,0,0-2.63-5.71,15.18,15.18,0,0,0,1.59-1.15c.87-.74,1.88-1.76,3.09-1.86s2.21,1,3,1.8a23.37,23.37,0,0,0,4.54,4.29,18.37,18.37,0,0,0,5.48,2.4,21.75,21.75,0,0,0,12-.42,18.56,18.56,0,0,0,9.72-7.2c4.2,3.14,9.5,4.16,14.71,4,6.58-.26,12.82-2.39,19.2-3.78a35.39,35.39,0,0,1,12.21-.87C229.88,49.73,230.84,48.15,229.58,47.47Z"/><g class="cls-2"><path class="cls-1" d="M229.58,47.47a52.58,52.58,0,0,0-22.49-6.29,50.5,50.5,0,0,0-5.9,0c-1.95.14-4.16.72-6.07.12-1.65-.52-2.89-1.88-4.35-2.75a10.94,10.94,0,0,0-4.45-1.43A11.61,11.61,0,0,0,178,39.52,11.87,11.87,0,0,0,165.33,32c-.48-9.06-1.51-19.19-8.11-26-7.24-7.46-19.28-7.82-27.7-2.2a28,28,0,0,0-9.77,11.71A13.41,13.41,0,0,0,104.54,15a13.15,13.15,0,0,0-5.28,13.77,10.3,10.3,0,0,0-10.62,3.37A22.16,22.16,0,0,0,71.11,23.6a21.34,21.34,0,0,0-17.22,9.17,21.79,21.79,0,0,0-3.67,8.9,11.55,11.55,0,0,0-12.12-.42,9.84,9.84,0,0,0-2.7,2.28c-.88,1.08-1.43,2.59-2.61,3.4-1.34.91-3.18.59-4.71.66a13,13,0,0,0-4.09.83A12,12,0,0,0,17.38,54a17.87,17.87,0,0,0-17,2.55.87.87,0,0,0,.21,1.57,63.63,63.63,0,0,0,17.52,3,66.16,66.16,0,0,0,8.79-.29c3-.31,6-1,9-1.46a10.87,10.87,0,0,1,4.29,0,16.2,16.2,0,0,1,4,1.91A19.86,19.86,0,0,0,50,63.37a22.84,22.84,0,0,0,12.51-1.2,22.44,22.44,0,0,0,9.76-7.27c2.82,4.2,8.61,5.48,13.5,5.23,4-.19,7.85-1.22,11.83-1.25a15.85,15.85,0,0,1,5.87,1,31.54,31.54,0,0,1,4.3,2.18c2.8,1.58,5.73,3.37,9,3.58a9,9,0,0,0,4.5-1c1.39-.69,2.59-1.71,3.93-2.49a3.79,3.79,0,0,1,3.87-.4,29.55,29.55,0,0,1,3.61,2.92,8.17,8.17,0,0,0,8.17,1,7.67,7.67,0,0,0,4.88-7.53,8.69,8.69,0,0,0-2.63-5.71,15.18,15.18,0,0,0,1.59-1.15c.87-.74,1.88-1.76,3.09-1.86s2.21,1,3,1.8a23.37,23.37,0,0,0,4.54,4.29,18.37,18.37,0,0,0,5.48,2.4,21.75,21.75,0,0,0,12-.42,18.56,18.56,0,0,0,9.72-7.2c4.2,3.14,9.5,4.16,14.71,4,6.58-.26,12.82-2.39,19.2-3.78a35.39,35.39,0,0,1,12.21-.87C229.88,49.73,230.84,48.15,229.58,47.47Z"/><g class="cls-3"><path class="cls-1" d="M60.38,43.3c-2.08-2.44-5.25-.95-7.22.87a20.82,20.82,0,0,1,1.38-14,.46.46,0,0,0-.51-.66A22.68,22.68,0,0,0,42.4,36.31s0,.1-.06.15a2.29,2.29,0,0,0-.25,0s0,0,0,0l.25,0c-.07.3.29.61.55.33.1-.11.22-.21.32-.32,3.56.41,4.77,5.8,5.09,8.73.05.41.35,2,0,2.18a6.41,6.41,0,0,1-.76,0,2.68,2.68,0,0,0-.77.21,3.1,3.1,0,0,0-1.86,2.14.15.15,0,0,0,.25.15c2.5-2.39,6-.87,8.08,1.2a.16.16,0,0,0,.26-.07,10.13,10.13,0,0,1,6.78-7.27A.27.27,0,0,0,60.38,43.3Z"/><path class="cls-1" d="M36.57,41.65s0,0,0,0l0,0a.33.33,0,0,0-.42-.2,25.65,25.65,0,0,0-3.36,1.46c-.54.29-1.07.6-1.58.92a4.54,4.54,0,0,0-1.29,1c-.64.87-.46,2-.43,3a11.83,11.83,0,0,1-.6,4c-.17.5.58.68.77.21A3.28,3.28,0,0,1,34.86,51a.35.35,0,0,0,.54-.42,8,8,0,0,1,.67-8.27l.25-.1a.39.39,0,0,0,.22-.52Z"/><path class="cls-1" d="M19.88,48.74a.24.24,0,0,0,.11-.26,1.34,1.34,0,0,1,.07-.18s0,0,0,0l-.06.13a.33.33,0,0,0-.45-.19l-8.67,4.11a.31.31,0,0,0,.16.58c2.64-.07,3.5,3,4,5a.31.31,0,0,0,.56.07,3.84,3.84,0,0,1,4.29-1.49.19.19,0,0,0,.21-.27,7.21,7.21,0,0,1-.89-3.93A10,10,0,0,1,19.88,48.74Z"/><path class="cls-1" d="M102.35,32c-3.95-4.23-2.82-10.48-1.27-15.45a.48.48,0,0,0-.88-.37A14.46,14.46,0,0,1,95.41,21a32.92,32.92,0,0,1-6.24,3.29,9.35,9.35,0,0,1-7,0c-2-.76-4-1.74-6.16-1.6a.44.44,0,0,0-.39.26l-.47-.13a0,0,0,0,0,0,0c.16,0,.31.09.46.13a.42.42,0,0,0,.41.61,7.33,7.33,0,0,1,1.15,0,8.8,8.8,0,0,1,3.67,4.07c1.13,2.52,1.44,6.24,0,8.76a4.74,4.74,0,0,0-5.15-1.24.37.37,0,0,0-.09.67,13.7,13.7,0,0,1,5.59,9.54.39.39,0,0,0,.57.33,8.51,8.51,0,0,1,9,1,.39.39,0,0,0,.66-.27A4.83,4.83,0,0,0,89.37,42a6.69,6.69,0,0,0-2.54-1.09,10.33,10.33,0,0,0-1.36-.18c-.89-.08-1.27-.36-1.28-1.3,0-2.1,1.93-3.8,3.87-4.18,2.42-.47,4.84.78,6.65,2.27a.42.42,0,0,0,.34.09,1.62,1.62,0,0,0,0,.19c0,.06.08.08.1,0l.28-.47h0a10.56,10.56,0,0,1,2.32-3,7.4,7.4,0,0,1,4.35-1.71A.41.41,0,0,0,102.35,32Z"/><path class="cls-1" d="M128.47,21.15c-2-1.92-4.74-1.43-7.17-.71a27.29,27.29,0,0,1,5.06-14.8A.45.45,0,0,0,126,5c-5.46.71-9.6,4.79-14.88,6-.1,0-.19-.08-.3-.11s0,0,0,0l.27.1c-.54.15-.3,1,.26.87.37-.09.72-.21,1.07-.33a10.8,10.8,0,0,1,6,10.42,5.58,5.58,0,0,0-5.07.55.38.38,0,0,0,.19.7,9.6,9.6,0,0,1,7.54,5.05.4.4,0,0,0,.69,0,15.58,15.58,0,0,1,6.62-6.49A.41.41,0,0,0,128.47,21.15Z"/><path class="cls-1" d="M170.43,30.07c-4.61-4.51-1.56-12.63-6.78-16.82a5.69,5.69,0,0,0-.26-.56s-.08,0-.07,0,.09.27.14.41c-.47-.17-1,.42-.54.77a7.87,7.87,0,0,1,1,1,10.53,10.53,0,0,1-.82,7A9.74,9.74,0,0,1,156.91,27a.29.29,0,0,0-.21.28,6.26,6.26,0,0,1-5.31,6.81.36.36,0,0,0-.33.44A4.08,4.08,0,0,1,146.64,39a.34.34,0,0,0-.3.52,3,3,0,0,0,3,1.2c1.53-.23,2.69-1.41,3.73-2.47a.32.32,0,0,0,.09-.27,5.41,5.41,0,0,1,4.07.14A4.92,4.92,0,0,1,159.9,42a.3.3,0,0,0,.58.08,5.16,5.16,0,0,0-.94-5.4,7.14,7.14,0,0,1,7.25-.93.37.37,0,0,0,.54-.42,4.17,4.17,0,0,1,2.92-4.6A.4.4,0,0,0,170.43,30.07Z"/><path class="cls-1" d="M183.14,35a20.94,20.94,0,0,0-3.68-.61,10.55,10.55,0,0,0-3.72.16.46.46,0,0,0,.12.9,3.13,3.13,0,0,0,.53,0,10.47,10.47,0,0,1-2.53,8.67.23.23,0,0,0,.15.38,4.92,4.92,0,0,1,4,1.69.29.29,0,0,0,.47-.13c.25-1,.32-2.12.53-3.17a16.42,16.42,0,0,1,.82-2.94,7.66,7.66,0,0,1,3.41-4A.51.51,0,0,0,183.14,35Z"/><path class="cls-1" d="M207.62,39.19c-2.31-1.29-4.94-1.51-7.53-1.73L191,36.68a5.7,5.7,0,0,0-.43-.42s0,0,0,0,.23.27.35.4l-.15,0c-.54,0-.54.81,0,.86l.81.06a7.3,7.3,0,0,1-.18,6.91.34.34,0,0,0,.46.46c2.52-1.47,4.73,1.14,5.83,3.12a.37.37,0,0,0,.68-.09,4.56,4.56,0,0,1,2.34-2.54,4.34,4.34,0,0,1,1.77-.42A4.84,4.84,0,0,0,204,45c.93-.32,1.07-1.63,1.47-2.39a9,9,0,0,1,2.27-2.78A.41.41,0,0,0,207.62,39.19Z"/><path class="cls-1" d="M135.18,31.65a6.1,6.1,0,0,0-9.32,3.62,2.27,2.27,0,0,0-2-.88,4,4,0,0,0-1.73.51c-.77.4-1.09.91-1.94.28a5.67,5.67,0,0,0-6.79.5A8.25,8.25,0,0,0,111.1,39c-.11.29-.21.58-.3.88s-.1.39-.15.59-.28.33-.51.2c-.57,0-1.18-.17-1.77-.14a7.63,7.63,0,0,0-6.12,3.65.49.49,0,0,0,.67.67A8.58,8.58,0,0,1,112.78,46a.46.46,0,0,0,.73-.51c.14-2.94,2-5.89,5-6.54a6.5,6.5,0,0,1,7.07,3.67.36.36,0,0,0,.64-.09A3.14,3.14,0,0,1,129.92,40c.24,0,.51-.15.42-.41A5.55,5.55,0,0,1,135,32.3.35.35,0,0,0,135.18,31.65Z"/><path class="cls-1" d="M44.08,62.57A11,11,0,0,1,40.51,56c0-.32-.45-.34-.65-.18a3.87,3.87,0,0,1-5.59-.73.29.29,0,0,0-.46-.06,6.2,6.2,0,0,1-3.3,2c-1.34.13-2-.9-3-1.59a.29.29,0,0,0-.43.24c.28,2.83-2.41,4.22-4.75,4.76a26.38,26.38,0,0,1-6.76,1.1,8.08,8.08,0,0,1-.9-.52c-.43-.28-.82.4-.4.69,3.91,2.64,8.81,2.12,13.22,1.44a49.43,49.43,0,0,1,8-.76,36,36,0,0,1,8.2,1C44.06,63.42,44.43,62.88,44.08,62.57Z"/><path class="cls-1" d="M148.88,55.28A5.29,5.29,0,0,0,145,52.83a.47.47,0,0,0-.38-.17l-2.71,0a.53.53,0,0,0-.49.65c.4,1.84-.7,3.09-2.25,3.81-1.38.65-1.9,1.86-3,2.83a5.37,5.37,0,0,1-8.27-1.64.41.41,0,0,0-.64-.09A6.11,6.11,0,0,1,121,60.1a.4.4,0,0,0-.44.18,7.31,7.31,0,0,1-5.8,3.48,6.73,6.73,0,0,1-4.34-1.41A7.62,7.62,0,0,1,108.15,55a.53.53,0,0,0-.64-.64A5.52,5.52,0,0,1,102,51.88a.54.54,0,0,0-1,.12,6.13,6.13,0,0,1-3.73,3.81,5,5,0,0,1-3,.15c-.91-.26-1.89-2.17-2.17-2.15a1.51,1.51,0,0,0-.11-.22,0,0,0,0,0,0,0A1.34,1.34,0,0,0,92,54h0a5.46,5.46,0,0,1-3.15,2.66,5.4,5.4,0,0,1-2,.25c-.48,0-.89-.26-1.32,0a3.49,3.49,0,0,1-2.14.61,3.36,3.36,0,0,1-2.08-1,5.22,5.22,0,0,1-1.09-4.57.37.37,0,0,0-.46-.46,7.3,7.3,0,0,1-8.45-4.57c-.16-.44-.84-.26-.7.19a5.72,5.72,0,0,1-5,7.1.35.35,0,0,0-.34.26A8.2,8.2,0,0,1,63,58.87a4.44,4.44,0,0,1-5.07.83.24.24,0,0,0-.3.08A8.63,8.63,0,0,1,49,64.06a.73.73,0,0,0-.75-.75.79.79,0,0,0,0,1.58.69.69,0,0,0,.61-.33c4.48,2.09,9.74,1.46,14.54,1C69.86,65,76.29,64.41,82.78,65s12.64,1.92,18.94,3a126,126,0,0,0,18.6,1.74,101.36,101.36,0,0,0,18.74-1.44s0,0,0,0c2.25.24,4.26-.9,6-2.21a12,12,0,0,0,4-4.8A6.55,6.55,0,0,0,148.88,55.28Z"/><path class="cls-1" d="M182.46,50a.37.37,0,0,0-.62-.17c-.63.51-1.81,1.43-2.49.42a.4.4,0,0,0-.68,0,3.21,3.21,0,0,1-3.49,1.1,7.92,7.92,0,0,1-3-2,.13.13,0,0,0-.21,0,.34.34,0,0,0-.25.17A13,13,0,0,1,161.25,55,9.24,9.24,0,0,1,155,53.08a6.41,6.41,0,0,1-1.9-6.1.28.28,0,0,0-.4-.32c-1.69.87-4,1.6-5.4-.21a.24.24,0,0,0-.43.18A5.37,5.37,0,0,1,146,50.4c-.33-.06-.69.11-.64.54.13,1.25,1.32,1.77,2.27,2.4,1.41.91,2.82,1.82,4.26,2.69a34.81,34.81,0,0,0,8.5,4,23,23,0,0,0,9.39.31,23.52,23.52,0,0,0,8.87-2.89C181.33,55.8,183.27,53.23,182.46,50Z"/><path class="cls-1" d="M230.3,48.55a10.14,10.14,0,0,1-2.69-.15c-.75-.14-1.45-.52-2.19-.66s-1.18.21-1.8.21a3,3,0,0,1-2.24-1.09.32.32,0,0,0-.51.06c-.52.83-1.26,1.93-2.37,1.48-.46-.18-.78-.54-1.3-.47a5.49,5.49,0,0,0-1.34.58,7.68,7.68,0,0,1-2.45.81c-1.3.11-2.29-.84-3.6-.58-1.7.33-3.57.84-4.89-.66a.33.33,0,0,0-.45,0c-2.05,2.5-5.37,4.79-8.62,3a.29.29,0,0,0-.3,0,3.25,3.25,0,0,1-4.21-.26.26.26,0,0,0-.41.06A4.13,4.13,0,0,1,186.76,53a.72.72,0,0,0-.72-.54A.79.79,0,0,0,186,54a.7.7,0,0,0,.71-.53,19.86,19.86,0,0,0,6.72,1.61,58.81,58.81,0,0,0,9.57,0,70.82,70.82,0,0,0,9.44-1.92q5-1.14,10-1.94c1.71-.27,3.46-.42,5.15-.78a13.13,13.13,0,0,0,2.21-.68c.36-.14.59-.24.64-.65,0,0,0,0,0,0C230.7,49,230.67,48.53,230.3,48.55Z"/></g></g></g></g></svg>