<svg xmlns="http://www.w3.org/2000/svg" xmlns:xlink="http://www.w3.org/1999/xlink" viewBox="0 0 288.19 61.53"><defs><style>.cls-1,.cls-3{fill:none;}.cls-2{clip-path:url(#clip-path);}.cls-3{stroke:#c91b41;stroke-miterlimit:10;stroke-width:0.41px;}</style><clipPath id="clip-path" transform="translate(32.62 -22.71)"><rect class="cls-1" width="204.51" height="109.49"/></clipPath></defs><g id="Layer_2" data-name="Layer 2"><g id="Layer_1-2" data-name="Layer 1"><g class="cls-2"><g id="Layer_2-2" data-name="Layer 2"><g id="Layer_1-2-2" data-name="Layer 1-2"><rect class="cls-3" x="0.2" y="57.18" width="287.78" height="4.15"/><rect class="cls-3" x="169.73" y="0.2" width="1.2" height="48.48"/><rect class="cls-3" x="168.86" y="0.2" width="2.96" height="15.31"/><line class="cls-3" x1="171.53" y1="0.48" x2="239.04" y2="48.96"/><line class="cls-3" x1="171.53" y1="0.48" x2="229.15" y2="48.96"/><line class="cls-3" x1="171.53" y1="0.48" x2="220.61" y2="48.96"/><line class="cls-3" x1="171.53" y1="0.48" x2="213.05" y2="48.96"/><line class="cls-3" x1="171.53" y1="0.48" x2="206.21" y2="48.96"/><line class="cls-3" x1="171.53" y1="0.48" x2="199.91" y2="48.96"/><line class="cls-3" x1="171.53" y1="0.48" x2="193.99" y2="48.96"/><line class="cls-3" x1="171.53" y1="0.48" x2="188.34" y2="48.96"/><line class="cls-3" x1="171.53" y1="0.48" x2="182.87" y2="48.96"/><line class="cls-3" x1="171.53" y1="0.48" x2="177.47" y2="48.96"/><line class="cls-3" x1="169.07" y1="0.43" x2="101.56" y2="48.91"/><line class="cls-3" x1="169.07" y1="0.43" x2="111.45" y2="48.91"/><line class="cls-3" x1="169.07" y1="0.43" x2="120" y2="48.91"/><line class="cls-3" x1="169.07" y1="0.43" x2="127.56" y2="48.91"/><line class="cls-3" x1="169.07" y1="0.43" x2="134.39" y2="48.91"/><line class="cls-3" x1="169.07" y1="0.43" x2="140.69" y2="48.91"/><line class="cls-3" x1="169.07" y1="0.43" x2="146.61" y2="48.91"/><line class="cls-3" x1="169.07" y1="0.43" x2="152.26" y2="48.91"/><line class="cls-3" x1="169.07" y1="0.43" x2="157.74" y2="48.91"/><line class="cls-3" x1="169.07" y1="0.43" x2="163.13" y2="48.91"/><polygon class="cls-3" points="180.8 47.31 181.96 47.04 171.19 13.48 170.03 13.74 180.8 47.31"/><polygon class="cls-3" points="159.86 47.31 158.69 47.04 169.46 13.48 170.62 13.74 159.86 47.31"/><path class="cls-3" d="M251,70.91V83.08h-1.38V70.91Zm-11.32,0V83.08H241V70.91Zm-9.94,0V83.08h1.38V70.91Zm-9.93,0V83.08h1.38V70.91Zm-9.95,0V83.08h1.38V70.91Zm-9.94,0V83.08h1.38V70.91Zm-9.93,0V83.08h1.38V70.91Zm-9.94,0V83.08h1.37V70.91Zm-89.46,0V83.08h1.38V70.91Zm-9.94,0V83.08H82V70.91Zm-9.94,0V83.08H72V70.91Z" transform="translate(32.62 -22.71)"/><path class="cls-3" d="M132,80.89h-5V82h21.47V80.89h-3.81l.28-.45L150.11,72l-1.55-.5L144,79l-4.9-7.35-.68.23-1.15-.37L132.63,79l-4.9-7.35-1.56.52Zm1.32,0,.28-.45,4.52-7.35,5.34,7.8Z" transform="translate(32.62 -22.71)"/><rect class="cls-3" x="0.2" y="46.21" width="287.78" height="3.54"/><rect class="cls-3" x="0.2" y="48.2" width="287.78" height="1.54"/><path class="cls-3" d="M251,72.29v5.17h-1.38V72.29Zm-11.32,0v5.17H241V72.29Zm-9.94,0v5.17h1.38V72.29Zm-9.93,0v5.17h1.38V72.29Zm-9.95,0v5.17h1.38V72.29Zm-9.94,0v5.17h1.38V72.29Zm-9.93,0v5.17h1.38V72.29Zm-9.94,0v5.17h1.37V72.29Zm-89.46,0v5.17h1.38V72.29Zm-9.94,0v5.17H82V72.29Zm-9.94,0v5.17H72V72.29Z" transform="translate(32.62 -22.71)"/><path class="cls-3" d="M60.33,71V83.2H59V71ZM49,71V83.2h1.38V71Zm-9.94,0V83.2h1.4V71Zm-9.94,0V83.2h1.38V71Zm-9.94,0V83.2h1.38V71ZM9.25,71V83.2h1.38V71ZM-.69,71V83.2H.69V71Zm-9.94,0V83.2h1.38V71Z" transform="translate(32.62 -22.71)"/><path class="cls-3" d="M60.33,72.41v5.17H59V72.41ZM49,72.41v5.17h1.38V72.41Zm-9.94,0v5.17h1.4V72.41Zm-9.94,0v5.17h1.38V72.41Zm-9.94,0v5.17h1.38V72.41Zm-9.94,0v5.17h1.38V72.41Zm-9.94,0v5.17H.69V72.41Zm-9.94,0v5.17h1.38V72.41Z" transform="translate(32.62 -22.71)"/><polygon class="cls-3" points="164.2 54.75 165.23 56.29 166.18 54.75 168.03 54.75 166.2 57.73 165.92 58.18 176.06 58.18 173.71 54.75 175.54 54.75 176.58 56.29 177.53 54.75 179.38 54.75 177.55 57.73 177.27 58.18 181.08 58.18 181.08 59.26 159.61 59.26 159.61 58.18 164.6 58.18 162.3 54.75 164.2 54.75"/></g></g></g></g></g></svg>