<svg xmlns="http://www.w3.org/2000/svg" viewBox="0 0 705.8 150.71"><defs><style>.cls-1{fill:none;stroke:#c91b41;stroke-miterlimit:10;}</style></defs><g id="Layer_2" data-name="Layer 2"><g id="Layer_1-2" data-name="Layer 1"><rect class="cls-1" x="0.5" y="140.05" width="704.8" height="10.16" transform="translate(705.8 290.25) rotate(-180)"/><rect class="cls-1" x="415.69" y="0.5" width="2.95" height="118.72" transform="translate(834.33 119.72) rotate(-180)"/><rect class="cls-1" x="413.54" y="0.5" width="7.24" height="37.5" transform="translate(834.33 38.5) rotate(-180)"/><line class="cls-1" x1="420.09" y1="1.18" x2="585.44" y2="119.9"/><line class="cls-1" x1="420.09" y1="1.18" x2="561.21" y2="119.9"/><line class="cls-1" x1="420.09" y1="1.18" x2="540.29" y2="119.9"/><line class="cls-1" x1="420.09" y1="1.18" x2="521.77" y2="119.9"/><line class="cls-1" x1="420.09" y1="1.18" x2="505.03" y2="119.9"/><line class="cls-1" x1="420.09" y1="1.18" x2="489.59" y2="119.9"/><line class="cls-1" x1="420.09" y1="1.18" x2="475.1" y2="119.9"/><line class="cls-1" x1="420.09" y1="1.18" x2="461.27" y2="119.9"/><line class="cls-1" x1="420.09" y1="1.18" x2="447.86" y2="119.9"/><line class="cls-1" x1="420.09" y1="1.18" x2="434.65" y2="119.9"/><line class="cls-1" x1="414.07" y1="1.06" x2="248.73" y2="119.78"/><line class="cls-1" x1="414.07" y1="1.06" x2="272.95" y2="119.78"/><line class="cls-1" x1="414.07" y1="1.06" x2="293.88" y2="119.78"/><line class="cls-1" x1="414.07" y1="1.06" x2="312.4" y2="119.78"/><line class="cls-1" x1="414.07" y1="1.06" x2="329.14" y2="119.78"/><line class="cls-1" x1="414.07" y1="1.06" x2="344.57" y2="119.78"/><line class="cls-1" x1="414.07" y1="1.06" x2="359.06" y2="119.78"/><line class="cls-1" x1="414.07" y1="1.06" x2="372.89" y2="119.78"/><line class="cls-1" x1="414.07" y1="1.06" x2="386.31" y2="119.78"/><line class="cls-1" x1="414.07" y1="1.06" x2="399.52" y2="119.78"/><polygon class="cls-1" points="442.79 115.86 445.63 115.2 419.26 33.01 416.42 33.66 442.79 115.86"/><polygon class="cls-1" points="391.5 115.86 388.65 115.2 415.02 33.01 417.87 33.66 391.5 115.86"/><path class="cls-1" d="M694.49,118.06v29.8h-3.37v-29.8Zm-27.72,0v29.8h3.38v-29.8Zm-24.34,0v29.8h3.38v-29.8Zm-24.34,0v29.8h3.38v-29.8Zm-24.35,0v29.8h3.38v-29.8Zm-24.34,0v29.8h3.38v-29.8Zm-24.34,0v29.8h3.38v-29.8Zm-24.34,0v29.8h3.37v-29.8Zm-219.09,0v29.8H305v-29.8Zm-24.35,0v29.8h3.38v-29.8Zm-24.34,0v29.8h3.38v-29.8Z"/><path class="cls-1" d="M403.13,142.49H390.91v2.64h52.57v-2.64h-9.33l.68-1.1,12.7-20.61-3.8-1.22-11.27,18.3-12-18-1.66.56-2.82-.91-11.28,18.3-12-18-3.81,1.27Zm3.23,0,.67-1.1,11.09-18,13.07,19.1Z"/><rect class="cls-1" x="0.5" y="113.17" width="704.8" height="8.67" transform="translate(705.8 235.01) rotate(-180)"/><rect class="cls-1" x="0.5" y="118.06" width="704.8" height="3.78" transform="translate(705.8 239.89) rotate(-180)"/><path class="cls-1" d="M694.49,121.43v12.65h-3.37V121.43Zm-27.72,0v12.65h3.38V121.43Zm-24.34,0v12.65h3.38V121.43Zm-24.34,0v12.65h3.38V121.43Zm-24.35,0v12.65h3.38V121.43Zm-24.34,0v12.65h3.38V121.43Zm-24.34,0v12.65h3.38V121.43Zm-24.34,0v12.65h3.37V121.43Zm-219.09,0v12.65H305V121.43Zm-24.35,0v12.65h3.38V121.43Zm-24.34,0v12.65h3.38V121.43Z"/><path class="cls-1" d="M227.64,118.35v29.81h-3.38V118.35Zm-27.72,0v29.81h3.38V118.35Zm-24.34,0v29.81H179V118.35Zm-24.35,0v29.81h3.38V118.35Zm-24.34,0v29.81h3.38V118.35Zm-24.34,0v29.81h3.37V118.35Zm-24.35,0v29.81h3.38V118.35Zm-24.34,0v29.81h3.38V118.35Z"/><path class="cls-1" d="M227.64,121.72v12.66h-3.38V121.72Zm-27.72,0v12.66h3.38V121.72Zm-24.34,0v12.66H179V121.72Zm-24.35,0v12.66h3.38V121.72Zm-24.34,0v12.66h3.38V121.72Zm-24.34,0v12.66h3.37V121.72Zm-24.35,0v12.66h3.38V121.72Zm-24.34,0v12.66h3.38V121.72Z"/><polygon class="cls-1" points="402.13 134.08 404.66 137.86 406.99 134.08 411.53 134.08 407.03 141.39 406.36 142.49 431.19 142.49 425.44 134.08 429.92 134.08 432.46 137.86 434.78 134.08 439.33 134.08 434.83 141.39 434.15 142.49 443.48 142.49 443.48 145.13 390.9 145.13 390.9 142.49 403.13 142.49 397.48 134.08 402.13 134.08"/></g></g></svg>